<svg id="act_on" data-name="act on" xmlns="http://www.w3.org/2000/svg" width="96.697" height="30.535" viewBox="0 0 96.697 30.535">
  <path id="Path_108198" data-name="Path 108198" d="M71.845,246.332a.776.776,0,0,0-.725-.773H68.96a.416.416,0,0,1-.419-.419v-3.174a.43.43,0,0,1,.419-.435H71.1a.789.789,0,0,0,.741-.773V227.673a1.276,1.276,0,0,0-1.273-1.273h-48.1a1.265,1.265,0,0,0-1.273,1.273v27.973a1.265,1.265,0,0,0,1.273,1.273h48.1a1.265,1.265,0,0,0,1.273-1.273v-9.314h0" transform="translate(-21.2 -226.384)" fill="#003963"/>
  <path id="Path_108199" data-name="Path 108199" d="M385.884,226.3H343.473a1.265,1.265,0,0,0-1.273,1.273v13.1a.8.8,0,0,0,.741.773H345.2a.416.416,0,0,1,.419.419v3.174a.416.416,0,0,1-.419.419h-2.256a.785.785,0,0,0-.725.757v9.33a1.265,1.265,0,0,0,1.273,1.273H385.9a1.276,1.276,0,0,0,1.273-1.273V227.573a1.3,1.3,0,0,0-1.289-1.273" transform="translate(-290.476 -226.3)" fill="#9bcced"/>
  <path id="Path_108200" data-name="Path 108200" d="M62.021,289.122a3.256,3.256,0,0,0,6.51,0,3.255,3.255,0,0,0-6.51,0m11.392,7.106h-5.06v-1.579h-.048a5.006,5.006,0,0,1-4.3,2.063,7.337,7.337,0,0,1-7.2-7.622c0-4.077,2.917-7.589,7.138-7.589a5.816,5.816,0,0,1,4.415,1.853v-1.386h5.06v14.26" transform="translate(-51.064 -272.605)" fill="#fff"/>
  <path id="Path_108201" data-name="Path 108201" d="M181.412,286.792a4.55,4.55,0,0,0-2.61-1,3.489,3.489,0,1,0,.081,6.977,3.869,3.869,0,0,0,2.53-.967v4.286a8.05,8.05,0,0,1-3.561.806,7.517,7.517,0,0,1-7.751-7.444,7.63,7.63,0,0,1,7.976-7.751,6.835,6.835,0,0,1,3.335.838v4.254" transform="translate(-146.107 -272.773)" fill="#fff"/>
  <path id="Path_108202" data-name="Path 108202" d="M254.887,276.431h-5.044V266.343H248.2v-4.157h1.644V257.9h5.044v4.286h2.868v4.157h-2.868Z" transform="translate(-211.622 -252.808)" fill="#fff"/>
  <path id="Path_108203" data-name="Path 108203" d="M388.532,282.426v4.931a3.221,3.221,0,0,1,1.015,2.385,3.223,3.223,0,0,1-6.445,0,3.214,3.214,0,0,1,.838-2.24v-5.043c-3.464.79-6.139,3.335-6.139,7.3,0,4.834,4,7.541,8.524,7.541,4.56,0,8.524-2.723,8.524-7.541,0-4.028-2.755-6.574-6.316-7.332m17.5-.226a4.9,4.9,0,0,0-4.528,2.288h-.048v-1.821h-5.027v14.164h5.027v-7.348c0-1.773.58-3.287,2.626-3.287,2.481,0,2.272,2.369,2.272,3.722v6.9h5v-8.75c0-3.464-1.515-5.865-5.317-5.865" transform="translate(-320.339 -273.193)" fill="#fff"/>
  <path id="Path_108204" data-name="Path 108204" d="M423.49,271.042a.342.342,0,0,1-.322.354h-2.546a.342.342,0,0,1-.322-.354V260.954a.342.342,0,0,1,.322-.354h2.53a.342.342,0,0,1,.322.354v10.087" transform="translate(-355.991 -255.073)" fill="#fff"/>
</svg>
