<svg xmlns="http://www.w3.org/2000/svg" width="56.944" height="57.076" viewBox="0 0 56.944 57.076">
  <g id="Constant_contact" data-name="Constant contact" transform="translate(0 -0.028)">
    <path id="Path_108252" data-name="Path 108252" d="M36.369,23.229a3.622,3.622,0,0,0,3.544,2.43,5.082,5.082,0,0,0,1.215-.2A3.718,3.718,0,0,0,43.355,20.7a13.391,13.391,0,0,0-7.29-7.594A3.865,3.865,0,0,0,31.1,14.926a3.865,3.865,0,0,0,1.822,4.961A5.891,5.891,0,0,1,36.369,23.229Z" transform="translate(0.384 0.159)" fill="#ff9e1a" fill-rule="evenodd"/>
    <path id="Path_108253" data-name="Path 108253" d="M35.155.1a3.713,3.713,0,1,0-1.417,7.29c8.4,1.62,14.073,7.29,15.491,15.491a3.684,3.684,0,0,0,3.645,3.037,1.284,1.284,0,0,0,.607-.1,3.8,3.8,0,0,0,3.037-4.252C54.594,10.428,46.6,2.328,35.155.1Z" transform="translate(0.383)" fill="#ff9e1a" fill-rule="evenodd"/>
    <path id="Path_108254" data-name="Path 108254" d="M25.967,36.944a6.176,6.176,0,0,1,0-12.352,3.737,3.737,0,0,0,3.746-3.746A3.675,3.675,0,0,0,25.967,17.1,13.567,13.567,0,1,0,39.534,30.667a3.746,3.746,0,1,0-7.492,0A6.076,6.076,0,0,1,25.967,36.944Z" transform="translate(0.155 0.213)" fill="#1856ed" fill-rule="evenodd"/>
    <path id="Path_108255" data-name="Path 108255" d="M48.5,27.277a3.737,3.737,0,0,0-3.746,3.746A18.731,18.731,0,1,1,26.021,12.292a3.746,3.746,0,1,0,0-7.492A26.122,26.122,0,1,0,52.244,30.922,3.653,3.653,0,0,0,48.5,27.277Z" transform="translate(0 0.06)" fill="#1856ed" fill-rule="evenodd"/>
  </g>
</svg>
