<svg xmlns="http://www.w3.org/2000/svg" width="97.83" height="28.367" viewBox="0 0 97.83 28.367">
  <g id="hubspot" transform="translate(-0.06 -0.002)">
    <path id="Path_108187" data-name="Path 108187" d="M.06,27.679H3.471v7.579h7.194V27.679h3.416v18.6H10.666V38.545H3.471v7.738H.06ZM24.888,40.223a2.826,2.826,0,0,1-5.651,0V32.214H16v8.009a6.06,6.06,0,0,0,12.12,0V32.214H24.888v8.009m12.265-7.916a4.972,4.972,0,0,0-3.807,1.528V27.679H30.1V39.088c0,4.27,3.088,7.195,6.556,7.195A7.1,7.1,0,0,0,43.892,39.3a6.866,6.866,0,0,0-6.739-6.988Zm.081,10.973a3.987,3.987,0,0,1,0-7.971,4.013,4.013,0,0,1,0,7.971Zm12.11-10.155a2,2,0,0,1,2.277-2.149,4.861,4.861,0,0,1,3.053,1.6L56.8,30.1a6.7,6.7,0,0,0-4.968-2.407c-3.52,0-6.056,2.045-6.056,5.435,0,6.289,7.738,4.3,7.738,7.816a2.227,2.227,0,0,1-2.276,2.044c-1.916,0-2.537-.932-3.417-1.915L45.461,43.5a6.96,6.96,0,0,0,5.591,2.77c3.338,0,6.03-2.07,6.03-5.306,0-6.987-7.738-4.813-7.738-7.841m16.282-1c-3.468,0-6.556,2.923-6.556,7.194V50.757h3.245V44.572A4.974,4.974,0,0,0,66.121,46.1a6.866,6.866,0,0,0,6.739-6.987,7.1,7.1,0,0,0-7.235-6.987ZM66.2,43.1a3.987,3.987,0,0,1,0-7.972,4.013,4.013,0,0,1,0,7.972Zm30.548.182c-1.914,0-2.458-.828-2.458-2.1V35.568h2.976V32.722H94.292V28.969l-3.286,1.475V41.882c0,2.925,2.018,4.4,4.786,4.4a6.645,6.645,0,0,0,1.295-.1l.8-2.95c-.362.025-.776.051-1.14.051" transform="translate(0 -22.388)" fill="#45535e"/>
    <path id="Path_108188" data-name="Path 108188" d="M358.143,13.345a7.137,7.137,0,0,0-2.591-2.575,6.958,6.958,0,0,0-2.621-.908v-3.4a2.511,2.511,0,0,0,1.548-2.351,2.582,2.582,0,1,0-5.164,0,2.481,2.481,0,0,0,1.514,2.351v3.4a7.483,7.483,0,0,0-2.281.715c-1.478-1.123-6.326-4.806-9.162-6.958a2.814,2.814,0,0,0,.119-.756,2.887,2.887,0,1,0-1.392,2.446l.6.454,8.223,5.925a6.9,6.9,0,0,0-1.164,1.363,6.359,6.359,0,0,0-1.057,3.428v.26a7.184,7.184,0,0,0,.449,2.477,6.5,6.5,0,0,0,1.065,1.851L343.5,23.8a2.205,2.205,0,1,0,1.352,1.411l2.821-2.821a7.249,7.249,0,0,0,1.253.686,7.33,7.33,0,0,0,2.933.616h.2a7.025,7.025,0,0,0,5.971-3.316,6.481,6.481,0,0,0,1.019-3.491v-.064a6.844,6.844,0,0,0-.9-3.48ZM354.7,19.264a3.588,3.588,0,0,1-2.641,1.375h-.164a3.569,3.569,0,0,1-1.668-.443,3.856,3.856,0,0,1-1.461-1.331,3.1,3.1,0,0,1-.608-1.812v-.2a3.712,3.712,0,0,1,.429-1.8,3.908,3.908,0,0,1,1.361-1.488A3.33,3.33,0,0,1,351.827,13h.064a3.82,3.82,0,0,1,1.773.408,3.755,3.755,0,0,1,1.392,1.267,4.028,4.028,0,0,1,.624,1.779c.01.134.016.27.016.4a3.52,3.52,0,0,1-1,2.413Z" transform="translate(-269.952)" fill="#f8761f"/>
  </g>
</svg>
