<svg xmlns="http://www.w3.org/2000/svg" width="78.018" height="51.73" viewBox="0 0 78.018 51.73">
  <path id="marketo" d="M224.987-.3h-7.854a4.721,4.721,0,0,0-4.293,3.351L202.682,46.194A93.528,93.528,0,0,1,216.3,51.43L227.71,2.946A2.646,2.646,0,0,0,225.929-.3ZM203.625,13.209h-7.854a4.721,4.721,0,0,0-4.293,3.351L185.4,42.32a136.234,136.234,0,0,1,14.137,3.037l6.7-28.8a2.646,2.646,0,0,0-1.78-3.246c-.209,0-.524-.1-.838-.1Zm-40,16.755h-7.854a4.721,4.721,0,0,0-4.293,3.351L149.8,40.435c1.257-.1,2.513-.1,3.77-.209,3.875,0,7.54,0,11,.1l1.676-7.121a2.646,2.646,0,0,0-1.78-3.246Zm20.525-9.006h-7.854A4.721,4.721,0,0,0,172,24.309L168.23,40.54c5.236.314,10.053.733,14.451,1.361l4.189-17.592a2.646,2.646,0,0,0-1.78-3.246A3.23,3.23,0,0,0,184.147,20.958Z" transform="translate(-149.8 0.3)" fill="#716fb3"/>
</svg>
