<svg xmlns="http://www.w3.org/2000/svg" width="89.667" height="29.769" viewBox="0 0 89.667 29.769">
  <g id="microsoft_dynamics" data-name="microsoft dynamics" transform="translate(0.5 0.835)">
    <g id="Group_37505" data-name="Group 37505">
      <path id="Path_108226" data-name="Path 108226" d="M11.1,13.177l5.722-4.161L0,0V7.629ZM0,9.016V28.088l17.338-9.536v-8.5L.694,27.047,5.548,12.657Z" fill="#021f52" stroke="#021f52" stroke-linecap="round" stroke-width="1" fill-rule="evenodd"/>
      <path id="Path_108227" data-name="Path 108227" d="M129.934,35.433v4.613H129.4V36.951q0-.367.045-.9h-.013a2.853,2.853,0,0,1-.138.447l-1.576,3.545h-.264l-1.573-3.519a2.754,2.754,0,0,1-.138-.473h-.013q.026.277.026.9v3.089h-.521V35.433h.714l1.415,3.217a4.141,4.141,0,0,1,.212.553h.019q.138-.38.222-.566l1.444-3.2h.676Z" transform="translate(-103.518 -29.29)" fill="#021f52" fill-rule="evenodd"/>
      <path id="Path_108228" data-name="Path 108228" d="M156.378,34.949a.335.335,0,0,1-.241-.1.326.326,0,0,1-.1-.244.338.338,0,0,1,.341-.344.34.34,0,0,1,.246.1.344.344,0,0,1,0,.487A.338.338,0,0,1,156.378,34.949Zm.257.836V39.08h-.528V35.786Z" transform="translate(-128.983 -28.323)" fill="#021f52" fill-rule="evenodd"/>
      <path id="Path_108229" data-name="Path 108229" d="M164.82,45.314v.5a1.715,1.715,0,0,1-.9.228,1.491,1.491,0,0,1-1.137-.458,1.661,1.661,0,0,1-.433-1.189,1.826,1.826,0,0,1,.466-1.308,1.632,1.632,0,0,1,1.245-.494,1.732,1.732,0,0,1,.766.161v.54a1.341,1.341,0,0,0-.785-.257,1.061,1.061,0,0,0-.828.362,1.373,1.373,0,0,0-.323.951,1.308,1.308,0,0,0,.3.914,1.048,1.048,0,0,0,.816.335,1.323,1.323,0,0,0,.811-.286Z" transform="translate(-134.201 -35.211)" fill="#021f52" fill-rule="evenodd"/>
      <path id="Path_108230" data-name="Path 108230" d="M180.919,42.752V43.3a.646.646,0,0,0-.4-.106.673.673,0,0,0-.565.319,1.473,1.473,0,0,0-.227.869v1.679H179.2V42.765h.528v.679h.013a1.149,1.149,0,0,1,.344-.542.785.785,0,0,1,.518-.195.86.86,0,0,1,.315.045Z" transform="translate(-148.131 -35.302)" fill="#021f52" fill-rule="evenodd"/>
      <path id="Path_108231" data-name="Path 108231" d="M189.714,46.044a1.528,1.528,0,0,1-1.166-.462,1.71,1.71,0,0,1-.436-1.224,1.782,1.782,0,0,1,.454-1.3,1.631,1.631,0,0,1,1.226-.466,1.477,1.477,0,0,1,1.15.454,1.8,1.8,0,0,1,.413,1.258,1.77,1.77,0,0,1-.446,1.263,1.561,1.561,0,0,1-1.2.475Zm.039-3a1,1,0,0,0-.8.346,1.42,1.42,0,0,0-.3.954,1.343,1.343,0,0,0,.3.923,1.017,1.017,0,0,0,.8.338.965.965,0,0,0,.787-.331,1.438,1.438,0,0,0,.275-.943,1.463,1.463,0,0,0-.275-.952.96.96,0,0,0-.787-.335Z" transform="translate(-155.497 -35.21)" fill="#021f52" fill-rule="evenodd"/>
      <path id="Path_108232" data-name="Path 108232" d="M208.526,45.848v-.566a1.561,1.561,0,0,0,.949.319q.695,0,.695-.463a.4.4,0,0,0-.059-.223.591.591,0,0,0-.161-.162,1.237,1.237,0,0,0-.238-.127q-.137-.056-.294-.117a3.79,3.79,0,0,1-.384-.175,1.16,1.16,0,0,1-.277-.2.743.743,0,0,1-.167-.253.893.893,0,0,1-.056-.331.787.787,0,0,1,.106-.41.941.941,0,0,1,.283-.3,1.317,1.317,0,0,1,.4-.182,1.793,1.793,0,0,1,.468-.061,1.891,1.891,0,0,1,.766.148v.534a1.492,1.492,0,0,0-.836-.238.977.977,0,0,0-.267.034.656.656,0,0,0-.2.095.439.439,0,0,0-.132.146.386.386,0,0,0-.047.188.451.451,0,0,0,.047.216.474.474,0,0,0,.137.154,1.037,1.037,0,0,0,.219.122q.129.055.293.119a4.04,4.04,0,0,1,.393.172,1.345,1.345,0,0,1,.3.2.779.779,0,0,1,.188.256.826.826,0,0,1,.066.344.812.812,0,0,1-.108.425.925.925,0,0,1-.288.3,1.315,1.315,0,0,1-.415.177,2.05,2.05,0,0,1-.492.058,1.869,1.869,0,0,1-.881-.2Z" transform="translate(-172.372 -35.211)" fill="#021f52" fill-rule="evenodd"/>
      <path id="Path_108233" data-name="Path 108233" d="M189.714,46.044a1.528,1.528,0,0,1-1.166-.462,1.71,1.71,0,0,1-.436-1.224,1.782,1.782,0,0,1,.454-1.3,1.631,1.631,0,0,1,1.226-.466,1.477,1.477,0,0,1,1.15.454,1.8,1.8,0,0,1,.413,1.258,1.77,1.77,0,0,1-.446,1.263,1.561,1.561,0,0,1-1.2.475Zm.039-3a1,1,0,0,0-.8.346,1.42,1.42,0,0,0-.3.954,1.343,1.343,0,0,0,.3.923,1.017,1.017,0,0,0,.8.338.965.965,0,0,0,.787-.331,1.438,1.438,0,0,0,.275-.943,1.463,1.463,0,0,0-.275-.952.96.96,0,0,0-.787-.335Z" transform="translate(-149.621 -35.21)" fill="#021f52" fill-rule="evenodd"/>
      <path id="Path_108234" data-name="Path 108234" d="M242.774,33.561v.476a.7.7,0,0,0-.351-.087q-.553,0-.553.7v.508h.772v.45h-.772v2.844h-.524V35.607h-.563v-.45h.563v-.534a1.11,1.11,0,0,1,.3-.819,1.01,1.01,0,0,1,.746-.3,1.033,1.033,0,0,1,.383.058Z" transform="translate(-199.036 -27.694)" fill="#021f52" fill-rule="evenodd"/>
      <path id="Path_108235" data-name="Path 108235" d="M253.1,41.2v.45a1.017,1.017,0,0,1-.492.1q-.865,0-.865-.965v-1.95h-.566v-.45h.566v-.8l.528-.17v.975h.83v.45h-.83V40.7a.77.77,0,0,0,.113.473.449.449,0,0,0,.373.141.554.554,0,0,0,.344-.109Z" transform="translate(-207.628 -30.93)" fill="#021f52" fill-rule="evenodd"/>
      <path id="Path_108236" data-name="Path 108236" d="M125.916,75.482h-2.348V66.619h2.447q4.685,0,4.685,4.32a4.353,4.353,0,0,1-1.3,3.3A4.826,4.826,0,0,1,125.916,75.482Zm.074-7.923h-1.384v6.983h1.323a3.753,3.753,0,0,0,2.713-.933,3.5,3.5,0,0,0,.97-2.645Q129.612,67.559,125.991,67.559Zm9.522,1.594h1.051L133.652,76.5q-.779,1.965-2.188,1.965a2.321,2.321,0,0,1-.661-.08v-.909a1.877,1.877,0,0,0,.6.111,1.242,1.242,0,0,0,1.15-.915l.507-1.2-2.472-6.316h1.125l1.712,4.87q.031.093.13.482h.037q.031-.148.124-.47l1.8-4.882Zm6.611,2.46v3.869H141.11V71.872q0-2.015-1.471-2.015a1.6,1.6,0,0,0-1.258.572,2.119,2.119,0,0,0-.5,1.443v3.609h-1.014V69.153h1.014V70.2h.025a2.284,2.284,0,0,1,2.076-1.2,1.936,1.936,0,0,1,1.588.67A2.987,2.987,0,0,1,142.124,71.613Zm5.659-.247v4.116h-1.014v-.989h-.025A2.122,2.122,0,0,1,144.8,75.63a2.081,2.081,0,0,1-1.48-.5,1.734,1.734,0,0,1-.535-1.329q0-1.774,2.089-2.064l1.9-.266q0-1.613-1.3-1.613a3.115,3.115,0,0,0-2.064.779V69.6A3.921,3.921,0,0,1,145.552,69q2.231,0,2.231,2.361Zm-1.014,1.545v-.63l-1.526.21a2.477,2.477,0,0,0-1.063.349,1.007,1.007,0,0,0-.358.887.966.966,0,0,0,.331.757,1.278,1.278,0,0,0,.881.294,1.626,1.626,0,0,0,1.245-.528A1.888,1.888,0,0,0,146.769,72.911ZM157.9,71.582v3.9h-1.014V71.848a2.742,2.742,0,0,0-.324-1.52,1.23,1.23,0,0,0-1.091-.47,1.351,1.351,0,0,0-1.1.593,2.27,2.27,0,0,0-.454,1.421v3.609H152.9V71.724q0-1.866-1.44-1.866a1.334,1.334,0,0,0-1.1.559,2.312,2.312,0,0,0-.433,1.455v3.609h-1.014V69.153h1.014v1h.025A2.15,2.15,0,0,1,151.916,69a1.828,1.828,0,0,1,1.792,1.31,2.258,2.258,0,0,1,2.1-1.31q2.089,0,2.089,2.577Zm1.568-4.036a.642.642,0,0,1-.463-.185.626.626,0,0,1-.192-.47.649.649,0,0,1,.655-.661.655.655,0,0,1,.473.188.66.66,0,0,1,0,.936A.649.649,0,0,1,159.466,67.546Zm.494,1.607v6.328h-1.014V69.153Zm5.585,5.074v.964a3.293,3.293,0,0,1-1.73.439,2.865,2.865,0,0,1-2.185-.881,3.192,3.192,0,0,1-.831-2.284,3.508,3.508,0,0,1,.9-2.512,3.135,3.135,0,0,1,2.392-.949,3.329,3.329,0,0,1,1.471.309v1.038a2.577,2.577,0,0,0-1.508-.494,2.038,2.038,0,0,0-1.591.7,2.638,2.638,0,0,0-.621,1.826,2.512,2.512,0,0,0,.584,1.755,2.013,2.013,0,0,0,1.567.643,2.54,2.54,0,0,0,1.557-.55Zm.369,1.026V74.165a3,3,0,0,0,1.823.612q1.335,0,1.335-.89a.772.772,0,0,0-.114-.429,1.138,1.138,0,0,0-.309-.312,2.382,2.382,0,0,0-.457-.244q-.263-.108-.566-.226a7.305,7.305,0,0,1-.739-.337,2.226,2.226,0,0,1-.531-.383,1.424,1.424,0,0,1-.321-.485,1.715,1.715,0,0,1-.108-.636,1.513,1.513,0,0,1,.2-.788,1.808,1.808,0,0,1,.544-.575,2.533,2.533,0,0,1,.776-.349,3.441,3.441,0,0,1,.9-.117,3.629,3.629,0,0,1,1.471.284v1.026a2.866,2.866,0,0,0-1.607-.457,1.878,1.878,0,0,0-.513.065,1.254,1.254,0,0,0-.393.182.84.84,0,0,0-.253.281.741.741,0,0,0-.09.362.867.867,0,0,0,.09.414.913.913,0,0,0,.263.3,2.01,2.01,0,0,0,.42.235q.247.105.562.229a7.844,7.844,0,0,1,.754.331,2.582,2.582,0,0,1,.569.383,1.5,1.5,0,0,1,.361.491,1.584,1.584,0,0,1,.127.661,1.559,1.559,0,0,1-.207.816,1.774,1.774,0,0,1-.553.575,2.531,2.531,0,0,1-.8.34,3.934,3.934,0,0,1-.946.111,3.591,3.591,0,0,1-1.693-.377Zm8.137-.1V74.06a3.226,3.226,0,0,0,2.052.717,2.23,2.23,0,0,0,1.48-.463,1.544,1.544,0,0,0,.553-1.248q0-1.737-2.466-1.737h-.735V70.47h.7q2.194,0,2.194-1.632,0-1.508-1.675-1.508a2.842,2.842,0,0,0-1.761.636v-.989a3.871,3.871,0,0,1,2.015-.507,2.6,2.6,0,0,1,1.789.593,1.939,1.939,0,0,1,.67,1.52,2.166,2.166,0,0,1-1.78,2.25v.025a2.371,2.371,0,0,1,1.523.67,1.981,1.981,0,0,1,.566,1.443,2.41,2.41,0,0,1-.856,1.925,3.355,3.355,0,0,1-2.259.732,3.7,3.7,0,0,1-2.008-.476Zm11.005-8.43v.958a3.124,3.124,0,0,0-1.446-.352,2.176,2.176,0,0,0-1.888,1.051,4.961,4.961,0,0,0-.708,2.812h.025a2.1,2.1,0,0,1,2.027-1.255,2.39,2.39,0,0,1,1.848.745,2.826,2.826,0,0,1,.686,1.993,2.963,2.963,0,0,1-.785,2.129,2.636,2.636,0,0,1-2,.825,2.436,2.436,0,0,1-2.1-1.063,5.067,5.067,0,0,1-.76-2.985,6.268,6.268,0,0,1,1-3.72,3.083,3.083,0,0,1,2.627-1.391,3.535,3.535,0,0,1,1.471.253ZM182.845,70.8a1.648,1.648,0,0,0-1.273.531,1.793,1.793,0,0,0-.488,1.255,2.5,2.5,0,0,0,.485,1.551,1.628,1.628,0,0,0,2.525.083,2.13,2.13,0,0,0,.47-1.418,2.2,2.2,0,0,0-.451-1.471,1.571,1.571,0,0,0-1.267-.531Zm3.5,4.468V74.19a3.371,3.371,0,0,0,1.848.587,2.142,2.142,0,0,0,1.514-.531,1.828,1.828,0,0,0,.575-1.409,1.671,1.671,0,0,0-.587-1.36,2.563,2.563,0,0,0-1.681-.488q-.371,0-1.39.074V66.619h4.289v.915h-3.331v2.6q.408-.025.754-.025a3.138,3.138,0,0,1,2.2.714,2.522,2.522,0,0,1,.779,1.956,2.7,2.7,0,0,1-.837,2.07,3.224,3.224,0,0,1-2.3.785,3.639,3.639,0,0,1-1.835-.365Z" transform="translate(-102.144 -54.747)" fill="#021f52" fill-rule="evenodd"/>
    </g>
  </g>
</svg>
