<svg xmlns="http://www.w3.org/2000/svg" width="82.646" height="57.847" viewBox="0 0 82.646 57.847">
  <g id="salesforce" transform="translate(-0.128 -0.128)">
    <path id="Path_108205" data-name="Path 108205" d="M34.52-172.825a14.482,14.482,0,0,1,10.48-4.5,14.632,14.632,0,0,1,12.75,7.558,17.618,17.618,0,0,1,7.206-1.532,17.9,17.9,0,0,1,17.817,17.973,17.9,17.9,0,0,1-17.817,17.974,17.688,17.688,0,0,1-3.51-.35,13.021,13.021,0,0,1-11.368,6.672,12.963,12.963,0,0,1-5.7-1.312A14.863,14.863,0,0,1,30.7-121.287a14.866,14.866,0,0,1-13.945-9.727,13.631,13.631,0,0,1-2.835.3A13.866,13.866,0,0,1,.128-144.656a13.96,13.96,0,0,1,6.9-12.073A15.955,15.955,0,0,1,5.7-163.1a16.041,16.041,0,0,1,16.052-16.03,16.032,16.032,0,0,1,12.763,6.309" transform="translate(0 179.262)" fill="#00a1e0"/>
    <path id="Path_108206" data-name="Path 108206" d="M37.131-89.46c-.052.135.019.164.035.187a4.837,4.837,0,0,0,.472.285,5.032,5.032,0,0,0,2.471.578c1.7,0,2.748-.9,2.748-2.353v-.028c0-1.342-1.188-1.829-2.3-2.182l-.145-.047c-.841-.273-1.566-.509-1.566-1.062v-.029c0-.473.424-.822,1.081-.822a4.888,4.888,0,0,1,2.154.551s.164.106.224-.053c.033-.085.316-.845.345-.928a.158.158,0,0,0-.082-.191,4.807,4.807,0,0,0-2.429-.652h-.17a2.368,2.368,0,0,0-2.635,2.28v.028c0,1.416,1.195,1.875,2.315,2.2l.18.055c.816.251,1.519.466,1.519,1.041v.028c0,.525-.457.916-1.194.916a4.009,4.009,0,0,1-2.184-.629c-.119-.069-.188-.12-.28-.175a.134.134,0,0,0-.222.077l-.334.928Z" transform="translate(-25.032 119.586)" fill="#fff"/>
    <path id="Path_108207" data-name="Path 108207" d="M113.931-89.46c-.052.135.019.164.035.187a4.834,4.834,0,0,0,.472.285,5.031,5.031,0,0,0,2.471.578c1.7,0,2.748-.9,2.748-2.353v-.028c0-1.342-1.188-1.829-2.3-2.182l-.145-.047c-.841-.273-1.566-.509-1.566-1.062v-.029c0-.473.424-.822,1.081-.822a4.888,4.888,0,0,1,2.154.551s.164.106.224-.053c.033-.085.315-.845.345-.928a.158.158,0,0,0-.082-.191,4.807,4.807,0,0,0-2.429-.652h-.17a2.368,2.368,0,0,0-2.635,2.28v.028c0,1.416,1.195,1.875,2.314,2.2l.18.055c.816.251,1.52.466,1.52,1.041v.028c0,.525-.458.916-1.2.916a4.009,4.009,0,0,1-2.184-.629c-.119-.069-.19-.118-.279-.175a.145.145,0,0,0-.224.077l-.334.928Z" transform="translate(-77.014 119.586)" fill="#fff"/>
    <path id="Path_108208" data-name="Path 108208" d="M155.322-92.241a3.489,3.489,0,0,1-.454,1.924,1.521,1.521,0,0,1-1.378.672,1.5,1.5,0,0,1-1.371-.672,3.528,3.528,0,0,1-.447-1.924,3.5,3.5,0,0,1,.447-1.917,1.509,1.509,0,0,1,1.371-.665,1.529,1.529,0,0,1,1.379.665,3.463,3.463,0,0,1,.453,1.917m1.415-1.521a3.4,3.4,0,0,0-.644-1.229,3.114,3.114,0,0,0-1.087-.826,3.575,3.575,0,0,0-1.516-.3,3.577,3.577,0,0,0-1.518.3,3.129,3.129,0,0,0-1.088.826,3.464,3.464,0,0,0-.644,1.229,5.382,5.382,0,0,0-.207,1.521,5.376,5.376,0,0,0,.207,1.521,3.426,3.426,0,0,0,.645,1.229,3.035,3.035,0,0,0,1.086.819,3.655,3.655,0,0,0,1.518.3,3.652,3.652,0,0,0,1.516-.3,3.039,3.039,0,0,0,1.087-.819,3.4,3.4,0,0,0,.644-1.229,5.343,5.343,0,0,0,.208-1.521,5.342,5.342,0,0,0-.208-1.521" transform="translate(-101.463 119.524)" fill="#fff"/>
    <path id="Path_108209" data-name="Path 108209" d="M195.323-89.846a.134.134,0,0,0-.18-.086,3.245,3.245,0,0,1-.658.188,5.122,5.122,0,0,1-.776.055,2.155,2.155,0,0,1-1.619-.606,2.7,2.7,0,0,1-.608-1.934,3,3,0,0,1,.543-1.864,1.848,1.848,0,0,1,1.571-.691,4.7,4.7,0,0,1,1.5.214s.112.048.165-.1c.123-.344.216-.59.347-.968a.127.127,0,0,0-.087-.166,5.513,5.513,0,0,0-.944-.238,7.081,7.081,0,0,0-1.062-.072,3.849,3.849,0,0,0-1.578.3,3.267,3.267,0,0,0-1.139.825,3.51,3.51,0,0,0-.689,1.229,4.89,4.89,0,0,0-.231,1.523,4.074,4.074,0,0,0,.942,2.817,3.581,3.581,0,0,0,2.794,1.051,5.76,5.76,0,0,0,2-.358.129.129,0,0,0,.058-.168l-.347-.959Z" transform="translate(-128.428 119.505)" fill="#fff"/>
    <path id="Path_108210" data-name="Path 108210" d="M210.893-93.032a2.785,2.785,0,0,1,.387-1.13,1.524,1.524,0,0,1,1.369-.695,1.487,1.487,0,0,1,1.342.695,2.366,2.366,0,0,1,.318,1.13Zm4.765-1a2.979,2.979,0,0,0-.613-1.121,2.815,2.815,0,0,0-.909-.693,3.5,3.5,0,0,0-1.373-.278,3.736,3.736,0,0,0-1.581.307,3.147,3.147,0,0,0-1.1.842,3.451,3.451,0,0,0-.649,1.243,5.37,5.37,0,0,0-.211,1.529,5.124,5.124,0,0,0,.218,1.529,3.16,3.16,0,0,0,.694,1.217,3.149,3.149,0,0,0,1.2.8,4.825,4.825,0,0,0,1.739.281,5,5,0,0,0,2.412-.479c.053-.029.1-.081.04-.23l-.313-.877a.137.137,0,0,0-.18-.082,4.623,4.623,0,0,1-1.966.353,2.271,2.271,0,0,1-1.639-.563,2.266,2.266,0,0,1-.558-1.594l4.791,0a.142.142,0,0,0,.139-.125,5.142,5.142,0,0,0-.143-2.064Z" transform="translate(-141.521 119.529)" fill="#fff"/>
    <path id="Path_108211" data-name="Path 108211" d="M92.177-93.032a2.8,2.8,0,0,1,.387-1.13,1.525,1.525,0,0,1,1.369-.695,1.49,1.49,0,0,1,1.343.695,2.376,2.376,0,0,1,.317,1.13Zm4.763-1a2.975,2.975,0,0,0-.612-1.121,2.814,2.814,0,0,0-.909-.693,3.5,3.5,0,0,0-1.373-.278,3.741,3.741,0,0,0-1.581.307,3.145,3.145,0,0,0-1.1.842,3.451,3.451,0,0,0-.649,1.243A5.42,5.42,0,0,0,90.5-92.2a5.123,5.123,0,0,0,.218,1.529,3.162,3.162,0,0,0,.695,1.217,3.148,3.148,0,0,0,1.2.8,4.824,4.824,0,0,0,1.739.281,5,5,0,0,0,2.412-.479c.053-.029.1-.081.04-.23l-.312-.877a.139.139,0,0,0-.181-.082,4.622,4.622,0,0,1-1.967.353,2.27,2.27,0,0,1-1.638-.563,2.267,2.267,0,0,1-.558-1.594l4.79,0a.142.142,0,0,0,.139-.125,5.125,5.125,0,0,0-.143-2.064Z" transform="translate(-61.169 119.529)" fill="#fff"/>
    <path id="Path_108212" data-name="Path 108212" d="M59.512-89.885a.97.97,0,0,1-.277-.284,1.158,1.158,0,0,1-.142-.623,1.048,1.048,0,0,1,.427-.928,2.147,2.147,0,0,1,1.389-.346,9.826,9.826,0,0,1,1.3.111v2.178h0a9.731,9.731,0,0,1-1.294.172,2.153,2.153,0,0,1-1.4-.28m1.906-3.366c-.194-.014-.446-.022-.748-.022a4.543,4.543,0,0,0-1.18.152,3.076,3.076,0,0,0-1,.464,2.309,2.309,0,0,0-.695.79,2.31,2.31,0,0,0-.255,1.1,2.5,2.5,0,0,0,.219,1.094,1.972,1.972,0,0,0,.625.749,2.619,2.619,0,0,0,.976.423,5.723,5.723,0,0,0,1.268.129,8.65,8.65,0,0,0,1.455-.121c.47-.08,1.047-.2,1.207-.233s.336-.086.336-.086a.15.15,0,0,0,.109-.157l0-4.381a2.682,2.682,0,0,0-.762-2.114,3.259,3.259,0,0,0-2.2-.663A7.883,7.883,0,0,0,59.487-96a4.626,4.626,0,0,0-1.478.539.15.15,0,0,0-.042.191l.339.911a.121.121,0,0,0,.157.078.617.617,0,0,0,.079-.039,4.862,4.862,0,0,1,2.087-.486,1.928,1.928,0,0,1,1.184.31c.261.2.394.5.394,1.141v.2c-.412-.059-.79-.093-.79-.093" transform="translate(-38.859 119.519)" fill="#fff"/>
    <path id="Path_108213" data-name="Path 108213" d="M179.835-95.323a.129.129,0,0,0-.072-.172,4.155,4.155,0,0,0-.8-.138,2.386,2.386,0,0,0-1.235.2,2.179,2.179,0,0,0-.81.6v-.583a.139.139,0,0,0-.138-.146H175.55a.139.139,0,0,0-.138.146v7.145a.147.147,0,0,0,.146.146h1.258a.146.146,0,0,0,.145-.146v-3.57a4.18,4.18,0,0,1,.159-1.257,1.812,1.812,0,0,1,.419-.705,1.472,1.472,0,0,1,.592-.356,2.308,2.308,0,0,1,.643-.091,2.685,2.685,0,0,1,.526.065c.092.011.144-.046.174-.13.082-.219.316-.875.36-1.005" transform="translate(-118.639 119.123)" fill="#fff"/>
    <path id="Path_108214" data-name="Path 108214" d="M135.231-106.1a4.133,4.133,0,0,0-.473-.113,3.749,3.749,0,0,0-.651-.049,2.742,2.742,0,0,0-2.028.727,3.955,3.955,0,0,0-.963,2.173l-.059.324h-1.088a.161.161,0,0,0-.16.139l-.178,1c-.013.094.028.154.155.154h1.058l-1.074,5.995a7.377,7.377,0,0,1-.287,1.181,2.414,2.414,0,0,1-.334.682.89.89,0,0,1-.438.338,1.781,1.781,0,0,1-.564.081,2.114,2.114,0,0,1-.384-.042,1.137,1.137,0,0,1-.259-.084.132.132,0,0,0-.173.077c-.039.1-.322.878-.355.974a.144.144,0,0,0,.074.192,3.9,3.9,0,0,0,.438.128,2.907,2.907,0,0,0,.7.066,3.51,3.51,0,0,0,1.176-.182,2.222,2.222,0,0,0,.885-.617,3.16,3.16,0,0,0,.621-1.072,9.073,9.073,0,0,0,.421-1.608l1.08-6.107h1.578a.161.161,0,0,0,.16-.14l.179-1c.012-.1-.028-.154-.157-.154H132.6a6.618,6.618,0,0,1,.253-1.081,1.41,1.41,0,0,1,.335-.511,1.008,1.008,0,0,1,.4-.25,1.665,1.665,0,0,1,.514-.073,1.986,1.986,0,0,1,.393.039c.148.032.206.048.245.06.157.047.178,0,.208-.074l.366-1.005a.129.129,0,0,0-.088-.167" transform="translate(-85.849 126.59)" fill="#fff"/>
    <path id="Path_108215" data-name="Path 108215" d="M83.087-85.269a.139.139,0,0,1-.138.145h-1.27a.138.138,0,0,1-.137-.145V-95.493a.138.138,0,0,1,.137-.145h1.27a.139.139,0,0,1,.138.145v10.224Z" transform="translate(-55.104 116.118)" fill="#fff"/>
  </g>
</svg>
