<svg xmlns="http://www.w3.org/2000/svg" xmlns:xlink="http://www.w3.org/1999/xlink" width="138" height="70" viewBox="0 0 138 70">
  <defs>
    <clipPath id="clip-path">
      <rect width="84" height="15" fill="none"/>
    </clipPath>
  </defs>
  <g id="glassdoor" transform="translate(-286 -897)">
    <rect id="Rectangle_20962" data-name="Rectangle 20962" width="137" height="70" transform="translate(286 897)" fill="none"/>
    <g id="Group_86569" data-name="Group 86569" transform="translate(7)">
      <g id="Group_86563" data-name="Group 86563">
        <path id="glassdoor_1_" data-name="glassdoor (1)" d="M643.231,1659.927a.441.441,0,0,0-.226-.359,3.491,3.491,0,0,0-1.589-.248,4.779,4.779,0,0,0-4.455,2.6v-1.991a.312.312,0,0,0-.312-.313h-2.938a.312.312,0,0,0-.312.313v13.421a.312.312,0,0,0,.312.312h3.078a.312.312,0,0,0,.312-.312v-6.036c0-2.7,1.875-4.037,4.315-4.037a4.991,4.991,0,0,1,1.423.22.308.308,0,0,0,.393-.3Zm-19.668,10.446a3.736,3.736,0,1,1,3.73-3.735,3.6,3.6,0,0,1-3.73,3.735Zm0-11.1a7.363,7.363,0,1,0,7.542,7.362A7.172,7.172,0,0,0,623.564,1659.277Zm-17.125,11.1a3.736,3.736,0,1,1,3.729-3.736A3.6,3.6,0,0,1,606.439,1670.374Zm0-11.1a7.363,7.363,0,1,0,7.542,7.361A7.173,7.173,0,0,0,606.439,1659.277Zm-17.1,11.131a3.765,3.765,0,1,1,3.674-3.764A3.56,3.56,0,0,1,589.338,1670.408Zm6.952-16.4h-3.078a.312.312,0,0,0-.312.312v7.329a5.589,5.589,0,0,0-4.71-2.389c-3.422,0-6.339,2.642-6.339,7.39s2.916,7.387,6.393,7.387a5.5,5.5,0,0,0,4.657-2.331v1.654a.311.311,0,0,0,.31.312h3.079a.311.311,0,0,0,.311-.312v-19.04A.312.312,0,0,0,596.289,1654Zm-16.478,15.412c0,3.2-2.327,4.58-6.056,4.58-2.577,0-4.793-.694-6.061-2.132a.32.32,0,0,1-.007-.406l1.779-2.313a.307.307,0,0,1,.467-.018,5.717,5.717,0,0,0,4.187,1.554c1.036,0,1.878-.28,1.878-1.067,0-.758-.756-.927-3.112-1.433-2.075-.421-4.656-1.376-4.656-4.438,0-2.838,2.245-4.467,5.917-4.467a7.53,7.53,0,0,1,5.379,1.88.316.316,0,0,1,.029.423l-1.688,2.2a.3.3,0,0,1-.442.049,5.557,5.557,0,0,0-3.557-1.2c-1.149,0-1.794.365-1.794.983,0,.7.758.872,3.253,1.406,2.438.534,4.486,1.46,4.486,4.41Zm-14.232.008c0,3.2-2.328,4.58-6.057,4.58-2.576,0-4.792-.694-6.06-2.133a.32.32,0,0,1-.009-.4l1.779-2.315a.308.308,0,0,1,.467-.017,5.724,5.724,0,0,0,4.187,1.554c1.037,0,1.879-.28,1.879-1.068,0-.758-.757-.926-3.112-1.432-2.076-.422-4.657-1.377-4.657-4.438,0-2.838,2.245-4.467,5.918-4.467a7.527,7.527,0,0,1,5.378,1.88.318.318,0,0,1,.03.423l-1.69,2.2a.3.3,0,0,1-.441.049,5.56,5.56,0,0,0-3.557-1.206c-1.15,0-1.8.366-1.8.984,0,.7.758.872,3.253,1.406,2.439.533,4.486,1.46,4.486,4.409Zm-18.448-1.431a2.994,2.994,0,0,1-3.224,2.893c-1.29,0-1.991-.591-1.991-1.49,0-.786.59-1.377,1.739-1.545l3.476-.421v.562Zm-2.438-8.681c-2.937,0-5.149.984-6.138,2.932a.318.318,0,0,0,.1.4l2.244,1.606a.289.289,0,0,0,.424-.085,3.676,3.676,0,0,1,3.369-1.507c1.654,0,2.438.59,2.438,1.4v.224c0,.337-.2.506-.728.563l-3.842.336c-2.579.252-4.486,1.854-4.486,4.41,0,2.585,1.962,4.382,4.738,4.382a4.951,4.951,0,0,0,4.318-2.191v1.6a.312.312,0,0,0,.312.313h3.078a.312.312,0,0,0,.312-.312v-8.369c0-3.9-2.047-5.7-6.141-5.7Zm-9.157-5v19.04a.312.312,0,0,1-.312.312h-3.106a.312.312,0,0,1-.312-.312v-19.045a.306.306,0,0,1,.305-.307h3.112A.312.312,0,0,1,535.536,1654.314Zm-14.049,16.079a3.765,3.765,0,0,1,0-7.529,3.766,3.766,0,0,1,0,7.529Zm6.951-10.787h-3.074a.316.316,0,0,0-.316.316v1.651a5.284,5.284,0,0,0-4.57-2.3c-3.477,0-6.478,2.614-6.478,7.305,0,4.662,2.86,7.218,6.59,7.218a5.319,5.319,0,0,0,4.515-2.163v.9c0,2.022-.983,3.624-4.123,3.624a5.706,5.706,0,0,1-3.958-1.512.305.305,0,0,0-.468.065l-1.394,2.341c-.18.3-.156.473-.043.573a8.648,8.648,0,0,0,6,2.016c5.888,0,7.627-3.285,7.627-6.91v-12.806a.312.312,0,0,0-.312-.313Z" transform="translate(-235 -743.875)" fill="#fff" fill-rule="evenodd"/>
        <text id="_" data-name="®" transform="translate(411 920)" fill="#fff" font-size="7" font-family="Roboto-Bold, Roboto" font-weight="700"><tspan x="0" y="0">®</tspan></text>
      </g>
      <g id="Group_86564" data-name="Group 86564" transform="translate(-878 -1)">
        <text id="_4.9" data-name="4.9" transform="translate(1157 954)" fill="#fff" font-size="16" font-family="Roboto-Bold, Roboto" font-weight="700"><tspan x="0" y="0">4.9</tspan></text>
        <line id="Line_114" data-name="Line 114" y2="19" transform="translate(1189.5 939.5)" fill="none" stroke="#fff" stroke-width="1"/>
        <g id="Group_86565" data-name="Group 86565" transform="translate(-6 -1)">
          <g id="Repeat_Grid_2" data-name="Repeat Grid 2" transform="translate(1204 942)" clip-path="url(#clip-path)">
            <g transform="translate(-1204 -943)">
              <path id="Subtraction_2" data-name="Subtraction 2" d="M6113-1193h-15v-15h15v15Zm-7.5-3.906h0l4.018,2.907-1.389-4.917,3.871-3.119-4.874-.13L6105.5-1207l-1.625,4.834-4.874.13,3.869,3.119-1.387,4.917,4.016-2.907Z" transform="translate(-4894 2151)" fill="#fff"/>
            </g>
            <g transform="translate(-1187 -943)">
              <path id="Subtraction_2-2" data-name="Subtraction 2" d="M6113-1193h-15v-15h15v15Zm-7.5-3.906h0l4.018,2.907-1.389-4.917,3.871-3.119-4.874-.13L6105.5-1207l-1.625,4.834-4.874.13,3.869,3.119-1.387,4.917,4.016-2.907Z" transform="translate(-4894 2151)" fill="#fff"/>
            </g>
            <g transform="translate(-1170 -943)">
              <path id="Subtraction_2-3" data-name="Subtraction 2" d="M6113-1193h-15v-15h15v15Zm-7.5-3.906h0l4.018,2.907-1.389-4.917,3.871-3.119-4.874-.13L6105.5-1207l-1.625,4.834-4.874.13,3.869,3.119-1.387,4.917,4.016-2.907Z" transform="translate(-4894 2151)" fill="#fff"/>
            </g>
            <g transform="translate(-1153 -943)">
              <path id="Subtraction_2-4" data-name="Subtraction 2" d="M6113-1193h-15v-15h15v15Zm-7.5-3.906h0l4.018,2.907-1.389-4.917,3.871-3.119-4.874-.13L6105.5-1207l-1.625,4.834-4.874.13,3.869,3.119-1.387,4.917,4.016-2.907Z" transform="translate(-4894 2151)" fill="#fff"/>
            </g>
            <g transform="translate(-1136 -943)">
              <path id="Subtraction_2-5" data-name="Subtraction 2" d="M6113-1193h-15v-15h15v15Zm-7.5-3.906h0l4.018,2.907-1.389-4.917,3.871-3.119-4.874-.13L6105.5-1207l-1.625,4.834-4.874.13,3.869,3.119-1.387,4.917,4.016-2.907Z" transform="translate(-4894 2151)" fill="#fff"/>
            </g>
          </g>
        </g>
      </g>
    </g>
  </g>
</svg>
