<svg xmlns="http://www.w3.org/2000/svg" xmlns:xlink="http://www.w3.org/1999/xlink" width="131" height="66.046" viewBox="0 0 131 66.046">
  <defs>
    <clipPath id="clip-path">
      <rect width="69.236" height="13" fill="none"/>
    </clipPath>
  </defs>
  <g id="google" transform="translate(-1509 -996)">
    <g id="Group_86571" data-name="Group 86571" transform="translate(-3 97.046)">
      <g id="Google_2015_logo_1_" data-name="Google_2015_logo (1)" transform="translate(1511.872 898.484)">
        <path id="Path_114365" data-name="Path 114365" d="M92.831,35.757A10.791,10.791,0,1,1,82.041,25,10.624,10.624,0,0,1,92.831,35.757Zm-4.724,0a6.083,6.083,0,1,0-12.134,0,6.083,6.083,0,1,0,12.134,0Z" transform="translate(-36.51 -12.634)" fill="#fff"/>
        <path id="Path_114366" data-name="Path 114366" d="M140.831,35.757A10.791,10.791,0,1,1,130.041,25,10.624,10.624,0,0,1,140.831,35.757Zm-4.724,0a6.083,6.083,0,1,0-12.134,0,6.083,6.083,0,1,0,12.134,0Z" transform="translate(-61.232 -12.634)" fill="#fff"/>
        <path id="Path_114367" data-name="Path 114367" d="M187.851,25.65V44.961c0,7.944-4.685,11.188-10.223,11.188a10.243,10.243,0,0,1-9.535-6.339l4.113-1.712a5.942,5.942,0,0,0,5.417,3.817c3.545,0,5.742-2.187,5.742-6.3V44.064H183.2a7.324,7.324,0,0,1-5.664,2.444,10.764,10.764,0,0,1,0-21.509,7.454,7.454,0,0,1,5.664,2.405h.165V25.655h4.486ZM183.7,35.8c0-3.788-2.527-6.557-5.742-6.557-3.259,0-5.989,2.769-5.989,6.557a6.174,6.174,0,0,0,5.989,6.479C181.173,42.275,183.7,39.544,183.7,35.8Z" transform="translate(-85.943 -12.634)" fill="#fff"/>
        <path id="Path_114368" data-name="Path 114368" d="M220.107,3V34.523H215.5V3Z" transform="translate(-110.803 -1.303)" fill="#fff"/>
        <path id="Path_114369" data-name="Path 114369" d="M245.06,39.292l3.666,2.444a10.707,10.707,0,0,1-8.962,4.767A10.524,10.524,0,0,1,229.09,35.747c0-6.4,4.6-10.757,10.146-10.757,5.582,0,8.312,4.442,9.2,6.843l.49,1.222-14.379,5.955a5.474,5.474,0,0,0,5.213,3.259A6.139,6.139,0,0,0,245.06,39.292Zm-11.285-3.87,9.612-3.991a4.165,4.165,0,0,0-3.991-2.279A5.9,5.9,0,0,0,233.775,35.422Z" transform="translate(-117.802 -12.628)" fill="#fff"/>
        <path id="Path_114370" data-name="Path 114370" d="M17.3,20.325V15.761H32.679a15.121,15.121,0,0,1,.228,2.755c0,3.424-.936,7.658-3.953,10.674A15.273,15.273,0,0,1,17.3,33.875,16.937,16.937,0,0,1,.36,17.172,16.937,16.937,0,0,1,17.3.47a15.915,15.915,0,0,1,11.445,4.6l-3.22,3.22A11.633,11.633,0,0,0,17.3,5.034,11.981,11.981,0,0,0,5.321,17.172,11.981,11.981,0,0,0,17.3,29.311a11.174,11.174,0,0,0,8.434-3.341,9.459,9.459,0,0,0,2.473-5.65Z" transform="translate(0 0)" fill="#fff"/>
      </g>
      <text id="Reviews" transform="translate(1512 943)" fill="#fff" font-size="12" font-family="Roboto-Regular, Roboto"><tspan x="0" y="0">Reviews</tspan></text>
      <g id="Group_86571-2" data-name="Group 86571" transform="translate(355 7)">
        <g id="Repeat_Grid_1" data-name="Repeat Grid 1" transform="translate(1182.5 942)" clip-path="url(#clip-path)">
          <g transform="translate(-1203.5 -943)">
            <path id="Polygon_4" data-name="Polygon 4" d="M6.5,0,8.125,4.835,13,4.966,9.129,8.085,10.517,13,6.5,10.093,2.483,13,3.871,8.085,0,4.966l4.875-.131Z" transform="translate(1203.5 943)" fill="#fff"/>
          </g>
          <g transform="translate(-1189.5 -943)">
            <path id="Polygon_4-2" data-name="Polygon 4" d="M6.5,0,8.125,4.835,13,4.966,9.129,8.085,10.517,13,6.5,10.093,2.483,13,3.871,8.085,0,4.966l4.875-.131Z" transform="translate(1203.5 943)" fill="#fff"/>
          </g>
          <g transform="translate(-1175.5 -943)">
            <path id="Polygon_4-3" data-name="Polygon 4" d="M6.5,0,8.125,4.835,13,4.966,9.129,8.085,10.517,13,6.5,10.093,2.483,13,3.871,8.085,0,4.966l4.875-.131Z" transform="translate(1203.5 943)" fill="#fff"/>
          </g>
          <g transform="translate(-1161.5 -943)">
            <path id="Polygon_4-4" data-name="Polygon 4" d="M6.5,0,8.125,4.835,13,4.966,9.129,8.085,10.517,13,6.5,10.093,2.483,13,3.871,8.085,0,4.966l4.875-.131Z" transform="translate(1203.5 943)" fill="#fff"/>
          </g>
          <g transform="translate(-1147.5 -943)">
            <path id="Polygon_4-5" data-name="Polygon 4" d="M6.5,0,8.125,4.835,13,4.966,9.129,8.085,10.517,13,6.5,10.093,2.483,13,3.871,8.085,0,4.966l4.875-.131Z" transform="translate(1203.5 943)" fill="#fff"/>
          </g>
        </g>
        <text id="_5.0" data-name="5.0" transform="translate(1157 954)" fill="#fff" font-size="16" font-family="Roboto-Bold, Roboto" font-weight="700"><tspan x="0" y="0">5.0</tspan></text>
      </g>
    </g>
  </g>
</svg>
