<svg xmlns="http://www.w3.org/2000/svg" width="229" height="166" viewBox="0 0 229 166">
  <g id="act_on" data-name="act on" transform="translate(-588 -6317)">
    <rect id="Rectangle_4318" data-name="Rectangle 4318" width="229" height="166" rx="6" transform="translate(588 6317)" fill="none"/>
    <g id="act-on-software-seeklogo.com" transform="translate(606.267 6369.611)">
      <path id="Path_108198" data-name="Path 108198" d="M122,266.074a1.544,1.544,0,0,0-1.443-1.539h-4.3a.828.828,0,0,1-.834-.834v-6.318a.856.856,0,0,1,.834-.866h4.266A1.571,1.571,0,0,0,122,254.977V228.934a2.539,2.539,0,0,0-2.534-2.534H23.734a2.519,2.519,0,0,0-2.534,2.534v55.678a2.519,2.519,0,0,0,2.534,2.534H119.47A2.519,2.519,0,0,0,122,284.611V266.074h0" transform="translate(-21.2 -226.368)" fill="#003963"/>
      <path id="Path_108199" data-name="Path 108199" d="M429.148,226.3H344.734a2.519,2.519,0,0,0-2.534,2.534v26.075a1.6,1.6,0,0,0,1.475,1.539h4.49a.828.828,0,0,1,.834.834V263.6a.828.828,0,0,1-.834.834h-4.49a1.562,1.562,0,0,0-1.443,1.507v18.57a2.519,2.519,0,0,0,2.534,2.534H429.18a2.539,2.539,0,0,0,2.534-2.534V228.834a2.588,2.588,0,0,0-2.566-2.534" transform="translate(-239.247 -226.3)" fill="#9bcced"/>
      <path id="Path_108200" data-name="Path 108200" d="M67.191,296.67a6.06,6.06,0,0,0,6.479,6.35,6.06,6.06,0,0,0,6.479-6.35,6.479,6.479,0,0,0-12.957,0m22.675,14.144H79.8v-3.143h-.1c-1.764,2.822-5.26,4.105-8.563,4.105-8.4,0-14.336-7.024-14.336-15.17,0-8.114,5.805-15.106,14.208-15.106a11.576,11.576,0,0,1,8.788,3.688V282.43H89.867v28.384" transform="translate(-45.382 -263.796)" fill="#fff"/>
      <path id="Path_108201" data-name="Path 108201" d="M192.615,291.835a9.056,9.056,0,0,0-5.2-1.988,6.944,6.944,0,1,0,.16,13.887,7.7,7.7,0,0,0,5.035-1.924v8.531a16.023,16.023,0,0,1-7.088,1.6c-8.4,0-15.427-6.254-15.427-14.817,0-9.141,6.96-15.427,15.876-15.427a13.6,13.6,0,0,1,6.639,1.668v8.467" transform="translate(-122.344 -263.932)" fill="#fff"/>
      <path id="Path_108202" data-name="Path 108202" d="M261.51,294.783H251.471V274.706H248.2v-8.275h3.271V257.9H261.51v8.531h5.709v8.275H261.51Z" transform="translate(-175.396 -247.765)" fill="#fff"/>
      <path id="Path_108203" data-name="Path 108203" d="M399.16,282.649v9.814a6.412,6.412,0,0,1,2.021,4.747,6.415,6.415,0,0,1-12.829,0,6.4,6.4,0,0,1,1.668-4.458V282.713c-6.9,1.572-12.22,6.639-12.22,14.529,0,9.622,7.954,15.01,16.966,15.01,9.077,0,16.966-5.42,16.966-15.01,0-8.018-5.484-13.086-12.572-14.593m34.831-.449c-3.913,0-6.7,1.155-9.012,4.554h-.1V283.13H414.876v28.192h10.007V296.7c0-3.528,1.155-6.543,5.228-6.543,4.939,0,4.522,4.715,4.522,7.409V311.29h9.942V293.874c0-6.9-3.015-11.674-10.584-11.674" transform="translate(-263.43 -264.272)" fill="#fff"/>
      <path id="Path_108204" data-name="Path 108204" d="M426.65,281.383a.68.68,0,0,1-.641.706h-5.067a.68.68,0,0,1-.641-.706V261.306a.68.68,0,0,1,.641-.706h5.035a.68.68,0,0,1,.641.706v20.077" transform="translate(-292.299 -249.599)" fill="#fff"/>
    </g>
  </g>
</svg>
