<svg xmlns="http://www.w3.org/2000/svg" width="100" height="80" viewBox="0 0 100 80">
  <g id="Group_86585" data-name="Group 86585" transform="translate(-277 -1773)">
    <rect id="Rectangle_31" data-name="Rectangle 31" width="100" height="80" rx="6" transform="translate(277 1773)" fill="none"/>
    <g id="Group_37336" data-name="Group 37336" transform="translate(287.022 1779.393)">
      <path id="Path_38754" data-name="Path 38754" d="M52.068.148C63.487-1.2,60.536,6.86,66.047,16.054s-7.643,10.437-7.2,17.854S57.2,49.453,45.617,50.223,19.094,62.64,9.016,56.811-3.923,46.094,6.84,31.929,40.649,1.5,52.068.148Z" transform="translate(12.814 3.125) rotate(5)" fill="#dcedf8"/>
      <path id="Icon_awesome-circle" data-name="Icon awesome-circle" d="M2.125.563A1.562,1.562,0,1,0,3.687,2.125,1.562,1.562,0,0,0,2.125.563Z" transform="translate(0.383 26.735)" fill="none" stroke="#007ebf" stroke-width="1"/>
      <path id="Icon_awesome-circle-2" data-name="Icon awesome-circle" d="M2.125.563A1.562,1.562,0,1,0,3.687,2.125,1.562,1.562,0,0,0,2.125.563Z" transform="translate(61.945 61.302)" fill="none" stroke="#007ebf" stroke-width="1"/>
      <path id="Icon_awesome-circle-3" data-name="Icon awesome-circle" d="M2.125.563A1.562,1.562,0,1,0,3.687,2.125,1.562,1.562,0,0,0,2.125.563Z" transform="translate(15.201 -0.563)" fill="none" stroke="#007ebf" stroke-width="1"/>
      <path id="Icon_awesome-plus" data-name="Icon awesome-plus" d="M3.78,3.849H2.471V2.541a.291.291,0,0,0-.291-.291H1.89a.291.291,0,0,0-.291.291V3.849H.291A.291.291,0,0,0,0,4.14v.291a.291.291,0,0,0,.291.291H1.6V6.03a.291.291,0,0,0,.291.291h.291a.291.291,0,0,0,.291-.291V4.721H3.78a.291.291,0,0,0,.291-.291V4.14A.291.291,0,0,0,3.78,3.849Z" transform="translate(0 9.142)" fill="#007ebf"/>
      <path id="Icon_awesome-plus-2" data-name="Icon awesome-plus" d="M3.78,1.6H2.471V.291A.291.291,0,0,0,2.181,0H1.89A.291.291,0,0,0,1.6.291V1.6H.291A.291.291,0,0,0,0,1.89v.291a.291.291,0,0,0,.291.291H1.6V3.78a.291.291,0,0,0,.291.291h.291a.291.291,0,0,0,.291-.291V2.471H3.78a.291.291,0,0,0,.291-.291V1.89A.291.291,0,0,0,3.78,1.6Z" transform="translate(9.722 24.91) rotate(-14)" fill="#007ebf"/>
      <path id="Icon_awesome-plus-3" data-name="Icon awesome-plus" d="M3.78,1.6H2.471V.291A.291.291,0,0,0,2.181,0H1.89A.291.291,0,0,0,1.6.291V1.6H.291A.291.291,0,0,0,0,1.89v.291a.291.291,0,0,0,.291.291H1.6V3.78a.291.291,0,0,0,.291.291h.291a.291.291,0,0,0,.291-.291V2.471H3.78a.291.291,0,0,0,.291-.291V1.89A.291.291,0,0,0,3.78,1.6Z" transform="translate(77.136 33.551) rotate(47)" fill="#007ebf"/>
      <g id="consulting" transform="translate(15.764 4.106)">
        <path id="Path_38779" data-name="Path 38779" d="M35.148,7.574H11.917a4.342,4.342,0,0,0-4.342,4.342v11.29a4.342,4.342,0,0,0,4.342,4.342H14.3l5.428,5.428V27.549H35.148a4.342,4.342,0,0,0,4.342-4.342V11.917A4.342,4.342,0,0,0,35.148,7.574Zm0,0" transform="translate(-6.76 -6.76)" fill="#8db0ff"/>
        <path id="Path_38780" data-name="Path 38780" d="M35.148,7.574H11.917a4.342,4.342,0,0,0-4.342,4.342v11.29a4.342,4.342,0,0,0,4.342,4.342H14.3l5.428,5.428V27.549H35.148a4.342,4.342,0,0,0,4.342-4.342V11.917A4.342,4.342,0,0,0,35.148,7.574Zm0,0" transform="translate(-6.76 -6.76)" fill="#78a8c1"/>
        <path id="Path_38781" data-name="Path 38781" d="M11.917,137.139A4.342,4.342,0,0,1,7.574,132.8v2.171a4.342,4.342,0,0,0,4.342,4.342H14.3l5.428,5.428v-2.171l-4.792-4.792a2.173,2.173,0,0,0-1.535-.636Zm0,0" transform="translate(-6.76 -118.521)" fill="#587f93"/>
        <path id="Path_38782" data-name="Path 38782" d="M136.095,7.574h-2.714A4.339,4.339,0,0,1,137.052,9.6a1.087,1.087,0,0,1-.917,1.669h-1.777a6.513,6.513,0,0,0-6.514,6.513v6.514a1.085,1.085,0,0,1-1.085,1.085h-3.908a2.171,2.171,0,0,0-2.171,2.171h15.415a4.342,4.342,0,0,0,4.342-4.342V11.917A4.342,4.342,0,0,0,136.095,7.574Zm0,0" transform="translate(-107.707 -6.76)" fill="#587f93"/>
        <path id="Path_38783" data-name="Path 38783" d="M211.87,62.105H235.1a4.342,4.342,0,0,1,4.342,4.342v11.29A4.342,4.342,0,0,1,235.1,82.08H223.92v5.428l-5.428-5.428H211.87a4.342,4.342,0,0,1-4.342-4.342V66.448A4.342,4.342,0,0,1,211.87,62.105Zm0,0" transform="translate(-185.218 -55.429)" fill="#afd8ed"/>
        <path id="Path_38784" data-name="Path 38784" d="M211.87,189.651a4.342,4.342,0,0,1-4.342-4.342V187.7a4.342,4.342,0,0,0,4.342,4.342h6.622l5.428,5.428v-2.388l-4.792-4.792a2.17,2.17,0,0,0-1.535-.636Zm0,0" transform="translate(-185.218 -165.388)" fill="#789fb4"/>
        <path id="Path_38785" data-name="Path 38785" d="M371.2,62.105h-2.714a4.342,4.342,0,0,1,4.342,4.342V77.521a2.171,2.171,0,0,1-2.171,2.171h-8.467a2.171,2.171,0,0,0-2.171,2.171v.217H371.2a4.342,4.342,0,0,0,4.342-4.342V66.448A4.342,4.342,0,0,0,371.2,62.105Zm0,0" transform="translate(-321.315 -55.429)" fill="#789fb4"/>
        <path id="Path_38786" data-name="Path 38786" d="M50.115,255.025l-2.222-.771a5.365,5.365,0,0,0,2.044-4.213v-1.628a5.374,5.374,0,1,0-10.747,0v1.628a5.365,5.365,0,0,0,2.044,4.213l-2.222.771a7.318,7.318,0,0,0-3.481,2.561h-6v-2.369A7.333,7.333,0,0,0,24.6,248.3l-2.222-.771a5.366,5.366,0,0,0,2.044-4.213v-1.628a5.374,5.374,0,0,0-10.747,0v1.628a5.366,5.366,0,0,0,2.044,4.213L13.5,248.3a7.333,7.333,0,0,0-4.924,6.922v2.369H.814A.814.814,0,0,0,0,258.4v6.73a.814.814,0,0,0,.814.814h33.87a.744.744,0,0,1,.217,0H54.225a.814.814,0,0,0,.814-.814v-3.183A7.333,7.333,0,0,0,50.115,255.025Zm-9.3-6.613a3.745,3.745,0,0,1,7.49,0v1.628a3.745,3.745,0,1,1-7.49,0Zm-25.511-6.73a3.745,3.745,0,0,1,7.49,0v1.628a3.745,3.745,0,1,1-7.49,0Zm5.453,7,.791.275-2.5,4.336-2.5-4.336.791-.275ZM10.2,255.217a5.7,5.7,0,0,1,3.83-5.384l.952-.33,3.36,5.83a.814.814,0,0,0,1.411,0l3.36-5.83.952.33a5.7,5.7,0,0,1,3.83,5.384v2.369H10.2Zm-8.576,4H34.618a7.3,7.3,0,0,0-.53,2.733v2.369H1.628Zm51.782,5.1H35.716v-2.369a5.7,5.7,0,0,1,3.83-5.384l3.309-1.149h3.416l3.309,1.149a5.7,5.7,0,0,1,3.83,5.384Zm0,0" transform="translate(0 -210.906)" fill="#1e1e20"/>
        <path id="Path_38787" data-name="Path 38787" d="M49.883,5.862H41.612a.814.814,0,1,0,0,1.628h8.271a3.532,3.532,0,0,1,3.528,3.529v11.29a3.532,3.532,0,0,1-3.528,3.528H38.7a.814.814,0,0,0-.814.814v3.463l-4.038-4.038a.814.814,0,0,0-.576-.239H26.651a3.532,3.532,0,0,1-3.529-3.528V11.019A3.532,3.532,0,0,1,26.651,7.49H37.805a.814.814,0,1,0,0-1.628H33.545V5.157A5.163,5.163,0,0,0,28.388,0H5.157A5.163,5.163,0,0,0,0,5.157v1.8a.814.814,0,0,0,1.628,0v-1.8A3.532,3.532,0,0,1,5.157,1.628H28.388a3.532,3.532,0,0,1,3.528,3.528v.705H26.651a5.163,5.163,0,0,0-5.157,5.157v8.956H12.973a.814.814,0,0,0-.814.814v3.463L8.121,20.213a.814.814,0,0,0-.576-.239H5.157a3.532,3.532,0,0,1-3.528-3.528v-5.7a.814.814,0,1,0-1.628,0v5.7A5.162,5.162,0,0,0,5.157,21.6H7.207l5.19,5.19a.814.814,0,0,0,1.39-.576V21.6h7.708v.706a5.162,5.162,0,0,0,5.157,5.156h6.285l5.189,5.19a.814.814,0,0,0,1.39-.576V27.465H49.883a5.162,5.162,0,0,0,5.157-5.156V11.019A5.163,5.163,0,0,0,49.883,5.862Zm0,0" transform="translate(0)" fill="#1e1e20"/>
      </g>
    </g>
  </g>
</svg>
