<svg xmlns="http://www.w3.org/2000/svg" width="100" height="80" viewBox="0 0 100 80">
  <g id="Group_86586" data-name="Group 86586" transform="translate(-277 -1793)">
    <rect id="Rectangle_33" data-name="Rectangle 33" width="100" height="80" rx="6" transform="translate(277 1793)" fill="none"/>
    <g id="Group_37339" data-name="Group 37339" transform="translate(289.044 1796.721)">
      <path id="Path_38810" data-name="Path 38810" d="M14.322.149c13.921-1.534,20.667,9.148,34.123,15s19.275,1.264,19.7,8.4S65.4,40.745,56.569,45.342s-10.237,1.922-23.75-3.4S8.8,60.269,2.791,36.429.4,1.683,14.322.149Z" transform="translate(75.815 63.479) rotate(177)" fill="#dcedf8"/>
      <path id="Icon_awesome-circle" data-name="Icon awesome-circle" d="M2.125.563A1.562,1.562,0,1,0,3.687,2.125,1.562,1.562,0,0,0,2.125.563Z" transform="translate(12.945 2.654)" fill="none" stroke="#007ebf" stroke-width="1"/>
      <path id="Icon_awesome-circle-2" data-name="Icon awesome-circle" d="M2.125.563A1.562,1.562,0,1,0,3.687,2.125,1.562,1.562,0,0,0,2.125.563Z" transform="translate(57.945 65.654)" fill="none" stroke="#007ebf" stroke-width="1"/>
      <path id="Icon_awesome-circle-3" data-name="Icon awesome-circle" d="M2.125.563A1.562,1.562,0,1,0,3.687,2.125,1.562,1.562,0,0,0,2.125.563Z" transform="translate(5.945 17.654)" fill="none" stroke="#007ebf" stroke-width="1"/>
      <path id="Icon_awesome-plus" data-name="Icon awesome-plus" d="M3.78,3.849H2.471V2.541a.291.291,0,0,0-.291-.291H1.89a.291.291,0,0,0-.291.291V3.849H.291A.291.291,0,0,0,0,4.14v.291a.291.291,0,0,0,.291.291H1.6V6.03a.291.291,0,0,0,.291.291h.291a.291.291,0,0,0,.291-.291V4.721H3.78a.291.291,0,0,0,.291-.291V4.14A.291.291,0,0,0,3.78,3.849Z" transform="translate(0 10.494)" fill="#007ebf"/>
      <path id="Icon_awesome-plus-2" data-name="Icon awesome-plus" d="M3.78,1.6H2.471V.291A.291.291,0,0,0,2.181,0H1.89A.291.291,0,0,0,1.6.291V1.6H.291A.291.291,0,0,0,0,1.89v.291a.291.291,0,0,0,.291.291H1.6V3.78a.291.291,0,0,0,.291.291h.291a.291.291,0,0,0,.291-.291V2.471H3.78a.291.291,0,0,0,.291-.291V1.89A.291.291,0,0,0,3.78,1.6Z" transform="translate(7.567 32.173) rotate(-14)" fill="#007ebf"/>
      <path id="Icon_awesome-plus-3" data-name="Icon awesome-plus" d="M3.78,1.6H2.471V.291A.291.291,0,0,0,2.181,0H1.89A.291.291,0,0,0,1.6.291V1.6H.291A.291.291,0,0,0,0,1.89v.291a.291.291,0,0,0,.291.291H1.6V3.78a.291.291,0,0,0,.291.291h.291a.291.291,0,0,0,.291-.291V2.471H3.78a.291.291,0,0,0,.291-.291V1.89A.291.291,0,0,0,3.78,1.6Z" transform="translate(73.136 37.902) rotate(47)" fill="#007ebf"/>
      <g id="design-thinking_2_" data-name="design-thinking (2)" transform="translate(10.008 6.341)">
        <g id="Group_37315" data-name="Group 37315" transform="translate(35.148 6.94)">
          <path id="Path_38826" data-name="Path 38826" d="M45.331,8.293l-7.4,7.4.029.029a16.2,16.2,0,0,1,9.473,9.473l.012.012,7.4-7.4Z" transform="translate(-37.935 -8.293)" fill="#75a3ba"/>
        </g>
        <g id="Group_37316" data-name="Group 37316" transform="translate(5.71 34.956)">
          <path id="Path_38827" data-name="Path 38827" d="M16.516,56.068l7.793-7.793c-.016-.034-.036-.067-.053-.1l-4.3-5.322a19.5,19.5,0,0,1-4.124-5.1l-.012-.015L7,46.552Z" transform="translate(-7 -37.733)" fill="#75a3ba"/>
        </g>
        <g id="Group_37319" data-name="Group 37319" transform="translate(34.771 28.548)">
          <g id="Group_37317" data-name="Group 37317" transform="translate(0.389)">
            <path id="Path_38828" data-name="Path 38828" d="M59.832,47.177h1.956v-5.71H59.832a1.865,1.865,0,0,1-1.31-3.164l1.385-1.386-4.039-4.039-1.387,1.386a1.812,1.812,0,0,1-1.941.417l-.1-.044a1.814,1.814,0,0,1-1.124-1.682V31h-2.9c.018.317.048.63.048.952a11.6,11.6,0,0,1-2.281,7.189l.079-.087a5.7,5.7,0,1,1-3.25,3.568c-1.97,1.921-3.934,3.847-4.852,6.82l-.04-.019a1.886,1.886,0,0,1-.173,3.227l3.114,3.115,1.387-1.386a1.8,1.8,0,0,1,1.941-.417l.1.042A1.822,1.822,0,0,1,45.61,55.69v1.956h5.71V55.69a1.865,1.865,0,0,1,3.163-1.31l1.386,1.386,4.039-4.039-1.385-1.386a1.84,1.84,0,0,1-.374-2.037,1.816,1.816,0,0,1,1.683-1.126Z" transform="translate(-37.948 -31)" fill="#75a3ba"/>
          </g>
          <g id="Group_37318" data-name="Group 37318" transform="translate(0 18.16)">
            <path id="Path_38829" data-name="Path 38829" d="M38.1,50.347a1.921,1.921,0,0,0-.563-.264Z" transform="translate(-37.539 -50.083)" fill="#75a3ba"/>
          </g>
        </g>
        <g id="Group_37320" data-name="Group 37320">
          <path id="Path_38830" data-name="Path 38830" d="M48.855,47.71A2.855,2.855,0,1,0,46,44.855,2.858,2.858,0,0,0,48.855,47.71Zm0-3.806a.952.952,0,1,1-.952.952A.953.953,0,0,1,48.855,43.9Z" transform="translate(-3.177 -2.984)" fill="#1e1e20"/>
          <path id="Path_38831" data-name="Path 38831" d="M60,8.68A7.68,7.68,0,0,0,46.889,3.25l-11,11a16.9,16.9,0,0,0-4.489-.838,7.573,7.573,0,0,0-8.7-3.55A9.5,9.5,0,0,0,5.059,16.471,5.709,5.709,0,0,0,6.71,27.645h6.9a17.255,17.255,0,0,0-.242,2.855,13.066,13.066,0,0,0,1.013,5.255l-8.489,8.49L1.17,56.527a2.533,2.533,0,0,0-.17.916A2.557,2.557,0,0,0,4.474,59.83l12.282-4.724L22.963,48.9a2.781,2.781,0,0,0,.666,2.538,2.83,2.83,0,0,0,1.389,4.653,5.8,5.8,0,0,0,10.963,0,2.83,2.83,0,0,0,1.389-4.653,2.8,2.8,0,0,0,.1-3.682,12.272,12.272,0,0,1,2.6-4.056,6.659,6.659,0,1,0,6.6-7.488c-.093,0-.184.01-.276.013A12.879,12.879,0,0,0,47.629,30.5a16.86,16.86,0,0,0-.891-5.376L57.75,14.112A7.635,7.635,0,0,0,60,8.68ZM2.9,21.935a3.806,3.806,0,0,1,7.613,0h1.9a5.712,5.712,0,0,0-5.466-5.7,7.605,7.605,0,0,1,14-5.626,7.619,7.619,0,0,0-3.729,5.733,3.806,3.806,0,0,0-2.9,3.687h1.9a1.9,1.9,0,1,1,3.806,0h1.9a3.8,3.8,0,0,0-2.793-3.652,5.7,5.7,0,1,1,11.148,2.266,4.748,4.748,0,0,0-2.645,4.241h1.9A2.855,2.855,0,1,1,32.4,25.742H6.71A3.81,3.81,0,0,1,2.9,21.935Zm22.839,5.71V30.5A2.858,2.858,0,0,0,28.6,33.355H36.21a.952.952,0,0,1,0,1.9H26.694a2.855,2.855,0,1,0,0,5.71h1.9a.953.953,0,0,1,.952.952v4.758H25.742a2.814,2.814,0,0,0-.563.057,18.611,18.611,0,0,0-4.771-6.277c-2.64-2.574-5.133-5.006-5.133-9.958a15.34,15.34,0,0,1,.293-2.855ZM36.21,49.532a.953.953,0,0,1-.952.952H25.742a.952.952,0,1,1,0-1.9h9.516A.953.953,0,0,1,36.21,49.532ZM3.792,58.053a.655.655,0,0,1-.846-.844l.954-2.48L6.27,57.1Zm11.9-4.578L8.214,56.352,4.648,52.786,7.525,45.3l7.791-7.791A21.335,21.335,0,0,0,18.45,41.2l-7.655,7.655,1.346,1.346,7.668-7.668A17.274,17.274,0,0,1,22.867,46.3ZM30.5,58.1a3.91,3.91,0,0,1-3.353-1.9h6.707A3.91,3.91,0,0,1,30.5,58.1Zm4.758-3.806H25.742a.952.952,0,1,1,0-1.9h9.516a.952.952,0,0,1,0,1.9Zm.563-7.556a2.814,2.814,0,0,0-.563-.057H31.452V41.919A2.858,2.858,0,0,0,28.6,39.065h-1.9a.952.952,0,1,1,0-1.9H36.21a2.855,2.855,0,1,0,0-5.71H28.6a.953.953,0,0,1-.952-.952V27.645H32.4a4.758,4.758,0,0,0,0-9.516c-.027,0-.051.008-.078.008a7.493,7.493,0,0,0,.078-.959,7.623,7.623,0,0,0-.225-1.8A15.307,15.307,0,0,1,45.726,30.5c0,4.951-2.493,7.384-5.133,9.958A18.611,18.611,0,0,0,35.821,46.735Zm10.856-8.622a4.8,4.8,0,1,1-4.591,3.546,28.4,28.4,0,0,0,2.976-3.246,4.7,4.7,0,0,1,1.615-.3Zm-3.448-19,5.745-5.746-1.346-1.346-5.743,5.743a17.25,17.25,0,0,0-4.093-2.732L45.726,7.1,53.9,15.274l-7.937,7.937A17.27,17.27,0,0,0,43.23,19.117Zm12.012-5.188L47.071,5.758,48.234,4.6A5.777,5.777,0,0,1,56.4,12.766Z" transform="translate(-1 -1)" fill="#1e1e20"/>
        </g>
      </g>
    </g>
  </g>
</svg>
