<svg xmlns="http://www.w3.org/2000/svg" width="100" height="80" viewBox="0 0 100 80">
  <g id="Group_86587" data-name="Group 86587" transform="translate(-973 -1653)">
    <rect id="Rectangle_3268" data-name="Rectangle 3268" width="100" height="80" rx="6" transform="translate(973 1653)" fill="none"/>
    <g id="Group_37335" data-name="Group 37335" transform="translate(983.89 1650.103)">
      <path id="Path_38733" data-name="Path 38733" d="M14.322.149c13.921-1.534,20.667,9.148,34.123,15s19.275,1.264,19.7,8.4S65.4,40.745,56.569,45.342s-10.237,1.922-23.75-3.4S8.8,60.269,2.791,36.429.4,1.683,14.322.149Z" transform="translate(10.081 13.088) rotate(8)" fill="#dcedf8"/>
      <path id="Icon_awesome-circle" data-name="Icon awesome-circle" d="M2.125.563A1.562,1.562,0,1,0,3.687,2.125,1.562,1.562,0,0,0,2.125.563Z" transform="translate(11.939 7.216)" fill="none" stroke="#007ebf" stroke-width="1"/>
      <path id="Icon_awesome-circle-2" data-name="Icon awesome-circle" d="M2.125.563A1.562,1.562,0,1,0,3.687,2.125,1.562,1.562,0,0,0,2.125.563Z" transform="translate(57.945 65.654)" fill="none" stroke="#007ebf" stroke-width="1"/>
      <path id="Icon_awesome-circle-3" data-name="Icon awesome-circle" d="M2.125.563A1.562,1.562,0,1,0,3.687,2.125,1.562,1.562,0,0,0,2.125.563Z" transform="translate(5.945 17.654)" fill="none" stroke="#007ebf" stroke-width="1"/>
      <path id="Icon_awesome-plus" data-name="Icon awesome-plus" d="M3.78,3.849H2.471V2.541a.291.291,0,0,0-.291-.291H1.89a.291.291,0,0,0-.291.291V3.849H.291A.291.291,0,0,0,0,4.14v.291a.291.291,0,0,0,.291.291H1.6V6.03a.291.291,0,0,0,.291.291h.291a.291.291,0,0,0,.291-.291V4.721H3.78a.291.291,0,0,0,.291-.291V4.14A.291.291,0,0,0,3.78,3.849Z" transform="translate(0 10.494)" fill="#007ebf"/>
      <path id="Icon_awesome-plus-2" data-name="Icon awesome-plus" d="M3.78,1.6H2.471V.291A.291.291,0,0,0,2.181,0H1.89A.291.291,0,0,0,1.6.291V1.6H.291A.291.291,0,0,0,0,1.89v.291a.291.291,0,0,0,.291.291H1.6V3.78a.291.291,0,0,0,.291.291h.291a.291.291,0,0,0,.291-.291V2.471H3.78a.291.291,0,0,0,.291-.291V1.89A.291.291,0,0,0,3.78,1.6Z" transform="translate(7.567 32.173) rotate(-14)" fill="#007ebf"/>
      <path id="Icon_awesome-plus-3" data-name="Icon awesome-plus" d="M3.78,1.6H2.471V.291A.291.291,0,0,0,2.181,0H1.89A.291.291,0,0,0,1.6.291V1.6H.291A.291.291,0,0,0,0,1.89v.291a.291.291,0,0,0,.291.291H1.6V3.78a.291.291,0,0,0,.291.291h.291a.291.291,0,0,0,.291-.291V2.471H3.78a.291.291,0,0,0,.291-.291V1.89A.291.291,0,0,0,3.78,1.6Z" transform="translate(73.136 37.902) rotate(47)" fill="#007ebf"/>
      <g id="selective" transform="translate(18.363 9.341)">
        <path id="Path_38767" data-name="Path 38767" d="M3.719,0A3.719,3.719,0,1,1,0,3.719,3.719,3.719,0,0,1,3.719,0Z" transform="translate(22.107 1.094)" fill="#bae3f8"/>
        <path id="Path_38756" data-name="Path 38756" d="M284.164,126.141a5.141,5.141,0,0,0-10.281,0Z" transform="translate(-250.292 -107.766)" fill="#88b6ce"/>
        <circle id="Ellipse_257" data-name="Ellipse 257" cx="3.719" cy="3.719" r="3.719" transform="translate(8.55 10.938)" fill="#bfd5e0"/>
        <path id="Path_38757" data-name="Path 38757" d="M115.652,168H77.677a1.094,1.094,0,0,0-.908,1.7l14.864,22.1v12.724l10.063-4.382v-8.342l14.864-22.1A1.094,1.094,0,0,0,115.652,168Z" transform="translate(-74.571 -149.625)" fill="none"/>
        <path id="Path_38758" data-name="Path 38758" d="M115.652,168H77.677a1.094,1.094,0,0,0-.908,1.7l2.384,3.546h35.021l2.385-3.546A1.094,1.094,0,0,0,115.652,168Z" transform="translate(-74.571 -149.625)" fill="none"/>
        <path id="Path_38759" data-name="Path 38759" d="M108.686,98.6a2.183,2.183,0,0,0-1.931-1.159h-6.214a6.233,6.233,0,0,0-12.273,0h-6.3a4.813,4.813,0,1,0-8.061,0H68.781a2.188,2.188,0,0,0-1.815,3.408l14.678,21.826v12.39a1.094,1.094,0,0,0,1.53,1l10.063-4.382a1.094,1.094,0,0,0,.657-1v-8.009l14.678-21.826A2.183,2.183,0,0,0,108.686,98.6ZM94.406,94.484a4.053,4.053,0,0,1,3.9,2.953H90.51A4.053,4.053,0,0,1,94.406,94.484Zm-19.087.328a2.625,2.625,0,1,1,2.625,2.625A2.628,2.628,0,0,1,75.319,94.813Zm16.573,26.916a1.094,1.094,0,0,0-.186.61v7.626l-7.875,3.429v-9.961h3.951a1.094,1.094,0,0,0,0-2.188H83.319l-11.008-16.37H94.406a1.094,1.094,0,1,0,0-2.188H70.84l-2.059-3.062h37.974Z" transform="translate(-65.674 -80.156)" fill="#1e1e20"/>
        <path id="Path_38763" data-name="Path 38763" d="M195.469,19.427a1.094,1.094,0,0,0,1.094-1.094V13.849a1.094,1.094,0,0,0-2.188,0v4.484A1.094,1.094,0,0,0,195.469,19.427Z" transform="translate(-179.481 -11.36)"/>
        <g id="Group_37533" data-name="Group 37533">
          <path id="Path_38760" data-name="Path 38760" d="M255.137,9.625a4.813,4.813,0,1,0-4.813-4.813A4.818,4.818,0,0,0,255.137,9.625Zm0-7.438a2.625,2.625,0,1,1-2.625,2.625A2.628,2.628,0,0,1,255.137,2.188Z" transform="translate(-229.311)" fill="#1e1e20"/>
          <path id="Path_38761" data-name="Path 38761" d="M392.291,56.737a1.094,1.094,0,0,0,1.094-1.094V49.427a1.094,1.094,0,0,0-2.187,0v6.216A1.094,1.094,0,0,0,392.291,56.737Z" transform="translate(-354.775 -43.047)" fill="#1e1e20"/>
          <path id="Path_38762" data-name="Path 38762" d="M392.291,17.688a1.094,1.094,0,1,0-.773-.32A1.1,1.1,0,0,0,392.291,17.688Z" transform="translate(-354.775 -13.805)" fill="#1e1e20"/>
          <path id="Path_38764" data-name="Path 38764" d="M59.291,9.315a1.094,1.094,0,0,0,1.094-1.094V1.094a1.094,1.094,0,1,0-2.187,0V8.222A1.094,1.094,0,0,0,59.291,9.315Z" transform="translate(-58.197)" fill="#1e1e20"/>
          <path id="Path_38765" data-name="Path 38765" d="M60.064,104.537a1.093,1.093,0,1,0-.773.32A1.1,1.1,0,0,0,60.064,104.537Z" transform="translate(-58.197 -91.44)" fill="#1e1e20"/>
        </g>
        <path id="Path_38766" data-name="Path 38766" d="M355.667,206.32a1.093,1.093,0,1,0,.773-.32A1.1,1.1,0,0,0,355.667,206.32Z" transform="translate(-322.846 -183.469)"/>
      </g>
    </g>
  </g>
</svg>
