<svg xmlns="http://www.w3.org/2000/svg" width="100" height="80" viewBox="0 0 100 80">
  <g id="Group_86589" data-name="Group 86589" transform="translate(-277 -2133)">
    <rect id="Rectangle_34" data-name="Rectangle 34" width="100" height="80" rx="6" transform="translate(277 2133)" fill="none"/>
    <g id="Group_37337" data-name="Group 37337" transform="translate(291 2145)">
      <path id="Path_38812" data-name="Path 38812" d="M46.571.123C56.784-1,54.145,5.686,59.074,13.307s-6.836,8.651-6.44,14.8S51.162,40.991,40.8,41.629,17.078,51.921,8.065,47.089-3.509,38.207,6.117,26.465,36.358,1.242,46.571.123Z" transform="translate(65.826 55.389) rotate(-180)" fill="#dcedf8"/>
      <path id="Icon_awesome-circle" data-name="Icon awesome-circle" d="M2.125.563A1.562,1.562,0,1,0,3.687,2.125,1.562,1.562,0,0,0,2.125.563Z" transform="translate(-0.563 20.672)" fill="none" stroke="#007ebf" stroke-width="1"/>
      <path id="Icon_awesome-circle-2" data-name="Icon awesome-circle" d="M2.125.563A1.562,1.562,0,1,0,3.687,2.125,1.562,1.562,0,0,0,2.125.563Z" transform="translate(54.578 48.303)" fill="none" stroke="#007ebf" stroke-width="1"/>
      <path id="Icon_awesome-circle-3" data-name="Icon awesome-circle" d="M2.125.563A1.562,1.562,0,1,0,3.687,2.125,1.562,1.562,0,0,0,2.125.563Z" transform="translate(15.883 -0.563)" fill="none" stroke="#007ebf" stroke-width="1"/>
      <path id="Icon_awesome-plus" data-name="Icon awesome-plus" d="M3.78,3.849H2.471V2.541a.291.291,0,0,0-.291-.291H1.89a.291.291,0,0,0-.291.291V3.849H.291A.291.291,0,0,0,0,4.14v.291a.291.291,0,0,0,.291.291H1.6V6.03a.291.291,0,0,0,.291.291h.291a.291.291,0,0,0,.291-.291V4.721H3.78a.291.291,0,0,0,.291-.291V4.14A.291.291,0,0,0,3.78,3.849Z" transform="translate(2.162 6.448)" fill="#007ebf"/>
      <path id="Icon_awesome-plus-2" data-name="Icon awesome-plus" d="M3.78,1.6H2.471V.291A.291.291,0,0,0,2.181,0H1.89A.291.291,0,0,0,1.6.291V1.6H.291A.291.291,0,0,0,0,1.89v.291a.291.291,0,0,0,.291.291H1.6V3.78a.291.291,0,0,0,.291.291h.291a.291.291,0,0,0,.291-.291V2.471H3.78a.291.291,0,0,0,.291-.291V1.89A.291.291,0,0,0,3.78,1.6Z" transform="translate(6.232 25.125) rotate(-14)" fill="#007ebf"/>
      <path id="Icon_awesome-plus-3" data-name="Icon awesome-plus" d="M3.78,1.6H2.471V.291A.291.291,0,0,0,2.181,0H1.89A.291.291,0,0,0,1.6.291V1.6H.291A.291.291,0,0,0,0,1.89v.291a.291.291,0,0,0,.291.291H1.6V3.78a.291.291,0,0,0,.291.291h.291a.291.291,0,0,0,.291-.291V2.471H3.78a.291.291,0,0,0,.291-.291V1.89A.291.291,0,0,0,3.78,1.6Z" transform="translate(68.344 31.255) rotate(47)" fill="#007ebf"/>
      <g id="ui-design" transform="translate(7.064 1)">
        <circle id="Ellipse_262" data-name="Ellipse 262" cx="1.711" cy="1.711" r="1.711" transform="translate(28.7 42.115)" fill="#c5d3dd"/>
        <g id="Group_37322" data-name="Group 37322" transform="translate(21.617 8.082)">
          <circle id="Ellipse_263" data-name="Ellipse 263" cx="6.166" cy="6.166" r="6.166" transform="translate(0 8.719) rotate(-45)" fill="#a7c6d6"/>
          <g id="Group_37321" data-name="Group 37321" transform="translate(5.357 4.841)">
            <circle id="Ellipse_264" data-name="Ellipse 264" cx="2.024" cy="2.024" r="2.024" transform="translate(0.499 2.862) rotate(-45)" fill="#fff"/>
            <path id="Path_38836" data-name="Path 38836" d="M248.711,203.509a6.136,6.136,0,0,0,3.368-1,3.932,3.932,0,0,0-6.735,0A6.136,6.136,0,0,0,248.711,203.509Z" transform="translate(-245.343 -193.466)" fill="#fff"/>
          </g>
        </g>
        <path id="Path_38837" data-name="Path 38837" d="M238.832,264.515h-9.873a.561.561,0,0,1-.561-.561v-3.011a.561.561,0,0,1,.561-.561h9.873a.561.561,0,0,1,.561.561v3.011A.561.561,0,0,1,238.832,264.515Z" transform="translate(-203.518 -235.735)" fill="#6391a8"/>
        <g id="Group_37323" data-name="Group 37323" transform="translate(-1.057 0.942)">
          <path id="Path_38838" data-name="Path 38838" d="M11.692,71.7a4.491,4.491,0,0,0-1.644,6.135l.943,1.634,7.779-4.491-.943-1.634A4.491,4.491,0,0,0,11.692,71.7Z" transform="translate(-9.201 -71.094)" fill="#fff"/>
          <path id="Path_38839" data-name="Path 38839" d="M41.061,122.154,51.218,140.02l.639,8.049A1.122,1.122,0,0,1,50.1,149.1l-6.545-4.587L33.4,126.645Z" transform="translate(-30.145 -116.594)" fill="#fff"/>
          <path id="Path_38840" data-name="Path 38840" d="M51.208,140.02q-3.5-1.668-3.828,2.246-3.5-1.668-3.828,2.246L32.6,127.9l8.076-5.131Z" transform="translate(-30.145 -116.594)" fill="#7aa4ba"/>
          <path id="Path_38841" data-name="Path 38841" d="M153.8,306.039l.226,2.8a1.139,1.139,0,0,1-1.782,1.029l-2.313-1.6Z" transform="translate(-132.318 -277.366)" fill="#596c76"/>
          <path id="Path_38842" data-name="Path 38842" d="M68.985,122.511l9.86,17.418q-3.63-1.659-3.971,2.234l-10.53-17.775Z" transform="translate(-57.783 -115.798)" fill="#a7c6d6"/>
          <path id="Path_38843" data-name="Path 38843" d="M8.575,94.916l7.842-4.527a2.149,2.149,0,0,1,2.149,3.723l-7.842,4.527a2.149,2.149,0,0,1-2.149-3.723Z" transform="translate(-7.5 -87.711)" fill="#fff"/>
        </g>
        <g id="Group_37324" data-name="Group 37324">
          <path id="Path_38844" data-name="Path 38844" d="M256.324,430.512a2.654,2.654,0,1,0-2.654,2.654A2.657,2.657,0,0,0,256.324,430.512Zm-2.654.769a.769.769,0,1,1,.769-.768A.77.77,0,0,1,253.67,431.281Z" transform="translate(-223.267 -386.684)" fill="#1e1e20"/>
          <path id="Path_38845" data-name="Path 38845" d="M222.685,118.107a7.106,7.106,0,0,0-3.925,13.032c.014.01.027.021.041.03a7.111,7.111,0,0,0,3.884,1.156,7.291,7.291,0,0,0,3.925-1.186,7.106,7.106,0,0,0-3.925-13.032Zm1.832,12a5.214,5.214,0,0,1-3.665,0l-.052-.02a3,3,0,0,1,3.769,0Zm1.7-1.051a4.875,4.875,0,0,0-7.074,0,5.223,5.223,0,1,1,7.074,0Z" transform="translate(-192.325 -108.591)" fill="#1e1e20"/>
          <path id="Path_38846" data-name="Path 38846" d="M251.494,142.976a2.967,2.967,0,1,0,2.967,2.967A2.97,2.97,0,0,0,251.494,142.976Zm0,4.049a1.082,1.082,0,1,1,1.082-1.082A1.083,1.083,0,0,1,251.494,147.025Z" transform="translate(-221.093 -130.498)" fill="#1e1e20"/>
          <path id="Path_38847" data-name="Path 38847" d="M253.372,55.643h3.068a.943.943,0,1,0,0-1.885h-3.068a.943.943,0,1,0,0,1.885Z" transform="translate(-224.501 -49.606)" fill="#1e1e20"/>
          <path id="Path_38848" data-name="Path 38848" d="M232.271,252.892H222.4a1.505,1.505,0,0,0-1.5,1.5v3.011a1.505,1.505,0,0,0,1.5,1.5h9.873a1.505,1.505,0,0,0,1.5-1.5V254.4A1.505,1.505,0,0,0,232.271,252.892Zm-.382,4.133h-9.11v-2.248h9.11Z" transform="translate(-196.967 -229.203)" fill="#1e1e20"/>
          <path id="Path_38849" data-name="Path 38849" d="M188.624,322.448h-9.873a1.505,1.505,0,0,0-1.5,1.5.943.943,0,0,0,1.8.382h9.19v2.248H171.915a.943.943,0,0,0,0,1.885h16.709a1.505,1.505,0,0,0,1.5-1.5v-3.011A1.505,1.505,0,0,0,188.624,322.448Z" transform="translate(-152.865 -291.662)" fill="#1e1e20"/>
          <path id="Path_38850" data-name="Path 38850" d="M56.4,36.859h-9.72V24.149a3.552,3.552,0,0,0-3.662-3.422H17.827a3.552,3.552,0,0,0-3.662,3.422v11.29l-2.427-3.928a2.514,2.514,0,0,0,.643-1.087,2.407,2.407,0,0,0-.275-1.95A2.835,2.835,0,0,0,9.1,27.257a4.8,4.8,0,0,0-2.8-1.9,5.1,5.1,0,0,0-3.667.451A4.538,4.538,0,0,0,.382,28.552a4.217,4.217,0,0,0,.36,3.214,2.445,2.445,0,0,0-.374,3.04A2.716,2.716,0,0,0,2.037,36a2.953,2.953,0,0,0,.716.089,2.891,2.891,0,0,0,.612-.067l8.809,14.254h0l.006.01.01.015c.128.2.071.127,1.973,1.356V66.45a3.552,3.552,0,0,0,3.662,3.422H28.747a.785.785,0,1,0,0-1.567H17.827a1.926,1.926,0,0,1-1.986-1.855V62.6H45V66.45a1.926,1.926,0,0,1-1.986,1.855H32.1a.785.785,0,1,0,0,1.567H43.019a3.552,3.552,0,0,0,3.662-3.422V61.825s0,0,0-.006,0,0,0-.006V55.428H56.4a.785.785,0,1,0,0-1.567h-9.72V38.426H56.4a.785.785,0,1,0,0-1.567ZM2,28.958a2.963,2.963,0,0,1,1.471-1.79,3.328,3.328,0,0,1,2.395-.295,3.149,3.149,0,0,1,1.708,1.079L2.148,30.879A2.746,2.746,0,0,1,2,28.958Zm1.312,5.417h0l-.028.015a1.132,1.132,0,0,1-.814.1,1.059,1.059,0,0,1-.652-.467.939.939,0,0,1-.107-.761,1.008,1.008,0,0,1,.5-.609l6.945-3.746h0l.026-.014a1.133,1.133,0,0,1,.814-.1,1.059,1.059,0,0,1,.652.467.939.939,0,0,1,.107.761,1.008,1.008,0,0,1-.5.609L6.774,32.508h0Zm9.34,13.546L4.878,35.34l2.007-1.083L8.36,36.643a.851.851,0,0,0,.727.392.88.88,0,0,0,.418-.105.756.756,0,0,0,.307-1.07L8.338,33.474l2.007-1.083,3.92,6.344,0,0,3.853,6.234a2.516,2.516,0,0,0-1.159.289,2.317,2.317,0,0,0-.847.8l-4.591-7.428a.871.871,0,0,0-1.145-.287.756.756,0,0,0-.307,1.07l4.589,7.425a2.517,2.517,0,0,0-1.159.29,2.317,2.317,0,0,0-.848.794Zm2.82,2.68,0,0L13.8,49.524a1.445,1.445,0,0,1,.537-1.04,2.19,2.19,0,0,1,1.671.257l.021.008a.841.841,0,0,0,1.169-.636s0-.009,0-.014c.072-.786.284-1.312.6-1.481a1.679,1.679,0,0,1,1.232.086l.293,3.392L16.8,51.457Zm4,1.223.094,1.093a.15.15,0,0,1-.087.154.172.172,0,0,1-.186-.007l-.966-.623ZM45,36.859H38.959a.785.785,0,1,0,0,1.567H45V53.861H38.959a.785.785,0,1,0,0,1.567H45v5.608H15.842V52.742l2.5,1.612a1.946,1.946,0,0,0,1.977.074,1.689,1.689,0,0,0,.92-1.637c-.6-6.97-.565-6.773-.651-6.949-.007-.015-.035-.065-.037-.068l-4.711-7.623v-14a1.926,1.926,0,0,1,1.985-1.855H43.019A1.926,1.926,0,0,1,45,24.149v12.71Z" transform="translate(0 -20.727)" fill="#1e1e20"/>
          <path id="Path_38851" data-name="Path 38851" d="M455.375,148.917h-6.12a.943.943,0,1,0,0,1.885h6.12a.943.943,0,0,0,0-1.885Z" transform="translate(-399.078 -135.618)" fill="#1e1e20"/>
          <path id="Path_38852" data-name="Path 38852" d="M449.256,124.535h6.12a.943.943,0,0,0,0-1.885h-6.12a.943.943,0,1,0,0,1.885Z" transform="translate(-399.078 -112.076)" fill="#1e1e20"/>
          <path id="Path_38853" data-name="Path 38853" d="M455.375,311.708h-6.12a.943.943,0,1,0,0,1.885h6.12a.943.943,0,0,0,0-1.885Z" transform="translate(-399.078 -281.521)" fill="#1e1e20"/>
          <path id="Path_38854" data-name="Path 38854" d="M455.375,285.44h-6.12a.943.943,0,1,0,0,1.885h6.12a.943.943,0,0,0,0-1.885Z" transform="translate(-399.078 -257.978)" fill="#1e1e20"/>
        </g>
      </g>
    </g>
  </g>
</svg>
