<svg xmlns="http://www.w3.org/2000/svg" xmlns:xlink="http://www.w3.org/1999/xlink" width="65.856" height="20.964" viewBox="0 0 65.856 20.964">
  <defs>
    <radialGradient id="radial-gradient" cx="0.406" cy="0.33" r="0.656" gradientTransform="translate(0 -0.018) scale(1 1.018)" gradientUnits="objectBoundingBox">
      <stop offset="0" stop-color="#3c3256"/>
      <stop offset="0.77" stop-color="#130732"/>
      <stop offset="1" stop-color="#130732"/>
    </radialGradient>
  </defs>
  <g id="adobe_analytics" data-name="adobe analytics" transform="translate(6929.263 -5339.007)">
    <path id="Path_108406" data-name="Path 108406" d="M110.081,14.157h.817l2.483,7.386H112.6l-.629-1.886h-3.049l-.6,1.886h-.754Zm1.729,4.872-1.32-4.118-1.32,4.118ZM118.033,14h.66v7.449a7.106,7.106,0,0,1-.786.189,5.085,5.085,0,0,1-.974.063,4.139,4.139,0,0,1-1.069-.126,2.2,2.2,0,0,1-.849-.44,2.513,2.513,0,0,1-.566-.849,3.372,3.372,0,0,1-.22-1.226,4.15,4.15,0,0,1,.189-1.226,2.411,2.411,0,0,1,.534-.912,2.126,2.126,0,0,1,.817-.566,3.062,3.062,0,0,1,1.069-.189,4.7,4.7,0,0,1,.66.063,2.658,2.658,0,0,1,.534.126Zm0,3.017a2.653,2.653,0,0,0-.534-.157,4.678,4.678,0,0,0-.66-.063,2.7,2.7,0,0,0-.849.157,1.427,1.427,0,0,0-.6.471,2.044,2.044,0,0,0-.346.692,2.906,2.906,0,0,0-.126.912,2.1,2.1,0,0,0,.5,1.571,2.039,2.039,0,0,0,1.446.5,4.629,4.629,0,0,0,.66-.032,2.5,2.5,0,0,0,.471-.094v-3.96ZM122.59,21.7a2.464,2.464,0,0,1-1.037-.22,1.992,1.992,0,0,1-.754-.6,2.888,2.888,0,0,1-.44-.88,4.227,4.227,0,0,1,0-2.169,2.321,2.321,0,0,1,.44-.88,2.232,2.232,0,0,1,.723-.6,2.279,2.279,0,0,1,1.037-.22,2.466,2.466,0,0,1,1.037.22,1.9,1.9,0,0,1,.723.6,2.888,2.888,0,0,1,.44.88,4.224,4.224,0,0,1,0,2.169,2.886,2.886,0,0,1-.44.88,2.231,2.231,0,0,1-.723.6,2.75,2.75,0,0,1-1.006.22Zm0-.6a1.434,1.434,0,0,0,1.226-.566,2.805,2.805,0,0,0,.409-1.571,2.667,2.667,0,0,0-.409-1.6,1.6,1.6,0,0,0-2.263-.22,1.448,1.448,0,0,0-.22.22,2.806,2.806,0,0,0-.409,1.571,2.742,2.742,0,0,0,.409,1.572,1.659,1.659,0,0,0,1.257.6Zm3.866-7.1h.66v3.049a1.908,1.908,0,0,1,.629-.6,1.8,1.8,0,0,1,1.069-.251,2.085,2.085,0,0,1,.88.157,1.7,1.7,0,0,1,.691.471,2.273,2.273,0,0,1,.44.817,3.71,3.71,0,0,1,.157,1.163,2.925,2.925,0,0,1-.754,2.169,2.949,2.949,0,0,1-2.169.786,4.484,4.484,0,0,1-.911-.094,3.068,3.068,0,0,1-.723-.189Zm.691,6.946a2.355,2.355,0,0,0,.5.126,3.407,3.407,0,0,0,.566.032,2.17,2.17,0,0,0,.786-.126,1.8,1.8,0,0,0,.66-.409,2,2,0,0,0,.44-.692,2.32,2.32,0,0,0,.157-1.037,2.766,2.766,0,0,0-.346-1.477,1.266,1.266,0,0,0-1.163-.534,1.471,1.471,0,0,0-.534.094,1.748,1.748,0,0,0-.534.283,1.262,1.262,0,0,0-.409.5,1.809,1.809,0,0,0-.157.817Zm5.815-1.917a2.15,2.15,0,0,0,.471,1.54,2.039,2.039,0,0,0,1.446.5,5.142,5.142,0,0,0,.723-.063,2.6,2.6,0,0,0,.66-.189l.094.283a1.071,1.071,0,0,1,.031.314,5.846,5.846,0,0,1-.691.22,4.157,4.157,0,0,1-.88.063,3.608,3.608,0,0,1-1.163-.188,2.127,2.127,0,0,1-.817-.566,2.265,2.265,0,0,1-.471-.849,4.226,4.226,0,0,1-.157-1.1,3.982,3.982,0,0,1,.126-1.069,2.826,2.826,0,0,1,.409-.88,1.9,1.9,0,0,1,.723-.6,2.505,2.505,0,0,1,1.069-.22,2.252,2.252,0,0,1,.911.189,1.761,1.761,0,0,1,.66.5,2.2,2.2,0,0,1,.409.754,2.444,2.444,0,0,1,.126.943v.5c.094-.094-3.677-.094-3.677-.094m3.08-.566a2.176,2.176,0,0,0-.094-.629,1.395,1.395,0,0,0-.691-.912,1.585,1.585,0,0,0-1.792.314,1.986,1.986,0,0,0-.471,1.226Z" transform="translate(-7012.65 5325.007)" fill="#231f20"/>
    <g id="Group_37522" data-name="Group 37522" transform="translate(-6929.263 5339.007)">
      <rect id="Rectangle_4353" data-name="Rectangle 4353" width="20.964" height="20.964" transform="translate(0)" fill="url(#radial-gradient)"/>
      <rect id="Rectangle_4354" data-name="Rectangle 4354" width="20.964" height="20.964" transform="translate(0)" fill="none"/>
      <path id="Path_108407" data-name="Path 108407" d="M22.574,30.846h-.786v5.347l.786.314Zm1.468-.367v6.29c.1,0,.262.052.419.052h.419V30.479Zm4.665,4.456a4.984,4.984,0,0,0,.786-1.048V29.85h-.786ZM19.848,31.16l1.887-2.149,1.782.681,3.774-2.726,1.94,1.835.943-.786-.157-.367-.786.682L27.344,26.6l-3.826,2.726-1.782-.681L19.743,30.9l-1.31.315v.262Zm.367,1.31h-.786v1.573c.262.314.524.681.786.944Zm7.024-3.617h-.786v7.6l.786-.315Z" transform="translate(-14.16 -20.364)" fill="#e2d8ff"/>
      <path id="Path_108408" data-name="Path 108408" d="M6.3,14.639a8.806,8.806,0,1,0,8.806-8.806A8.792,8.792,0,0,0,6.3,14.639m.944,0A7.863,7.863,0,1,1,15.106,22.5a7.852,7.852,0,0,1-7.863-7.863" transform="translate(-4.753 -4.262)" fill="#9f7fff"/>
    </g>
    <g id="Group_37523" data-name="Group 37523" transform="translate(-6905.084 5349.756)">
      <path id="Path_108409" data-name="Path 108409" d="M348.553,19.993h-2.986l-.849,2.357h-.786l2.734-7.418h.786l2.735,7.418H349.4Zm-1.509-4.275s-.157.629-.283.943l-1.006,2.7H348.3l-.974-2.7c-.094-.314-.251-.912-.283-.943Zm4.149,1.351h.691v.786a2.79,2.79,0,0,1-.031.409h.031a2.269,2.269,0,0,1,2.106-1.352c1.32,0,1.76.754,1.76,2.043v3.395h-.723V19.208c0-.817-.126-1.571-1.163-1.571a1.983,1.983,0,0,0-1.917,1.509,2.678,2.678,0,0,0-.094.723v2.546h-.723V17.07Zm11.378-2.106h.723v6c0,.692.314.786.6.786h.189v.629c-.094,0-.189.032-.252.032-.44,0-1.226-.126-1.226-1.289Zm2.923,10.152.88-2.043.314-.754-2.2-5.249h.786l1.571,3.866c.094.251.189.566.189.566h.031a3.973,3.973,0,0,1,.189-.566l1.54-3.866h.786l-2.609,6.412-.786,1.666Zm13.39-8.172a2.676,2.676,0,0,1,1.949.754l-.377.534a2.19,2.19,0,0,0-1.54-.629,2.039,2.039,0,0,0-2.074,2.012v.126a2.04,2.04,0,0,0,1.98,2.106h.094a2.308,2.308,0,0,0,1.7-.754l.314.566a2.8,2.8,0,0,1-2.074.817,2.7,2.7,0,0,1-2.766-2.609v-.157a2.7,2.7,0,0,1,2.64-2.766Zm3.332,4.275a2.321,2.321,0,0,0,1.572.629c.566,0,1.069-.283,1.069-.849,0-1.163-2.86-.88-2.86-2.609,0-.943.849-1.477,1.823-1.477a2.248,2.248,0,0,1,1.634.6l-.314.534a1.9,1.9,0,0,0-1.32-.471c-.534,0-1.069.22-1.069.817,0,1.163,2.86.849,2.86,2.609,0,.88-.754,1.477-1.823,1.477a2.54,2.54,0,0,1-1.949-.786Zm-21.97-2.389a1.431,1.431,0,0,0-.314-1.006,1.4,1.4,0,0,0-.974-.314,7.2,7.2,0,0,0-.786.063,4.609,4.609,0,0,0-.629.157l-.094-.283a1.29,1.29,0,0,1-.031-.346,5.008,5.008,0,0,1,.66-.157,7.132,7.132,0,0,1,.817-.063,2.311,2.311,0,0,1,1.509.44,1.917,1.917,0,0,1,.5,1.414v3.552c-.251.063-.534.094-.911.157a5.416,5.416,0,0,1-1.006.063,2.676,2.676,0,0,1-1.54-.377,1.413,1.413,0,0,1-.566-1.257,2.024,2.024,0,0,1,.157-.754,1.536,1.536,0,0,1,.44-.566,2.042,2.042,0,0,1,.691-.346,2.844,2.844,0,0,1,.88-.126,4.207,4.207,0,0,1,.66.032l.44.031.094-.314Zm0,.911-.44-.031h-.5a2.108,2.108,0,0,0-1.226.314,1,1,0,0,0-.44.849,1.232,1.232,0,0,0,.126.566.835.835,0,0,0,.346.314,2.754,2.754,0,0,0,.472.157,2.694,2.694,0,0,0,.5.032,4.2,4.2,0,0,0,.629-.032l.566-.094-.031-2.074ZM374.3,17.07h.723v5.312H374.3Z" transform="translate(-343.933 -14.933)"/>
      <path id="Path_108410" data-name="Path 108410" d="M569.073,15.166a.44.44,0,1,1-.44.44.44.44,0,0,1,.44-.44" transform="translate(-538.365 -15.135)"/>
      <path id="Path_108411" data-name="Path 108411" d="M538.745,25.17h-.912v-.6h.912V23.567h.691v1.006h1.446v.6h-1.446v3.489a1.592,1.592,0,0,0,.063.409.489.489,0,0,0,.189.251.63.63,0,0,0,.251.126.869.869,0,0,0,.283.032,2.03,2.03,0,0,0,.629-.094,1.828,1.828,0,0,1,.094.6,2.835,2.835,0,0,1-.88.126,1.4,1.4,0,0,1-.974-.314,1.242,1.242,0,0,1-.346-1.069Z" transform="translate(-511.714 -22.404)"/>
    </g>
  </g>
</svg>
