<svg xmlns="http://www.w3.org/2000/svg" xmlns:xlink="http://www.w3.org/1999/xlink" width="91.072" height="19.506" viewBox="0 0 91.072 19.506">
  <defs>
    <clipPath id="clip-path">
      <rect id="Rectangle_4404" data-name="Rectangle 4404" width="91.072" height="19.506" fill="none"/>
    </clipPath>
  </defs>
  <g id="optimizely" transform="translate(6871.796 -5031.645)">
    <g id="Group_37554" data-name="Group 37554" transform="translate(-6871.796 5031.645)" clip-path="url(#clip-path)">
      <path id="Path_108560" data-name="Path 108560" d="M15.882,8.891,16.071,7a5.6,5.6,0,0,0-.614-2.375L14.462,6a3.986,3.986,0,0,1,.151,1.468,4.821,4.821,0,0,1-4.8,4.282,4.414,4.414,0,0,1-1.613-.3l5.943-6.208L16.653,2.7l-1.787.945A6.307,6.307,0,0,0,9.592,1.352,7.456,7.456,0,0,0,2.461,8.18a6,6,0,0,0,6.476,6.284,7.548,7.548,0,0,0,6.944-5.573m6.749,1.5a3.787,3.787,0,0,0-.252-2.21,1.468,1.468,0,0,0-1.389-.687,2.987,2.987,0,0,0-.887.139,3.883,3.883,0,0,0-.887.418l-.525,5.246a2.125,2.125,0,0,0,.55.158,5.094,5.094,0,0,0,.738.046,2.281,2.281,0,0,0,1.841-.771,4.265,4.265,0,0,0,.81-2.34m7.332,5.5a3.933,3.933,0,0,1-2.815-.817,3.2,3.2,0,0,1-.633-2.674L27,7.518H25.815a7.992,7.992,0,0,1,.147,2.8,6.708,6.708,0,0,1-1.675,4.03,4.34,4.34,0,0,1-3.273,1.532,4.477,4.477,0,0,1-1.338-.176A5.458,5.458,0,0,1,18.5,15.16l-.434,4.345H14.82l.589-5.887A9.409,9.409,0,0,1,7.951,17.47,7.894,7.894,0,0,1,.029,8.735,9.573,9.573,0,0,1,9.349,0,7.86,7.86,0,0,1,15.3,2.624l2.739-1.049-1.618,2.7a8.024,8.024,0,0,1,.417.979H19.5l-.109,1.086a8.59,8.59,0,0,1,1.557-.993A3.959,3.959,0,0,1,22.7,4.965a3.346,3.346,0,0,1,1.427.288h3.1l.3-2.981h3.25l-.3,2.981h3.129l-.227,2.265H30.252l-.37,3.7q-.055.548-.086.956a1.869,1.869,0,0,0,.075.734.915.915,0,0,0,.4.52,1.906,1.906,0,0,0,.947.186,2.892,2.892,0,0,0,.689-.111,3.113,3.113,0,0,0,.615-.2H32.8l-.229,2.293a9.108,9.108,0,0,1-1.145.214,10.9,10.9,0,0,1-1.466.083M5.7,7.468a4.822,4.822,0,0,1,4.8-4.282,4.188,4.188,0,0,1,3.057,1.261l-7.3,5.4A3.9,3.9,0,0,1,5.7,7.468M36.524,15.68h-3.25L34.317,5.253h3.25ZM37.808,3.767H34.372l.253-2.535h3.436ZM49.73,15.68l.521-5.209q.077-.77.1-1.3a2.523,2.523,0,0,0-.081-.863.786.786,0,0,0-.388-.483,1.632,1.632,0,0,0-.8-.158,1.848,1.848,0,0,0-.75.167,5.354,5.354,0,0,0-.835.455l-.739,7.391H43.49l.521-5.209q.076-.762.092-1.291a2.552,2.552,0,0,0-.08-.873.788.788,0,0,0-.388-.483,1.609,1.609,0,0,0-.792-.158,1.884,1.884,0,0,0-.8.186,6.482,6.482,0,0,0-.787.436l-.739,7.391h-3.25L38.311,5.253h3.25L41.446,6.4a10.231,10.231,0,0,1,1.61-1.058,3.521,3.521,0,0,1,1.626-.381,2.869,2.869,0,0,1,1.635.455,2.485,2.485,0,0,1,.969,1.356,10.907,10.907,0,0,1,1.9-1.337,3.654,3.654,0,0,1,1.737-.474A3.278,3.278,0,0,1,52.2,5.2a2.183,2.183,0,0,1,.905.7,2.9,2.9,0,0,1,.53,1.2,5.847,5.847,0,0,1,.043,1.8L53,15.68ZM58.194,3.767H54.758l.253-2.535h3.436Zm8.436,9.425a5.5,5.5,0,0,1-.4-2.946A6.228,6.228,0,0,1,68.1,6.169a5.962,5.962,0,0,1,4.256-1.523,4.282,4.282,0,0,1,3.474,1.291,4.832,4.832,0,0,1,.838,3.7l-.117,1.17H69.431a2.825,2.825,0,0,0,.185,1.216,1.834,1.834,0,0,0,.61.771,2.535,2.535,0,0,0,.933.418,5.551,5.551,0,0,0,1.2.121,5.306,5.306,0,0,0,1.126-.121,6.114,6.114,0,0,0,1.037-.334,6.992,6.992,0,0,0,.772-.381q.364-.2.593-.362h.344l-.268,2.684q-.415.158-.763.3a7.491,7.491,0,0,1-.928.269,9.267,9.267,0,0,1-1.117.213,8.411,8.411,0,0,1-.984.079L56.91,15.68H53.66L54.7,5.253h3.25l-.789,7.89L62.35,7.695l-3.871.014.281-2.391,7.873-.065L66.423,7.36l-5.569,5.831Zm6.916-4.348a2.307,2.307,0,0,0-.326-1.569,1.524,1.524,0,0,0-1.32-.539,2.147,2.147,0,0,0-1.542.566,2.642,2.642,0,0,0-.739,1.541ZM91.072,4.971l-6.69,14.253H80.89l1.986-4.076L80.662,7.121,79.834,15.4h-3.25L78.029.951h3.25l-.4,4.021h2.609l1.538,6.537,2.706-6.537Z" transform="translate(0)" fill="#0054a1"/>
    </g>
  </g>
</svg>
