<svg xmlns="http://www.w3.org/2000/svg" xmlns:xlink="http://www.w3.org/1999/xlink" width="50.099" height="34.06" viewBox="0 0 50.099 34.06">
  <defs>
    <clipPath id="clip-path">
      <rect id="Rectangle_4391" data-name="Rectangle 4391" width="47.105" height="32.972" fill="none"/>
    </clipPath>
  </defs>
  <g id="salesforce_datorama" data-name="salesforce datorama" transform="translate(7019.479 -5267.4)">
    <g id="Group_37527" data-name="Group 37527" transform="translate(-7019.479 5267.4)">
      <g id="Group_37526" data-name="Group 37526" clip-path="url(#clip-path)">
        <path id="Path_108460" data-name="Path 108460" d="M19.6,3.6A8.262,8.262,0,0,1,32.842,5.342a10.043,10.043,0,0,1,4.107-.873,10.244,10.244,0,1,1-2,20.289,7.431,7.431,0,0,1-9.728,3.055A8.469,8.469,0,0,1,9.479,27.43,7.864,7.864,0,0,1,0,19.654a7.956,7.956,0,0,1,3.932-6.881A9.148,9.148,0,0,1,19.6,3.6" transform="translate(-0.001 -0.002)" fill="#0097d8"/>
        <path id="Path_108461" data-name="Path 108461" d="M59.332,119.246c-.03.077.011.093.021.106a2.158,2.158,0,0,0,.269.163,2.864,2.864,0,0,0,1.406.328c.966,0,1.567-.513,1.567-1.341v-.015c0-.765-.678-1.044-1.313-1.244l-.082-.028c-.479-.154-.892-.291-.892-.606V116.6c0-.271.242-.47.616-.47a2.812,2.812,0,0,1,1.226.314s.093.061.129-.028c.017-.051.178-.483.195-.53a.09.09,0,0,0-.047-.11,2.74,2.74,0,0,0-1.383-.371h-.1a1.352,1.352,0,0,0-1.5,1.3v.015c0,.807.682,1.07,1.32,1.252l.1.031c.466.144.866.267.866.593v.017c0,.3-.261.521-.68.521a2.282,2.282,0,0,1-1.245-.358c-.068-.041-.106-.068-.159-.1-.027-.016-.1-.048-.127.043Z" transform="translate(-52.51 -102.149)" fill="#fff"/>
        <path id="Path_108462" data-name="Path 108462" d="M182.518,119.246c-.03.077.011.093.021.106a2.158,2.158,0,0,0,.269.163,2.864,2.864,0,0,0,1.406.328c.966,0,1.567-.513,1.567-1.341v-.015c0-.765-.678-1.044-1.313-1.244l-.082-.028c-.479-.154-.892-.291-.892-.606V116.6c0-.271.242-.47.616-.47a2.812,2.812,0,0,1,1.226.314s.093.061.129-.028c.017-.051.178-.483.195-.53a.09.09,0,0,0-.047-.11,2.74,2.74,0,0,0-1.383-.371h-.1a1.352,1.352,0,0,0-1.5,1.3v.015c0,.807.682,1.07,1.32,1.252l.1.031c.466.144.866.267.866.593v.017c0,.3-.261.521-.68.521a2.282,2.282,0,0,1-1.245-.358c-.068-.041-.108-.068-.159-.1a.081.081,0,0,0-.127.043Z" transform="translate(-161.549 -102.149)" fill="#fff"/>
        <path id="Path_108463" data-name="Path 108463" d="M244.272,116.859a1.983,1.983,0,0,0-.366-.7,1.787,1.787,0,0,0-.621-.471,2.24,2.24,0,0,0-1.728,0,1.787,1.787,0,0,0-.621.471,1.981,1.981,0,0,0-.367.7,3.237,3.237,0,0,0,0,1.733,1.993,1.993,0,0,0,.367.7,1.716,1.716,0,0,0,.621.466,2.288,2.288,0,0,0,1.728,0,1.717,1.717,0,0,0,.621-.466,1.98,1.98,0,0,0,.366-.7,3.223,3.223,0,0,0,0-1.733m-.807.866a1.989,1.989,0,0,1-.258,1.1.875.875,0,0,1-.786.384.863.863,0,0,1-.782-.384,2.016,2.016,0,0,1-.254-1.1,2,2,0,0,1,.254-1.093.864.864,0,0,1,.782-.38.875.875,0,0,1,.786.38,1.97,1.97,0,0,1,.258,1.093" transform="translate(-212.839 -102.249)" fill="#fff"/>
        <path id="Path_108464" data-name="Path 108464" d="M307.454,119.047a.075.075,0,0,0-.1-.048,1.9,1.9,0,0,1-.377.108,3.025,3.025,0,0,1-.44.032,1.229,1.229,0,0,1-.924-.347,1.534,1.534,0,0,1-.345-1.1,1.7,1.7,0,0,1,.309-1.063,1.051,1.051,0,0,1,.894-.392,2.733,2.733,0,0,1,.854.121s.063.028.093-.055c.07-.2.123-.335.2-.551a.072.072,0,0,0-.051-.1,3.2,3.2,0,0,0-.538-.136,4.013,4.013,0,0,0-.606-.042,2.209,2.209,0,0,0-.9.174,1.863,1.863,0,0,0-.65.47,1.97,1.97,0,0,0-.392.7,2.808,2.808,0,0,0-.131.868,2.322,2.322,0,0,0,.536,1.606,2.039,2.039,0,0,0,1.593.6,3.326,3.326,0,0,0,1.142-.2.076.076,0,0,0,.034-.1Z" transform="translate(-269.399 -102.215)" fill="#fff"/>
        <path id="Path_108465" data-name="Path 108465" d="M339.044,116.726a1.735,1.735,0,0,0-.35-.64,1.613,1.613,0,0,0-.519-.4,1.994,1.994,0,0,0-.781-.157,2.15,2.15,0,0,0-.9.173,1.8,1.8,0,0,0-.629.481,2,2,0,0,0-.37.708,3.108,3.108,0,0,0-.119.873,2.909,2.909,0,0,0,.123.871,1.746,1.746,0,0,0,1.083,1.148,2.675,2.675,0,0,0,.991.161,2.838,2.838,0,0,0,1.375-.273c.03-.017.059-.045.023-.129l-.178-.5a.08.08,0,0,0-.1-.049,2.61,2.61,0,0,1-1.12.2,1.118,1.118,0,0,1-1.252-1.231l2.73,0a.078.078,0,0,0,.078-.07,2.869,2.869,0,0,0-.08-1.175m-2.716.57a1.584,1.584,0,0,1,.221-.644.867.867,0,0,1,.781-.4.851.851,0,0,1,.765.4,1.351,1.351,0,0,1,.18.644Z" transform="translate(-296.862 -102.266)" fill="#fff"/>
        <path id="Path_108466" data-name="Path 108466" d="M148.64,116.726a1.735,1.735,0,0,0-.35-.64,1.613,1.613,0,0,0-.519-.4,1.994,1.994,0,0,0-.781-.157,2.15,2.15,0,0,0-.9.173,1.793,1.793,0,0,0-.629.481,2,2,0,0,0-.37.708,3.109,3.109,0,0,0-.119.873,2.909,2.909,0,0,0,.123.871,1.746,1.746,0,0,0,1.083,1.148,2.676,2.676,0,0,0,.991.161,2.838,2.838,0,0,0,1.375-.273c.03-.017.059-.045.023-.129l-.178-.5a.08.08,0,0,0-.1-.049,2.609,2.609,0,0,1-1.12.2,1.118,1.118,0,0,1-1.252-1.231l2.73,0a.078.078,0,0,0,.078-.07,2.871,2.871,0,0,0-.08-1.175m-2.716.57a1.576,1.576,0,0,1,.221-.644.867.867,0,0,1,.781-.4.849.849,0,0,1,.765.4,1.351,1.351,0,0,1,.18.644Z" transform="translate(-128.324 -102.266)" fill="#fff"/>
        <path id="Path_108467" data-name="Path 108467" d="M94.3,117.133c-.11-.008-.254-.01-.426-.01a2.613,2.613,0,0,0-.674.084,1.737,1.737,0,0,0-.57.265,1.336,1.336,0,0,0-.4.452,1.307,1.307,0,0,0-.146.629,1.432,1.432,0,0,0,.125.623,1.147,1.147,0,0,0,.356.426,1.479,1.479,0,0,0,.557.242,3.3,3.3,0,0,0,.722.074,5.158,5.158,0,0,0,.831-.068c.267-.047.6-.112.686-.136s.192-.048.192-.048a.084.084,0,0,0,.061-.089l0-2.5a1.527,1.527,0,0,0-.432-1.206,1.856,1.856,0,0,0-1.254-.377,4.659,4.659,0,0,0-.733.065,2.632,2.632,0,0,0-.841.31.082.082,0,0,0-.025.108l.195.519a.068.068,0,0,0,.089.044.289.289,0,0,0,.044-.023,2.791,2.791,0,0,1,1.19-.275,1.1,1.1,0,0,1,.674.176c.148.114.225.286.225.65v.114c-.233-.032-.449-.053-.449-.053m-1.087,1.919a.5.5,0,0,1-.157-.163.645.645,0,0,1-.082-.354.6.6,0,0,1,.243-.529,1.24,1.24,0,0,1,.793-.2,5.7,5.7,0,0,1,.741.064v1.241a5.538,5.538,0,0,1-.737.1,1.22,1.22,0,0,1-.8-.159" transform="translate(-81.511 -102.235)" fill="#fff"/>
        <path id="Path_108468" data-name="Path 108468" d="M283.66,116.1a.073.073,0,0,0-.04-.1,2.273,2.273,0,0,0-.458-.078,1.363,1.363,0,0,0-.705.113,1.254,1.254,0,0,0-.46.341v-.333a.08.08,0,0,0-.081-.082h-.7a.08.08,0,0,0-.079.082v4.074a.081.081,0,0,0,.083.081h.718a.083.083,0,0,0,.083-.081v-2.036a2.353,2.353,0,0,1,.091-.716.986.986,0,0,1,.24-.4.837.837,0,0,1,.337-.2,1.343,1.343,0,0,1,.367-.051,1.554,1.554,0,0,1,.3.036.09.09,0,0,0,.1-.072c.047-.125.18-.5.206-.574" transform="translate(-248.855 -102.605)" fill="#fff"/>
        <path id="Path_108469" data-name="Path 108469" d="M208.156,100.331a2.164,2.164,0,0,0-.64-.093,1.569,1.569,0,0,0-1.159.415,2.261,2.261,0,0,0-.547,1.239l-.034.184h-.62a.094.094,0,0,0-.091.079l-.1.569c-.007.054.017.087.088.087h.6l-.612,3.417a4.629,4.629,0,0,1-.163.673,1.418,1.418,0,0,1-.191.387.5.5,0,0,1-.25.193,1.01,1.01,0,0,1-.322.047,1.25,1.25,0,0,1-.218-.024.743.743,0,0,1-.148-.048.073.073,0,0,0-.1.044c-.023.058-.184.5-.2.556a.082.082,0,0,0,.042.108,2.265,2.265,0,0,0,.25.074,1.632,1.632,0,0,0,.4.036,1.971,1.971,0,0,0,.669-.1,1.237,1.237,0,0,0,.5-.351,1.814,1.814,0,0,0,.354-.61,5.167,5.167,0,0,0,.242-.918l.614-3.48h.9a.093.093,0,0,0,.091-.078l.1-.57c.007-.053-.017-.087-.089-.087h-.873a3.767,3.767,0,0,1,.144-.616.777.777,0,0,1,.191-.29.537.537,0,0,1,.229-.142.909.909,0,0,1,.294-.042,1.174,1.174,0,0,1,.222.021c.085.019.118.028.14.034.09.028.1,0,.119-.04l.209-.574a.074.074,0,0,0-.051-.1" transform="translate(-180.083 -88.727)" fill="#fff"/>
        <path id="Path_108470" data-name="Path 108470" d="M131.464,106.924a.078.078,0,0,1-.078.083h-.725a.079.079,0,0,1-.078-.083V101.1a.081.081,0,0,1,.078-.083h.725a.079.079,0,0,1,.078.083Z" transform="translate(-115.588 -89.414)" fill="#fff"/>
      </g>
    </g>
    <path id="Path_108471" data-name="Path 108471" d="M443.592,82.422h.559c.023,1.492-.038,2.985.035,4.476l-.52-.008c-.013-.142-.025-.284-.036-.426a1.429,1.429,0,0,1-2.363-.206,2.062,2.062,0,0,1,.391-2.363,1.583,1.583,0,0,1,1.941.062c-.011-.511-.007-1.023-.007-1.536m-1.926,2.573a1.457,1.457,0,0,0,.408,1.379.963.963,0,0,0,1.46-.475,7.818,7.818,0,0,0,.068-1.4,1.29,1.29,0,0,0-1.067-.451,1.026,1.026,0,0,0-.869.949m6.789-2.113.551-.161c-.016.321-.015.642,0,.961q.423,0,.849-.007c0,.148,0,.3,0,.448l-.841,0c.033.7-.071,1.412.024,2.111.073.365.5.307.781.295.012.107.039.321.051.427a1.844,1.844,0,0,1-1.035-.093.809.809,0,0,1-.373-.714c-.015-.677,0-1.352,0-2.029l-.568.006c0-.1,0-.286,0-.381l.569-.062c0-.266,0-.532,0-.8m-3.5,1.064a2.246,2.246,0,0,1,1.868-.255,1.047,1.047,0,0,1,.65.983c.031.74-.018,1.482.034,2.221h-.5c-.008-.1-.024-.3-.031-.406a1.481,1.481,0,0,1-1.687.395,1.012,1.012,0,0,1,.05-1.788,4.175,4.175,0,0,1,1.6-.188c-.031-.263,0-.6-.272-.749a1.63,1.63,0,0,0-1.481.133c-.077-.115-.153-.23-.229-.345m.722,1.491a.6.6,0,0,0,0,1.065.974.974,0,0,0,1.132-.4,1.7,1.7,0,0,0,.119-.807,3.3,3.3,0,0,0-1.253.142m5.406-1.714a1.8,1.8,0,0,1,1.97.378,2.021,2.021,0,0,1,.146,2.148,1.655,1.655,0,0,1-2.841-.13,1.819,1.819,0,0,1,.726-2.4m.221.423a1.493,1.493,0,0,0-.383,1.874,1.021,1.021,0,0,0,1.756.061,1.731,1.731,0,0,0,0-1.6,1.075,1.075,0,0,0-1.372-.339m2.639-.465.531-.008c.011.151.024.3.036.453a1.3,1.3,0,0,1,1.212-.545c-.007.158-.015.314-.021.471a1,1,0,0,0-1.1.71,21.1,21.1,0,0,0-.04,2.127L454,86.9c-.019-1.071.052-2.146-.052-3.214m2.194.223a2.344,2.344,0,0,1,1.946-.173,1.2,1.2,0,0,1,.567,1.161c.006.668-.019,1.337.026,2.006l-.511-.008c-.008-.127-.016-.254-.023-.381a1.54,1.54,0,0,1-1.654.39,1.034,1.034,0,0,1-.238-1.658,3.213,3.213,0,0,1,1.859-.334c-.031-.275-.028-.631-.319-.772a1.712,1.712,0,0,0-1.467.164l-.186-.395m.664,1.554a.6.6,0,0,0,.023,1.035A.973.973,0,0,0,458,86.075a1.852,1.852,0,0,0,.107-.777,2.955,2.955,0,0,0-1.3.161m2.412-1.781.5,0c.024.135.047.271.07.407a1.3,1.3,0,0,1,2.111.108,1.265,1.265,0,0,1,2.228.14,17.31,17.31,0,0,1,.086,2.556c-.184.006-.366.009-.548.013-.006-.631.009-1.262,0-1.894a1.053,1.053,0,0,0-.278-.8.828.828,0,0,0-1.165.2,1.362,1.362,0,0,0-.223.822c0,.555,0,1.112,0,1.668-.187,0-.374,0-.56,0-.014-.706.015-1.412-.011-2.117a.719.719,0,0,0-.648-.732.917.917,0,0,0-.972.879c-.029.655,0,1.311-.009,1.967l-.563,0c-.008-1.072.025-2.145-.021-3.218m5.649.244a2.273,2.273,0,0,1,1.956-.188,1.125,1.125,0,0,1,.556,1.042c.016.708-.019,1.418.036,2.125l-.518-.013q-.014-.189-.024-.376a1.537,1.537,0,0,1-1.642.391,1.03,1.03,0,0,1-.249-1.657,3.223,3.223,0,0,1,1.878-.339c-.049-.273-.042-.633-.335-.772a1.7,1.7,0,0,0-1.46.162l-.2-.375m.673,1.536a.6.6,0,0,0,.017,1.036.975.975,0,0,0,1.167-.417,1.908,1.908,0,0,0,.127-.779,2.994,2.994,0,0,0-1.311.16" transform="translate(-7436.794 5214.465)" fill="#14377d"/>
  </g>
</svg>
