<svg id="tableau" xmlns="http://www.w3.org/2000/svg" xmlns:xlink="http://www.w3.org/1999/xlink" width="86.991" height="17.008" viewBox="0 0 86.991 17.008">
  <defs>
    <clipPath id="clip-path">
      <rect id="Rectangle_4403" data-name="Rectangle 4403" width="86.991" height="17.008" fill="none"/>
    </clipPath>
  </defs>
  <path id="Path_108536" data-name="Path 108536" d="M25.786,21.5H23.473V18.989h-.909V21.5H20.251V22.4h2.313V24.91h.909V22.4h2.313Z" transform="translate(-14.599 -13.69)" fill="#e35e1d"/>
  <path id="Path_108537" data-name="Path 108537" d="M10.691,36.891H8.618V34.64H7.834v2.251H5.762v.686H7.834v2.251h.784V37.577h2.072Z" transform="translate(-4.154 -24.973)" fill="#b80728"/>
  <path id="Path_108538" data-name="Path 108538" d="M41.841,8.011H39.77V5.75h-.785V8.011H36.913V8.7h2.072v2.241h.785V8.7h2.072Z" transform="translate(-26.611 -4.145)" fill="#46758a"/>
  <path id="Path_108539" data-name="Path 108539" d="M27.46,47.6H26.054v-1.57h-.67V47.6H23.979v.606h1.406v1.57h.67v-1.57H27.46Z" transform="translate(-17.287 -33.185)" fill="#435380"/>
  <path id="Path_108540" data-name="Path 108540" d="M10.691,8.011h-2.1V5.75H7.859V8.011h-2.1v.666h2.1v2.261h.735V8.677h2.1Z" transform="translate(-4.154 -4.145)" fill="#e97b17"/>
  <path id="Path_108541" data-name="Path 108541" d="M51.284,24.458H49.879v-1.57h-.67v1.57H47.8v.606h1.406v1.57h.67v-1.57h1.406Z" transform="translate(-34.462 -16.501)" fill="#435380"/>
  <path id="Path_108542" data-name="Path 108542" d="M41.841,36.891H39.77V34.64h-.785v2.251H36.913v.686h2.072v2.251h.785V37.577h2.072Z" transform="translate(-26.611 -24.973)" fill="#00366c" fill-rule="evenodd"/>
  <path id="Path_108543" data-name="Path 108543" d="M25.727,0v1.54H24.336v.466h1.391v1.54h.5V2.007h1.391V1.541H26.227V0Z" transform="translate(-17.545 0)" fill="#5d8895"/>
  <path id="Path_108544" data-name="Path 108544" d="M1.4,23.318v1.51H0v.486L1.4,25.3v1.519h.491V25.3l1.4-.008v-.466h-1.4v-1.51Z" transform="translate(0 -16.81)" fill="#5d8895"/>
  <g id="Group_37551" data-name="Group 37551">
    <g id="Group_37550" data-name="Group 37550" clip-path="url(#clip-path)">
      <path id="Path_108545" data-name="Path 108545" d="M87.34,56.548a1.052,1.052,0,0,0,.552.153c.4,0,.628-.183.628-.473a.436.436,0,0,0-.21-.4,2.3,2.3,0,0,0-.4-.17c-.144-.054-.214-.112-.214-.177,0-.081.08-.128.233-.128a1.211,1.211,0,0,1,.519.159v-.326a1.231,1.231,0,0,0-.54-.13c-.365,0-.6.193-.6.458,0,.288.2.421.6.561.14.048.212.079.212.174s-.081.142-.237.142a1.038,1.038,0,0,1-.542-.2Z" transform="translate(-62.946 -39.693)" fill="#46758a" fill-rule="evenodd"/>
      <path id="Path_108546" data-name="Path 108546" d="M115.388,55.88a.794.794,0,0,0,.25.593.945.945,0,0,0,1.23,0,.791.791,0,0,0,.249-.593.8.8,0,0,0-.249-.6.952.952,0,0,0-1.23,0,.8.8,0,0,0-.25.6m.41,0a.455.455,0,1,1,.454.486.454.454,0,0,1-.454-.486" transform="translate(-83.186 -39.693)" fill="#46758a" fill-rule="evenodd"/>
      <path id="Path_108547" data-name="Path 108547" d="M146.858,56.739h.4v-.654h.591v-.3h-.591v-.345h.631V55.15h-1.029Z" transform="translate(-105.874 -39.759)" fill="#46758a" fill-rule="evenodd"/>
      <path id="Path_108548" data-name="Path 108548" d="M175.8,56.739h.419V55.446h.526v-.3H175.27v.3h.526Z" transform="translate(-126.357 -39.759)" fill="#46758a" fill-rule="evenodd"/>
      <path id="Path_108549" data-name="Path 108549" d="M204.164,56.753h.162l.361-.994.358.994h.165l.645-1.6h-.417l-.307.868-.312-.868h-.266l-.311.863-.309-.863h-.414Z" transform="translate(-146.723 -39.759)" fill="#46758a" fill-rule="evenodd"/>
      <path id="Path_108550" data-name="Path 108550" d="M233.422,56.739h.424l.128-.309h.684l.114.309h.421l-.62-1.589h-.458Zm.666-.581.247-.605.223.605Z" transform="translate(-168.28 -39.759)" fill="#46758a" fill-rule="evenodd"/>
      <path id="Path_108551" data-name="Path 108551" d="M262.888,56.739h.4v-.647l.046,0a.266.266,0,0,1,.288.191l.2.458h.449l-.254-.545a.361.361,0,0,0-.189-.2.4.4,0,0,0,.277-.384c0-.318-.207-.46-.634-.46h-.586Zm.588-.938h-.191v-.369h.191c.144,0,.219.067.219.184s-.07.186-.219.186" transform="translate(-189.523 -39.759)" fill="#46758a" fill-rule="evenodd"/>
      <path id="Path_108552" data-name="Path 108552" d="M291.483,56.739h1.082v-.3h-.684v-.38h.636v-.3h-.636v-.324h.666V55.15h-1.064Z" transform="translate(-210.138 -39.759)" fill="#46758a" fill-rule="evenodd"/>
      <path id="Path_108553" data-name="Path 108553" d="M157.356,17.52a3.811,3.811,0,0,1,1.346-.279,2.548,2.548,0,0,1,2.6,2.8c0,1.775-1.1,2.813-3.048,2.813a6.26,6.26,0,0,1-2.031-.366l-.033-7.852h1.163Zm1.018,4.268a1.562,1.562,0,0,0,1.709-1.732,1.556,1.556,0,0,0-1.6-1.745,2.778,2.778,0,0,0-1.124.282v3a2.944,2.944,0,0,0,1.018.2" transform="translate(-112.604 -10.554)" fill="#00366c" fill-rule="evenodd"/>
      <rect id="Rectangle_4402" data-name="Rectangle 4402" width="1.151" height="10.306" transform="translate(53.535 2.984)" fill="#00366c"/>
      <path id="Path_108554" data-name="Path 108554" d="M215.41,26.189h2.643a1.042,1.042,0,0,0-1.081-1.112,1.553,1.553,0,0,0-1.562,1.112m1.3,3.446a2.669,2.669,0,0,1-2.587-2.9,2.61,2.61,0,0,1,2.661-2.728c1.652,0,2.609,1.222,2.527,3.026h-3.977a1.538,1.538,0,0,0,1.515,1.534,4.1,4.1,0,0,0,2.168-.429v1.1a4.112,4.112,0,0,1-2.307.395" transform="translate(-154.368 -17.31)" fill="#00366c" fill-rule="evenodd"/>
      <path id="Path_108555" data-name="Path 108555" d="M287.713,29a1.1,1.1,0,0,0,1.222-1.205V24.381H290.1v3.553c0,1.187-.922,1.912-2.386,1.912s-2.385-.724-2.385-1.912V24.381h1.163V27.79A1.1,1.1,0,0,0,287.713,29" transform="translate(-205.7 -17.577)" fill="#00366c" fill-rule="evenodd"/>
      <path id="Path_108556" data-name="Path 108556" d="M120.875,29.513c-1.945.006-3.048-1.038-3.048-2.813a2.548,2.548,0,0,1,2.6-2.8,2.379,2.379,0,0,1,1.346.368v-.392h1.163l-.033,5.276a5.671,5.671,0,0,1-2.031.366m-.117-1.069a4.141,4.141,0,0,0,1-.127l.022-2.975a1.927,1.927,0,0,0-1.123-.375,1.556,1.556,0,0,0-1.6,1.745,1.555,1.555,0,0,0,1.709,1.732" transform="translate(-84.945 -17.21)" fill="#00366c" fill-rule="evenodd"/>
      <path id="Path_108557" data-name="Path 108557" d="M252.542,29.513c-1.945.006-3.047-1.038-3.047-2.813a2.548,2.548,0,0,1,2.6-2.8,2.383,2.383,0,0,1,1.346.368v-.392H254.6l-.033,5.276a5.664,5.664,0,0,1-2.03.366m-.116-1.069a4.178,4.178,0,0,0,1-.127l.021-2.975a1.929,1.929,0,0,0-1.123-.375,1.556,1.556,0,0,0-1.6,1.745,1.561,1.561,0,0,0,1.709,1.732" transform="translate(-179.867 -17.21)" fill="#00366c" fill-rule="evenodd"/>
      <path id="Path_108558" data-name="Path 108558" d="M78.783,15.973h1.151v3.269h3.111v1.074H79.934V23.86H78.783V20.315H75.672V19.241h3.111Z" transform="translate(-54.554 -11.515)" fill="#00366c"/>
      <path id="Path_108559" data-name="Path 108559" d="M307.51,24.217a.691.691,0,1,1-.687.69.681.681,0,0,1,.687-.69Zm0,.107a.585.585,0,0,0,0,1.168.585.585,0,0,0,0-1.168Zm-.13.984h-.122v-.77a1.372,1.372,0,0,1,.218-.019.408.408,0,0,1,.239.058.186.186,0,0,1,.07.16.193.193,0,0,1-.15.188v.005c.066.013.113.074.128.188a.667.667,0,0,0,.049.19h-.128a.548.548,0,0,1-.052-.2.144.144,0,0,0-.166-.135h-.086Zm0-.426h.089c.1,0,.186-.037.186-.132,0-.067-.049-.135-.186-.135a.58.58,0,0,0-.089.006Z" transform="translate(-221.197 -17.459)" fill="#00366c"/>
    </g>
  </g>
</svg>
