<svg xmlns="http://www.w3.org/2000/svg" width="67.767" height="22.373" viewBox="0 0 67.767 22.373">
  <g id="Group_86881" data-name="Group 86881" transform="translate(7040.125 -5133.195)">
    <path id="Path_108484" data-name="Path 108484" d="M359.493,0a7.187,7.187,0,0,0-1.332.083l-2.414,4.226a7.235,7.235,0,0,1,3.746-.994,7.941,7.941,0,0,1,7.909,7.872,7.909,7.909,0,0,1-15.818.083l-2.5,4.226A11.207,11.207,0,1,0,359.493,0Z" transform="translate(-7343.007 5133.195)" fill="#bf3078"/>
    <path id="Path_108485" data-name="Path 108485" d="M171.083,11.684,173,8.369l4.329,7.375,4.995-8.535,4.995,8.535,8.575-14.5A2.486,2.486,0,0,1,198.056,0h2.414L187.317,22.373l-4.995-8.535-5,8.535-6.244-10.689Z" transform="translate(-7188.564 5133.195)" fill="#802050"/>
    <path id="Path_108486" data-name="Path 108486" d="M26.224,0,13.07,22.373,0,0H2.414A2.486,2.486,0,0,1,4.579,1.243L13.07,15.827,21.645,1.243A2.486,2.486,0,0,1,23.81,0Z" transform="translate(-7040.125 5133.195)" fill="#26134d"/>
  </g>
</svg>
