<svg id="doubleclick" xmlns="http://www.w3.org/2000/svg" xmlns:xlink="http://www.w3.org/1999/xlink" width="110.509" height="22.38" viewBox="0 0 110.509 22.38">
  <defs>
    <linearGradient id="linear-gradient" x1="0.195" y1="-2.36" x2="0.195" y2="-2.914" gradientUnits="objectBoundingBox">
      <stop offset="0" stop-opacity="0.6"/>
      <stop offset="0.6" stop-opacity="0.102"/>
    </linearGradient>
    <linearGradient id="linear-gradient-2" x1="0.083" y1="-2.909" x2="0.083" y2="-2.356" xlink:href="#linear-gradient"/>
    <linearGradient id="linear-gradient-3" x1="-0.339" y1="-6.486" x2="-0.087" y2="-7.101" gradientUnits="objectBoundingBox">
      <stop offset="0" stop-opacity="0.502"/>
      <stop offset="0.75" stop-opacity="0.031"/>
    </linearGradient>
    <linearGradient id="linear-gradient-4" x1="-0.49" y1="-11.297" x2="0.237" y2="-11.297" gradientUnits="objectBoundingBox">
      <stop offset="0" stop-opacity="0.902"/>
      <stop offset="0.6" stop-opacity="0.102"/>
    </linearGradient>
  </defs>
  <path id="Path_108578" data-name="Path 108578" d="M215.015,675.757V664.34H218.2a5.059,5.059,0,0,1,1.95.372,4.308,4.308,0,0,1,1.548,1.042,4.825,4.825,0,0,1,1.012,1.637,6.055,6.055,0,0,1,.342,2.143v1.042a6.17,6.17,0,0,1-.342,2.144,5.067,5.067,0,0,1-1.012,1.637,4.248,4.248,0,0,1-1.548,1.042,5.485,5.485,0,0,1-2.01.372H215v-.015Zm.968-10.583v9.78h2.173a4.115,4.115,0,0,0,1.667-.328,3.943,3.943,0,0,0,1.265-.878,4.156,4.156,0,0,0,.8-1.4,5.2,5.2,0,0,0,.268-1.771v-1.072a5.253,5.253,0,0,0-.3-1.8,4.016,4.016,0,0,0-.8-1.369,3.526,3.526,0,0,0-1.235-.878,3.974,3.974,0,0,0-1.608-.327H216v.045Zm8.232,6.222a4.974,4.974,0,0,1,.268-1.712,4.255,4.255,0,0,1,.774-1.369,3.411,3.411,0,0,1,1.206-.878,3.794,3.794,0,0,1,1.548-.327,3.607,3.607,0,0,1,1.578.327,3.7,3.7,0,0,1,1.206.878,3.486,3.486,0,0,1,.744,1.369,4.974,4.974,0,0,1,.268,1.712v.268a4.974,4.974,0,0,1-.268,1.712,4.83,4.83,0,0,1-.744,1.369,3.411,3.411,0,0,1-1.206.878,3.794,3.794,0,0,1-1.548.328,3.52,3.52,0,0,1-1.548-.328,3.7,3.7,0,0,1-1.206-.878,3.959,3.959,0,0,1-.774-1.369,4.973,4.973,0,0,1-.268-1.712V671.4Zm.938.268a4.488,4.488,0,0,0,.194,1.34,3.665,3.665,0,0,0,.566,1.1,2.475,2.475,0,0,0,.878.744,2.529,2.529,0,0,0,1.236.3,2.613,2.613,0,0,0,1.235-.3,2.821,2.821,0,0,0,.878-.744,4.056,4.056,0,0,0,.566-1.1,4.42,4.42,0,0,0,.193-1.34V671.4a4.3,4.3,0,0,0-.193-1.31,3.344,3.344,0,0,0-.566-1.1,2.708,2.708,0,0,0-.908-.774,2.529,2.529,0,0,0-1.235-.3,2.413,2.413,0,0,0-1.206.3,2.917,2.917,0,0,0-.878.774,4.058,4.058,0,0,0-.566,1.1,4.364,4.364,0,0,0-.194,1.31v.268Zm13.561,3.022a2.677,2.677,0,0,1-1.072.908,3.914,3.914,0,0,1-1.637.327,2.954,2.954,0,0,1-1.131-.193,1.91,1.91,0,0,1-.878-.566,2.821,2.821,0,0,1-.566-1,4.781,4.781,0,0,1-.193-1.474v-5.433h.938v5.463a3.432,3.432,0,0,0,.164,1.131,1.865,1.865,0,0,0,.432.729,1.456,1.456,0,0,0,.61.4,2.431,2.431,0,0,0,.744.1,4.039,4.039,0,0,0,1-.134,2.46,2.46,0,0,0,.744-.342,2.153,2.153,0,0,0,.506-.536,3.5,3.5,0,0,0,.327-.67v-6.133h.938v8.5h-.908Zm9.824-3.081a6.9,6.9,0,0,1-.208,1.742,3.535,3.535,0,0,1-.64,1.369,2.87,2.87,0,0,1-1.012.878,2.953,2.953,0,0,1-1.369.328,3.455,3.455,0,0,1-1.608-.342,3.144,3.144,0,0,1-1.1-.968l-.03,1.146H241.7V663.7h.938v4.793a3.155,3.155,0,0,1,1.072-1.012,3.487,3.487,0,0,1,2.977-.074,2.6,2.6,0,0,1,1.012.878,4.673,4.673,0,0,1,.64,1.369,7.392,7.392,0,0,1,.208,1.8v.164h-.015Zm-.938-.164a8.416,8.416,0,0,0-.134-1.4A3.35,3.35,0,0,0,247,668.91a2.173,2.173,0,0,0-.774-.744,2.27,2.27,0,0,0-1.131-.268,3.553,3.553,0,0,0-.938.134,2.4,2.4,0,0,0-.7.372,2.3,2.3,0,0,0-.506.566,4.349,4.349,0,0,0-.327.64v3.826a3.555,3.555,0,0,0,.372.64,2.461,2.461,0,0,0,.536.506,2.551,2.551,0,0,0,.7.342,3.286,3.286,0,0,0,.878.134,1.985,1.985,0,0,0,1.1-.268,2.314,2.314,0,0,0,.774-.744,4.3,4.3,0,0,0,.461-1.1,5.88,5.88,0,0,0,.134-1.4Zm3.513,4.317h-.938V663.7h.938Zm5.493.164a3.455,3.455,0,0,1-1.533-.327,3.659,3.659,0,0,1-1.206-.863,3.729,3.729,0,0,1-.774-1.31,4.673,4.673,0,0,1-.3-1.667v-.342a5.079,5.079,0,0,1,.3-1.771,4.015,4.015,0,0,1,.8-1.37,3.53,3.53,0,0,1,1.146-.863,3.2,3.2,0,0,1,1.4-.3,3.475,3.475,0,0,1,1.444.3,2.688,2.688,0,0,1,1.042.8,3.474,3.474,0,0,1,.64,1.235,5.724,5.724,0,0,1,.208,1.548v.566h-6.058v.193a4.164,4.164,0,0,0,.208,1.31,3.267,3.267,0,0,0,.6,1.072,3.559,3.559,0,0,0,.908.729,2.363,2.363,0,0,0,1.176.268,3,3,0,0,0,1.34-.268,3.161,3.161,0,0,0,1.042-.878l.6.461a4.388,4.388,0,0,1-.476.6,2.864,2.864,0,0,1-.64.476,4.228,4.228,0,0,1-.834.328A7.07,7.07,0,0,1,256.6,675.921Zm-.179-8.008a2.492,2.492,0,0,0-1,.208,2.356,2.356,0,0,0-.8.6,2.681,2.681,0,0,0-.566.908,4.009,4.009,0,0,0-.3,1.176h5.091v-.1a4.221,4.221,0,0,0-.164-1.042,3.094,3.094,0,0,0-.461-.878,2.242,2.242,0,0,0-.744-.61A2.057,2.057,0,0,0,256.426,667.912Zm13.263,4.287a4.721,4.721,0,0,1-.4,1.548,3.375,3.375,0,0,1-.834,1.176,3.326,3.326,0,0,1-1.265.729,5.176,5.176,0,0,1-1.682.268,4.337,4.337,0,0,1-1.771-.372,3.773,3.773,0,0,1-1.369-1.042,5.068,5.068,0,0,1-.878-1.637,6.719,6.719,0,0,1-.3-2.084v-1.444a7.251,7.251,0,0,1,.3-2.114,4.558,4.558,0,0,1,.878-1.637,3.617,3.617,0,0,1,1.369-1.042,4.446,4.446,0,0,1,1.816-.372,5.115,5.115,0,0,1,1.637.238,3.567,3.567,0,0,1,1.265.729,4.2,4.2,0,0,1,.834,1.176,5.116,5.116,0,0,1,.4,1.578h-.968a4.289,4.289,0,0,0-.327-1.236,2.5,2.5,0,0,0-.61-.908,2.821,2.821,0,0,0-.938-.566,3.8,3.8,0,0,0-1.28-.193,2.877,2.877,0,0,0-1.414.328,3.065,3.065,0,0,0-1.072.878,4.057,4.057,0,0,0-.67,1.37,6.07,6.07,0,0,0-.238,1.771v1.444a7.251,7.251,0,0,0,.208,1.742,3.534,3.534,0,0,0,.64,1.37,3.353,3.353,0,0,0,1.042.908,3.05,3.05,0,0,0,1.414.328,3.15,3.15,0,0,0,2.277-.729,3.392,3.392,0,0,0,.938-2.173h1Zm2.754,3.557H271.5V663.7h.938Zm2.307-10.926a.7.7,0,0,1,.164-.461.568.568,0,0,1,.476-.193.607.607,0,0,1,.476.193.723.723,0,0,1,.193.461.6.6,0,0,1-.193.461.671.671,0,0,1-.476.193.607.607,0,0,1-.476-.193A.731.731,0,0,1,274.75,664.831Zm1.1,10.926h-.938v-8.5h.938Zm5.225-.64a3.269,3.269,0,0,0,.863-.134,2.257,2.257,0,0,0,.729-.372,2.112,2.112,0,0,0,.536-.61,2.171,2.171,0,0,0,.238-.863h.908a3.264,3.264,0,0,1-.3,1.131,2.988,2.988,0,0,1-.729.878,4.533,4.533,0,0,1-1.012.6,3.711,3.711,0,0,1-1.235.208,3.517,3.517,0,0,1-1.578-.328,2.815,2.815,0,0,1-1.131-.908,4.243,4.243,0,0,1-.7-1.34,5.439,5.439,0,0,1-.238-1.667v-.328a5.507,5.507,0,0,1,.238-1.667,3.714,3.714,0,0,1,.7-1.34,3.424,3.424,0,0,1,1.131-.908,3.689,3.689,0,0,1,1.548-.328,3.824,3.824,0,0,1,1.265.208,2.677,2.677,0,0,1,1.012.61,3.294,3.294,0,0,1,.7.968,3.756,3.756,0,0,1,.3,1.265h-.908a3.75,3.75,0,0,0-.208-.938,2.41,2.41,0,0,0-.506-.7,2.512,2.512,0,0,0-.744-.461,2.587,2.587,0,0,0-.908-.164,2.448,2.448,0,0,0-1.236.3,2.88,2.88,0,0,0-.834.744,3.457,3.457,0,0,0-.461,1.1,5.271,5.271,0,0,0-.134,1.28v.328a7.513,7.513,0,0,0,.134,1.31,2.709,2.709,0,0,0,.461,1.1,2.019,2.019,0,0,0,.834.744A2.345,2.345,0,0,0,281.076,675.117Zm6.832-3.617-1.072,1.042v3.245H285.9V663.73h.938v7.711l.878-.968,3.245-3.185h1.176l-3.587,3.6,3.915,4.9h-1.131Z" transform="translate(-181.955 -660.053)"/>
  <path id="Path_108579" data-name="Path 108579" d="M36.773,639.2a9.188,9.188,0,0,0-2.486.327,10,10,0,0,1,7.5,9.482v.387a5.04,5.04,0,0,1-5.016,4.823,4.815,4.815,0,0,1-2.486-.67,4.974,4.974,0,0,1-2.5-4.347,5.06,5.06,0,0,1,2.486-4.347,4.855,4.855,0,0,0-2.486-.67,4.984,4.984,0,0,0-4.987,4.823v.387a9.989,9.989,0,1,0,9.973-10.2Z" transform="translate(-21.769 -639.2)" fill="#369647"/>
  <path id="Path_108580" data-name="Path 108580" d="M12.991,649.009a9.948,9.948,0,0,0-7.5-9.482A9.9,9.9,0,0,0,3,639.2a10,10,0,1,0-.015,19.991,9.186,9.186,0,0,0,2.486-.328A9.982,9.982,0,0,1-2,649.381v-.387a5.013,5.013,0,0,1,4.987-4.823,4.815,4.815,0,0,1,2.486.67,4.961,4.961,0,0,1,2.486,4.346,5.06,5.06,0,0,1-2.486,4.347,5.327,5.327,0,0,0,2.516.67,4.984,4.984,0,0,0,4.987-4.823v-.193A.667.667,0,0,0,12.991,649.009Z" transform="translate(7 -639.2)" fill="#aeea00"/>
  <path id="Path_108581" data-name="Path 108581" d="M12.991,649.009a9.948,9.948,0,0,0-7.5-9.482A9.9,9.9,0,0,0,3,639.2a10,10,0,1,0-.015,19.991,9.186,9.186,0,0,0,2.486-.328A9.982,9.982,0,0,1-2,649.381v-.387a5.013,5.013,0,0,1,4.987-4.823,4.815,4.815,0,0,1,2.486.67,4.961,4.961,0,0,1,2.486,4.346,5.06,5.06,0,0,1-2.486,4.347,5.327,5.327,0,0,0,2.516.67,4.984,4.984,0,0,0,4.987-4.823v-.193A.667.667,0,0,0,12.991,649.009Z" transform="translate(7 -639.2)" opacity="0.15" fill="url(#linear-gradient)"/>
  <path id="Path_108582" data-name="Path 108582" d="M36.773,639.2a9.188,9.188,0,0,0-2.486.327,10,10,0,0,1,7.5,9.482v.387a5.04,5.04,0,0,1-5.016,4.823,4.815,4.815,0,0,1-2.486-.67,4.974,4.974,0,0,1-2.5-4.347,5.06,5.06,0,0,1,2.486-4.347,4.855,4.855,0,0,0-2.486-.67,4.984,4.984,0,0,0-4.987,4.823v.387a9.989,9.989,0,1,0,9.973-10.2Z" transform="translate(-21.769 -639.2)" opacity="0.15" fill="url(#linear-gradient-2)"/>
  <path id="Path_108583" data-name="Path 108583" d="M34.172,717.012A9.982,9.982,0,0,1,26.7,707.53v.045a14.54,14.54,0,0,0,3.617,9.675,10.6,10.6,0,0,0,1.369.1A11.252,11.252,0,0,0,34.172,717.012Z" transform="translate(-21.684 -697.333)" opacity="0.4" fill="url(#linear-gradient-3)"/>
  <path id="Path_108584" data-name="Path 108584" d="M26.822,677.723a4.955,4.955,0,0,1,6.088-3.349,1.806,1.806,0,0,0,.268.074,5.2,5.2,0,0,1,1.1-.878,4.854,4.854,0,0,0-2.486-.67,4.961,4.961,0,0,0-4.972,4.823l-.015.164A.16.16,0,0,1,26.822,677.723Z" transform="translate(-21.761 -667.884)" opacity="0.25" fill="url(#linear-gradient-4)"/>
  <path id="Path_108585" data-name="Path 108585" d="M764.733,722.141a2.022,2.022,0,0,1-.074.536,1.541,1.541,0,0,1-.193.417,1,1,0,0,1-.327.283.972.972,0,0,1-.432.1.994.994,0,0,1-.447-.089.932.932,0,0,1-.328-.268l-.015.3H762.5V719.7h.447v1.384a1.02,1.02,0,0,1,.313-.253.972.972,0,0,1,.432-.089.807.807,0,0,1,.432.1.689.689,0,0,1,.313.268,1.2,1.2,0,0,1,.194.417,2.058,2.058,0,0,1,.074.551v.06Zm-.446-.045a2.9,2.9,0,0,0-.03-.372.779.779,0,0,0-.119-.3.56.56,0,0,0-.208-.208.709.709,0,0,0-.328-.074.9.9,0,0,0-.223.03.5.5,0,0,0-.179.089.384.384,0,0,0-.134.134.614.614,0,0,0-.1.164v1.131a.614.614,0,0,0,.1.164l.134.134a1,1,0,0,0,.179.089.9.9,0,0,0,.223.03.692.692,0,0,0,.313-.074.56.56,0,0,0,.208-.208,1.04,1.04,0,0,0,.119-.3,1.5,1.5,0,0,0,.045-.372Zm1.8.67.61-1.965h.476l-1.057,3.037c-.03.06-.06.134-.089.208a1.056,1.056,0,0,1-.149.208.868.868,0,0,1-.223.164.69.69,0,0,1-.312.06h-.06a.134.134,0,0,1-.074-.015c-.03,0-.045-.015-.074-.015s-.03-.015-.045-.015v-.357h.119a.916.916,0,0,0,.208-.015.466.466,0,0,0,.149-.074.352.352,0,0,0,.119-.134,1.455,1.455,0,0,0,.089-.208l.1-.268-.938-2.59h.491Zm5.4.194a1.1,1.1,0,0,1-.134.164.745.745,0,0,1-.238.164q-.156.067-.357.134a2.481,2.481,0,0,1-.506.06,1.575,1.575,0,0,1-.6-.119,1.14,1.14,0,0,1-.461-.327,1.292,1.292,0,0,1-.3-.521,2.124,2.124,0,0,1-.1-.715v-.283a2.423,2.423,0,0,1,.089-.7,1.327,1.327,0,0,1,.268-.521,1.091,1.091,0,0,1,.447-.328,1.537,1.537,0,0,1,.61-.119,1.943,1.943,0,0,1,.536.074,1.387,1.387,0,0,1,.387.223.978.978,0,0,1,.253.342,2.074,2.074,0,0,1,.134.432h-.461a.947.947,0,0,0-.089-.268.623.623,0,0,0-.164-.223.8.8,0,0,0-.238-.149,1.172,1.172,0,0,0-.342-.06.972.972,0,0,0-.432.089.821.821,0,0,0-.3.253,1.429,1.429,0,0,0-.179.4,2.042,2.042,0,0,0-.06.536v.283a2.053,2.053,0,0,0,.074.551,1.045,1.045,0,0,0,.521.655.952.952,0,0,0,.417.089,2.051,2.051,0,0,0,.328-.03,2.3,2.3,0,0,0,.223-.06,1.3,1.3,0,0,0,.149-.089.253.253,0,0,0,.089-.089v-.789h-.819v-.372h1.28v1.31Zm.417-.878a1.557,1.557,0,0,1,.089-.536,1.27,1.27,0,0,1,.238-.417,1.174,1.174,0,0,1,.372-.283,1.078,1.078,0,0,1,.491-.1,1.1,1.1,0,0,1,.506.1,1.174,1.174,0,0,1,.372.283,1.442,1.442,0,0,1,.238.417,1.556,1.556,0,0,1,.089.536v.06a1.556,1.556,0,0,1-.089.536,1.271,1.271,0,0,1-.238.417,1.176,1.176,0,0,1-.372.283,1.078,1.078,0,0,1-.491.1,1.037,1.037,0,0,1-.491-.1,1.371,1.371,0,0,1-.372-.283,1.273,1.273,0,0,1-.238-.417,1.557,1.557,0,0,1-.089-.536v-.06Zm.447.06a1.5,1.5,0,0,0,.045.372.993.993,0,0,0,.134.313.542.542,0,0,0,.238.208.758.758,0,0,0,.655,0,.638.638,0,0,0,.238-.208.993.993,0,0,0,.134-.313,1.5,1.5,0,0,0,.045-.372v-.06a1.5,1.5,0,0,0-.045-.372.994.994,0,0,0-.134-.313.541.541,0,0,0-.238-.208.593.593,0,0,0-.327-.074.809.809,0,0,0-.327.074,1.042,1.042,0,0,0-.238.208.994.994,0,0,0-.134.313,1.5,1.5,0,0,0-.045.372Zm2.382-.06a1.556,1.556,0,0,1,.089-.536,1.269,1.269,0,0,1,.238-.417,1.174,1.174,0,0,1,.372-.283,1.078,1.078,0,0,1,.491-.1,1.142,1.142,0,0,1,.506.1,1.174,1.174,0,0,1,.372.283,1.441,1.441,0,0,1,.238.417,1.556,1.556,0,0,1,.089.536v.06a1.556,1.556,0,0,1-.089.536,1.27,1.27,0,0,1-.238.417,1.175,1.175,0,0,1-.372.283,1.078,1.078,0,0,1-.491.1,1.038,1.038,0,0,1-.491-.1,1.175,1.175,0,0,1-.372-.283,1.271,1.271,0,0,1-.238-.417,1.556,1.556,0,0,1-.089-.536v-.06Zm.446.06a1.5,1.5,0,0,0,.045.372.99.99,0,0,0,.134.313.542.542,0,0,0,.238.208.758.758,0,0,0,.655,0,.638.638,0,0,0,.238-.208.992.992,0,0,0,.134-.313,1.5,1.5,0,0,0,.045-.372v-.06a1.5,1.5,0,0,0-.045-.372.993.993,0,0,0-.134-.313.542.542,0,0,0-.238-.208.593.593,0,0,0-.327-.074.81.81,0,0,0-.328.074,1.042,1.042,0,0,0-.238.208.991.991,0,0,0-.134.313,1.5,1.5,0,0,0-.045.372Zm2.382-.045a2.143,2.143,0,0,1,.074-.551,1.218,1.218,0,0,1,.208-.417.816.816,0,0,1,.328-.268,1.025,1.025,0,0,1,.432-.1.972.972,0,0,1,.432.089,1.021,1.021,0,0,1,.313.253l.015-.3h.417v2.575a1.428,1.428,0,0,1-.074.461,1.135,1.135,0,0,1-.223.342,1.073,1.073,0,0,1-.357.208,1.4,1.4,0,0,1-.447.074,1.5,1.5,0,0,1-.238-.03,1.807,1.807,0,0,1-.268-.074.829.829,0,0,1-.253-.134.748.748,0,0,1-.208-.223l.238-.268a1.674,1.674,0,0,0,.164.164,1.106,1.106,0,0,0,.179.1.843.843,0,0,0,.179.06.722.722,0,0,0,.179.015.866.866,0,0,0,.283-.045.537.537,0,0,0,.357-.357.959.959,0,0,0,.045-.3v-.223a.761.761,0,0,1-.313.223.947.947,0,0,1-.417.074.844.844,0,0,1-.432-.1.855.855,0,0,1-.328-.283,1.219,1.219,0,0,1-.208-.417A2.055,2.055,0,0,1,777.564,722.1Zm.447.045a1.5,1.5,0,0,0,.045.372,1.124,1.124,0,0,0,.119.3.922.922,0,0,0,.208.208.692.692,0,0,0,.313.074.878.878,0,0,0,.208-.03.915.915,0,0,0,.179-.074.969.969,0,0,0,.134-.119.907.907,0,0,0,.1-.149v-1.191a.535.535,0,0,0-.1-.149.965.965,0,0,0-.134-.119.548.548,0,0,0-.164-.074.875.875,0,0,0-.208-.03.693.693,0,0,0-.313.074.6.6,0,0,0-.223.208.737.737,0,0,0-.119.3,1.5,1.5,0,0,0-.045.372Zm2.843,1.28h-.447V719.7h.447Zm1.816.045a1.312,1.312,0,0,1-.491-.089.955.955,0,0,1-.372-.268,1.106,1.106,0,0,1-.238-.4,1.392,1.392,0,0,1-.089-.506v-.1a1.672,1.672,0,0,1,.089-.566,1.377,1.377,0,0,1,.253-.432.956.956,0,0,1,.372-.268,1.068,1.068,0,0,1,.432-.089,1.037,1.037,0,0,1,.491.1.861.861,0,0,1,.342.268,1.255,1.255,0,0,1,.193.4,1.886,1.886,0,0,1,.06.506v.208H781.94a1.269,1.269,0,0,0,.06.342.78.78,0,0,0,.149.268.91.91,0,0,0,.238.179.758.758,0,0,0,.328.074.674.674,0,0,0,.4-.1.914.914,0,0,0,.283-.253l.268.208a1.684,1.684,0,0,1-.149.194,1.124,1.124,0,0,1-.208.164,1.463,1.463,0,0,1-.268.119A1.683,1.683,0,0,1,782.67,723.466Zm-.06-2.352a.7.7,0,0,0-.253.045.494.494,0,0,0-.208.149.926.926,0,0,0-.149.238,1.058,1.058,0,0,0-.074.327h1.31v-.03a.693.693,0,0,0-.045-.253.779.779,0,0,0-.1-.223.519.519,0,0,0-.194-.164A.429.429,0,0,0,782.61,721.114Z" transform="translate(-729.454 -702.098)"/>
</svg>
