<svg id="Google" xmlns="http://www.w3.org/2000/svg" width="119.636" height="39.382" viewBox="0 0 119.636 39.382">
  <path id="Path_108572" data-name="Path 108572" d="M90.634,34.371a9.872,9.872,0,1,1-9.872-9.841A9.72,9.72,0,0,1,90.634,34.371Zm-4.322,0a5.565,5.565,0,1,0-11.1,0,5.565,5.565,0,1,0,11.1,0Z" transform="translate(-39.437 -13.646)" fill="#ea4335"/>
  <path id="Path_108573" data-name="Path 108573" d="M138.634,34.371a9.872,9.872,0,1,1-9.872-9.841A9.72,9.72,0,0,1,138.634,34.371Zm-4.322,0a5.565,5.565,0,1,0-11.1,0,5.565,5.565,0,1,0,11.1,0Z" transform="translate(-66.14 -13.646)" fill="#fbbc05"/>
  <path id="Path_108574" data-name="Path 108574" d="M185.736,25.125V42.792c0,7.268-4.286,10.236-9.353,10.236a9.371,9.371,0,0,1-8.723-5.8l3.762-1.566a5.436,5.436,0,0,0,4.956,3.492c3.243,0,5.253-2,5.253-5.768V41.971h-.151a6.7,6.7,0,0,1-5.182,2.236,9.848,9.848,0,0,1,0-19.677,6.82,6.82,0,0,1,5.182,2.2h.151v-1.6h4.1Zm-3.8,9.282c0-3.465-2.312-6-5.253-6a5.69,5.69,0,0,0-5.48,6,5.648,5.648,0,0,0,5.48,5.928C179.626,40.334,181.938,37.836,181.938,34.406Z" transform="translate(-92.832 -13.646)" fill="#4285f4"/>
  <path id="Path_108575" data-name="Path 108575" d="M219.355,2.53V31.37H215.14V2.53Z" transform="translate(-119.685 -1.407)" fill="#34a853"/>
  <path id="Path_108576" data-name="Path 108576" d="M243.341,37.6l3.354,2.236a9.8,9.8,0,0,1-8.2,4.361,9.629,9.629,0,0,1-9.766-9.841c0-5.852,4.211-9.841,9.282-9.841,5.107,0,7.6,4.064,8.421,6.26l.448,1.118-13.155,5.448a5.008,5.008,0,0,0,4.77,2.982A5.616,5.616,0,0,0,243.341,37.6Zm-10.325-3.541,8.794-3.652a3.81,3.81,0,0,0-3.652-2.085A5.4,5.4,0,0,0,233.016,34.064Z" transform="translate(-127.246 -13.641)" fill="#ea4335"/>
  <path id="Path_108577" data-name="Path 108577" d="M15.5,18.165V13.989H29.567a13.834,13.834,0,0,1,.209,2.52,13.788,13.788,0,0,1-3.616,9.766A13.973,13.973,0,0,1,15.5,30.561,15.5,15.5,0,0,1,0,15.281,15.5,15.5,0,0,1,15.5,0,14.56,14.56,0,0,1,25.973,4.211L23.027,7.157A10.642,10.642,0,0,0,15.5,4.175,10.961,10.961,0,0,0,4.539,15.281,10.961,10.961,0,0,0,15.5,26.386a10.223,10.223,0,0,0,7.716-3.057,8.654,8.654,0,0,0,2.263-5.169Z" fill="#4285f4"/>
</svg>
