<svg xmlns="http://www.w3.org/2000/svg" width="55.699" height="55.699" viewBox="0 0 55.699 55.699">
  <path id="linkedin" d="M177.554,3.979V51.721a3.978,3.978,0,0,1-3.979,3.979H125.833a3.978,3.978,0,0,1-3.979-3.979V3.979A3.978,3.978,0,0,1,125.833,0h47.742A3.978,3.978,0,0,1,177.554,3.979ZM137.768,19.893h-7.957V47.742h7.957Zm.995-7.957a4.973,4.973,0,1,0-4.973,4.973A4.973,4.973,0,0,0,138.763,11.936ZM169.6,32.982c0-8.753-2.9-13.885-11.378-13.885a10.782,10.782,0,0,0-8.952,4.774V19.893h-7.519V47.742H149.7V34.732a6.923,6.923,0,0,1,6.6-7.679c4.615,0,5.331,4.536,5.331,7.679v13.01H169.6Z" transform="translate(-121.854)" fill="#0a66c2"/>
</svg>
