<svg xmlns="http://www.w3.org/2000/svg" width="101.987" height="29.491" viewBox="0 0 101.987 29.491">
  <path id="moz" d="M107.75,253.949l14.737-15.978H91.636a1.119,1.119,0,0,0-1.088,1.088v3.366c-2.822-4.827-8.635-8.125-15.366-8.125-7.938,0-14.618,4.623-16.59,10.9v-7.207H53.2a4.54,4.54,0,0,0-3.213,1.445L39.555,250.89,29.1,239.433a4.473,4.473,0,0,0-3.213-1.445H20.5v23.338h6.289a1.149,1.149,0,0,0,1.088-1.122V249.037l11.677,12.9,11.677-12.9V260.2a1.177,1.177,0,0,0,1.1,1.122h6.255V252.9c1.972,6.272,8.652,10.9,16.59,10.9,9.5,0,17.2-6.6,17.2-14.737a12.757,12.757,0,0,0-.561-3.689h13.462L90.548,261.344h30.834a1.146,1.146,0,0,0,1.1-1.088v-6.289H107.75Zm-32.517,2.414c-4.623,0-8.38-3.281-8.38-7.326s3.757-7.326,8.38-7.326,8.38,3.281,8.38,7.326S79.873,256.363,75.233,256.363Z" transform="translate(-20.5 -234.3)" fill="#4dbdeb"/>
</svg>
