<svg id="drupal" xmlns="http://www.w3.org/2000/svg" width="54.305" height="62.664" viewBox="0 0 54.305 62.664">
  <path id="Path_108377" data-name="Path 108377" d="M18.773,10.786C7.809,15.443.909,24.575.909,36.308a27.152,27.152,0,0,0,54.3,0c0-18.03-16.752-25.2-16.752-25.2a42.521,42.521,0,0,1-5.7-2.883s-2.585-1.58-7.09-7.395a11.5,11.5,0,0,1-6.9,9.954" transform="translate(-0.909 -0.797)" fill="#136da9"/>
  <path id="Path_108378" data-name="Path 108378" d="M113.742,262.337c-.954-.663-.727-2.773,1.857-1.266,0,0,5.5,4.041,14.215-.807.677-.377,1.508.953-.646,2.172,0,0-8.8,4.5-15.426-.1Z" transform="translate(-89.306 -204.929)" fill="#f0f0f0"/>
  <path id="Path_108379" data-name="Path 108379" d="M113.742,262.337c-.954-.663-.727-2.773,1.857-1.266,0,0,5.5,4.041,14.215-.807.677-.377,1.508.953-.646,2.172,0,0-8.8,4.5-15.426-.1Z" transform="translate(-89.306 -204.929)" fill="none" stroke="#fffdff" stroke-width="1"/>
  <path id="Path_108380" data-name="Path 108380" d="M146.537,232.274c3.2.375,2.1,1.916,2.962,2.153,1.75.485,1-1.427,1-1.427a3.886,3.886,0,0,0-3.527-2.423c-3.5-.539-6.111,2.8-6.111,2.8-.646,1.427.258,1.5.592,1.346,1.7-.781,2.728-2.727,5.088-2.45Z" transform="translate(-110.875 -181.57)" fill="#f0f0f0"/>
  <path id="Path_108381" data-name="Path 108381" d="M146.537,232.274c3.2.375,2.1,1.916,2.962,2.153,1.75.485,1-1.427,1-1.427a3.886,3.886,0,0,0-3.527-2.423c-3.5-.539-6.111,2.8-6.111,2.8-.646,1.427.258,1.5.592,1.346,1.7-.781,2.728-2.727,5.088-2.45Z" transform="translate(-110.875 -181.57)" fill="none" stroke="#fffdff" stroke-width="1"/>
  <path id="Path_108382" data-name="Path 108382" d="M4.814,50.625s9.736,8.055,33.427-9.89c0,0,11.9-7.47,11.541-20.279a27.342,27.342,0,0,0-10.348-8.388c-.924-.406-9.044-4.837-13.429-10.393,0,0-.795,16.118-21.438,22.481,0,0-5.2,7.672-2.366,20.142a60.316,60.316,0,0,0,2.613,6.326" transform="translate(-1.26 -1.46)" fill="#008ece"/>
  <path id="Path_108383" data-name="Path 108383" d="M63.549,185.528s-8.077.215-7.107-8.4c0,0,1.687-9.692,13.03-7.538,0,0,2.477.538,7.108,4.092,0,0,3.056,2.356,4.738,2.311,0,0,1.306.125,4.021-1.593,0,0,5.537-4.272,7.472-4.146.048,0,3.907-.422,3.907,5.8,0,0,.072,6.856-5.1,9.154a2.844,2.844,0,0,1-2.836-1.077s-4.236-4.81-6.318-5.6a4.252,4.252,0,0,0-2.8.108s-1.041.108-5.312,2.943c0,0-7.18,4.487-10.805,3.949Z" transform="translate(-44.552 -133.37)" fill="#f0f0f0"/>
  <path id="Path_108384" data-name="Path 108384" d="M63.549,185.528s-8.077.215-7.107-8.4c0,0,1.687-9.692,13.03-7.538,0,0,2.477.538,7.108,4.092,0,0,3.056,2.356,4.738,2.311,0,0,1.306.125,4.021-1.593,0,0,5.537-4.272,7.472-4.146.048,0,3.907-.422,3.907,5.8,0,0,.072,6.856-5.1,9.154a2.844,2.844,0,0,1-2.836-1.077s-4.236-4.81-6.318-5.6a4.252,4.252,0,0,0-2.8.108s-1.041.108-5.312,2.943c0,0-7.18,4.487-10.805,3.949Z" transform="translate(-44.552 -133.37)" fill="none" stroke="#fffdff" stroke-width="1"/>
  <path id="Path_108385" data-name="Path 108385" d="M36.4,21.915C41.629,14.425,37.877.664,37.877.664a11.533,11.533,0,0,1-6.761,9.93C19.838,15.463,16.439,23.145,16.439,23.145c2.417,3.428,8.833,14.708,19.962-1.23" transform="translate(-13.132 -0.664)" fill="#008ece"/>
  <path id="Path_108386" data-name="Path 108386" d="M39.705.664s.677,6.282-2.733,8.328c0,0-5.469,2.546-7.138,3.38,0,0-7.023,4.239-9.338,8.223,0,0-4.954,6.629,1.885,5.062,0,0,12.366-3.491,17.392-14.027a1.828,1.828,0,0,0-.647-1.8s3.77-2.845.58-9.163" transform="translate(-14.96 -0.664)" fill="#a0d8f1"/>
  <path id="Path_108387" data-name="Path 108387" d="M41.317.664a10.961,10.961,0,0,1-3.279,7.844s-1.069,1.507-6.593,3.864c0,0-6.323,3.3-9.157,7.868,0,0-4.2,5.068,1.56,3.709,0,0,11.672-4.3,15.949-12.2a1.294,1.294,0,0,0-.3-1.685s4.187-3.27,1.823-9.4" transform="translate(-16.572 -0.664)" fill="#f0f0f0"/>
</svg>
