<svg id="html5" xmlns="http://www.w3.org/2000/svg" width="43.662" height="61.467" viewBox="0 0 43.662 61.467">
  <g id="Group_37481" data-name="Group 37481" transform="translate(4.126)">
    <g id="Group_37480" data-name="Group 37480">
      <g id="Group_37479" data-name="Group 37479">
        <path id="Path_108388" data-name="Path 108388" d="M108.382,0h2.77V2.737h2.534V0h2.771V8.289h-2.77V5.513h-2.534V8.289h-2.77V0Z" transform="translate(-108.382)"/>
        <path id="Path_108389" data-name="Path 108389" d="M188.117,2.749h-2.439V0h7.65V2.749h-2.44v5.54h-2.771V2.749Z" transform="translate(-176.398)"/>
        <path id="Path_108390" data-name="Path 108390" d="M259.511,0H262.4l1.777,2.912L265.952,0h2.89V8.289h-2.759V4.18l-1.906,2.947h-.048L262.222,4.18V8.289h-2.711Z" transform="translate(-241.367)"/>
        <path id="Path_108391" data-name="Path 108391" d="M348.72,0h2.771V5.549h3.9v2.74H348.72Z" transform="translate(-319.867)"/>
      </g>
    </g>
  </g>
  <g id="Guides_to_delete" transform="translate(0 11.921)">
    <g id="Group_37483" data-name="Group 37483">
      <path id="Path_108392" data-name="Path 108392" d="M77.987,143.888,74.012,99.3h43.662l-3.98,44.595-17.862,4.952Z" transform="translate(-74.012 -99.297)" fill="#e34e26"/>
      <path id="Path_108393" data-name="Path 108393" d="M255.857,129.657v42.114l14.443-4,3.4-38.11Z" transform="translate(-234.026 -126.012)" fill="#ef662a"/>
      <path id="Path_108394" data-name="Path 108394" d="M141.761,175.217l1.474,16.539h18.956l-.636,7.094-6.1,1.65-6.092-1.648-.407-4.555h-5.49l.785,8.78,11.2,3.111,11.217-3.111,1.5-16.79H148.237l-.5-5.6h20.929l.49-5.47Z" transform="translate(-133.628 -166.103)" fill="#fff"/>
      <g id="Group_37482" data-name="Group 37482" transform="translate(8.133 9.114)">
        <path id="Path_108395" data-name="Path 108395" d="M155.459,175.217h-13.7l1.474,16.539h12.223v-5.468h-7.221l-.5-5.6h7.722Z" transform="translate(-141.761 -175.217)" fill="#ebebeb"/>
        <path id="Path_108396" data-name="Path 108396" d="M167.933,340.346l-.007,0-6.092-1.648-.407-4.555h-5.49l.785,8.78,11.2,3.111.008,0Z" transform="translate(-154.235 -315.066)" fill="#ebebeb"/>
      </g>
    </g>
  </g>
</svg>
