<svg xmlns="http://www.w3.org/2000/svg" width="65.441" height="67.37" viewBox="0 0 65.441 67.37">
  <g id="laravel" transform="translate(0 0.001)">
    <path id="Path_108563" data-name="Path 108563" d="M65.4,15.24a1.057,1.057,0,0,1,.037.275V29.976a1.057,1.057,0,0,1-.528.915L52.774,37.878v13.85a1.057,1.057,0,0,1-.528.915L26.911,67.228a1.133,1.133,0,0,1-.184.077c-.024.008-.046.022-.071.029a1.061,1.061,0,0,1-.541,0c-.029-.008-.053-.024-.083-.034a1.1,1.1,0,0,1-.174-.071L.528,52.643A1.057,1.057,0,0,1,0,51.729V8.349a1.078,1.078,0,0,1,.037-.277c.008-.03.026-.058.037-.088A1.039,1.039,0,0,1,.141,7.82a.986.986,0,0,1,.07-.1A1.074,1.074,0,0,1,.3,7.6a1.029,1.029,0,0,1,.106-.079.86.86,0,0,1,.118-.091h0L13.194.141a1.057,1.057,0,0,1,1.057,0L26.916,7.433h0a1.293,1.293,0,0,1,.116.09,1.247,1.247,0,0,1,.1.079,1.232,1.232,0,0,1,.1.124.972.972,0,0,1,.071.094,1.1,1.1,0,0,1,.069.163c.011.03.029.058.037.09a1.066,1.066,0,0,1,.037.275v27.1L38,29.366V15.514a1.065,1.065,0,0,1,.037-.274c.009-.032.026-.059.037-.09a1.187,1.187,0,0,1,.069-.163,1.12,1.12,0,0,1,.071-.094,1.085,1.085,0,0,1,.1-.123,1.011,1.011,0,0,1,.1-.079,1.063,1.063,0,0,1,.116-.091h0L51.193,7.308a1.057,1.057,0,0,1,1.057,0L64.915,14.6a1.163,1.163,0,0,1,.118.09c.033.026.071.05.1.079a1.234,1.234,0,0,1,.1.124.8.8,0,0,1,.071.094,1.046,1.046,0,0,1,.069.163.754.754,0,0,1,.034.09ZM63.33,29.366V17.341L58.9,19.893l-6.124,3.526V35.443l10.557-6.077ZM50.664,51.119V39.086l-6.024,3.44-17.2,9.816V64.488ZM2.114,10.172V51.119L25.333,64.488V52.343L13.2,45.478h-.009l-.211-.163v0a1,1,0,0,1-.087-.111,1.126,1.126,0,0,1-.079-.1v0a.841.841,0,0,1-.053-.132.78.78,0,0,1-.05-.118h0a1.009,1.009,0,0,1-.021-.154.914.914,0,0,1-.016-.118V16.249l-6.13-3.527-4.43-2.549Zm11.609-7.9L3.171,8.349l10.55,6.077L24.272,8.349,13.72,2.272ZM19.21,40.182l6.122-3.524V10.172L20.9,12.724l-6.124,3.525V42.735ZM51.72,9.441,41.169,15.518,51.72,21.6l10.55-6.077ZM50.663,23.418l-6.122-3.525-4.433-2.551V29.366L46.23,32.89l4.434,2.553Zm-24.278,27.1,15.477-8.835L49.6,37.268,39.055,31.2l-12.14,6.989-11.062,6.37Z" transform="translate(0 0)" fill="#ff2d20"/>
  </g>
</svg>
