<svg id="mysql" xmlns="http://www.w3.org/2000/svg" width="92.891" height="48.229" viewBox="0 0 92.891 48.229">
  <path id="Path_108482" data-name="Path 108482" d="M.323,45.623H3.388V33.479L8.175,44.067a2.612,2.612,0,0,0,2.83,1.744,2.59,2.59,0,0,0,2.8-1.744L18.57,33.479V45.623h3.089V33.479A1.857,1.857,0,0,0,20.2,31.427c-2.334-.707-3.891-.094-4.6,1.485l-4.692,10.47L6.379,32.912c-.684-1.579-2.264-2.192-4.622-1.485A1.859,1.859,0,0,0,.318,33.479V45.623Zm23.888-9.88H27.3v6.674c-.023.377.118,1.226,1.8,1.249.872.024,6.65,0,6.7,0V35.7h3.089V46.613c0,2.688-3.33,3.277-4.881,3.3H24.287V47.864h9.739c1.981-.212,1.745-1.2,1.745-1.533v-.8H29.238c-3.042-.024-5-1.368-5.022-2.9V35.742Zm66.262-7.735a10.9,10.9,0,0,0-4.575.661c-.353.143-.92.143-.966.59.189.188.211.495.377.755a5.507,5.507,0,0,0,1.226,1.438c.5.378.991.755,1.509,1.085.92.566,1.957.9,2.853,1.462.519.33,1.037.755,1.556,1.109.264.189.424.5.755.613v-.071c-.165-.211-.212-.518-.377-.755-.236-.235-.472-.448-.708-.683a11.159,11.159,0,0,0-2.452-2.381c-.755-.519-2.4-1.226-2.711-2.1l-.047-.048A9.637,9.637,0,0,0,88.54,29.3c.8-.211,1.533-.165,2.357-.377.378-.1.755-.212,1.133-.33v-.211c-.424-.424-.731-.99-1.179-1.391a31.436,31.436,0,0,0-3.891-2.9c-.731-.471-1.674-.779-2.452-1.179-.284-.142-.755-.212-.92-.448a9.439,9.439,0,0,1-.967-1.816c-.683-1.3-1.344-2.735-1.933-4.1a25.306,25.306,0,0,0-1.2-2.688,23.772,23.772,0,0,0-9.126-8.819,11.333,11.333,0,0,0-3.013-.967l-1.768-.1a9.308,9.308,0,0,1-1.085-.826c-1.344-.849-4.811-2.688-5.8-.259-.637,1.533.943,3.042,1.48,3.82a11.135,11.135,0,0,1,1.2,1.768c.159.4.211.826.377,1.25a28.235,28.235,0,0,0,1.226,3.161,11.93,11.93,0,0,0,.872,1.462c.189.259.519.377.589.8a6.733,6.733,0,0,0-.542,1.769,10.385,10.385,0,0,0,.683,7.922c.378.589,1.268,1.887,2.477,1.391,1.061-.424.824-1.768,1.131-2.948.071-.283.024-.471.165-.661v.048l.967,1.957A13.482,13.482,0,0,0,72.385,27.8c.566.424,1.014,1.156,1.721,1.415v-.071h-.047a2.624,2.624,0,0,0-.543-.471,11.485,11.485,0,0,1-1.226-1.415,30.392,30.392,0,0,1-2.64-4.292c-.378-.731-.708-1.533-1.014-2.264-.143-.283-.143-.708-.378-.849a8.9,8.9,0,0,0-1.133,1.6,13.273,13.273,0,0,0-.66,3.561c-.1.024-.053,0-.1.048-.754-.188-1.014-.967-1.3-1.627a10.2,10.2,0,0,1-.212-6.3c.165-.5.873-2.052.59-2.523-.143-.448-.613-.707-.873-1.061a9.527,9.527,0,0,1-.848-1.509c-.566-1.321-.848-2.783-1.462-4.1a12.594,12.594,0,0,0-1.18-1.815,11.707,11.707,0,0,1-1.3-1.839c-.118-.259-.283-.684-.094-.967a.376.376,0,0,1,.329-.307c.307-.259,1.18.071,1.486.211A12.082,12.082,0,0,1,63.848,4.4c.33.236.684.684,1.109.8h.5c.755.165,1.6.048,2.31.259a15.1,15.1,0,0,1,3.4,1.628,20.915,20.915,0,0,1,7.357,8.065c.283.542.4,1.037.661,1.6.5,1.156,1.109,2.334,1.6,3.467a15.546,15.546,0,0,0,1.674,3.161c.354.5,1.768.754,2.4,1.014a16.718,16.718,0,0,1,1.628.661c.8.5,1.6,1.061,2.357,1.6.377.282,1.556.872,1.627,1.342ZM66.425,7.516a3.747,3.747,0,0,0-.966.118v.048h.047a7.611,7.611,0,0,0,.755.967L66.8,9.781l.047-.048a1.33,1.33,0,0,0,.5-1.179,5.249,5.249,0,0,1-.283-.5c-.142-.236-.448-.354-.637-.542Z" transform="translate(-0.318 -1.685)" fill="#00678c" fill-rule="evenodd"/>
  <path id="Path_108483" data-name="Path 108483" d="M3.212,17.984h8.866a6.728,6.728,0,0,0,2.83-.589c1.344-.613,1.981-1.438,1.981-2.523V12.608c0-.872-.731-1.7-2.192-2.264A7.72,7.72,0,0,0,12.078,9.9H8.352c-1.25,0-1.839-.378-2-1.2a1.162,1.162,0,0,1-.023-.283V7.02a1.065,1.065,0,0,1,.023-.259c.165-.637.5-.8,1.586-.92h9.078V3.789H8.381a7.981,7.981,0,0,0-2.5.26C4.065,4.614,3.263,5.511,3.263,7.09V8.883c0,1.39,1.556,2.57,4.2,2.853.283.024.589.024.9.024H11.54a1.429,1.429,0,0,1,.329.024c.967.094,1.392.259,1.674.612a.717.717,0,0,1,.236.567v1.792a1.048,1.048,0,0,1-.424.731,2.2,2.2,0,0,1-1.321.424c-.118,0-.188.024-.307.024H3.212Zm32.871-3.56c0,2.1,1.586,3.277,4.741,3.514.307.024.589.047.9.047h8.018V15.933H41.649c-1.793,0-2.477-.448-2.477-1.533V3.789h-3.1V14.424Zm-17.238.094V7.208c0-1.863,1.32-3,3.891-3.349.283-.024.566-.048.824-.048h5.848c.307,0,.567.024.873.048,2.57.353,3.867,1.485,3.867,3.349v7.309a2.691,2.691,0,0,1-1.816,2.854l3.018,2.735H31.79L29.338,17.89l-2.477.142h-3.3a7.22,7.22,0,0,1-1.792-.235c-1.956-.543-2.923-1.58-2.923-3.279Zm3.324-.164a2.655,2.655,0,0,0,.071.307c.165.848.966,1.32,2.192,1.32h2.783L24.67,13.669h3.56L30.47,15.7a1.474,1.474,0,0,0,.779-.991,1.329,1.329,0,0,0,.024-.307v-7a1.141,1.141,0,0,0-.024-.283c-.165-.8-.966-1.249-2.169-1.249H24.434c-1.368,0-2.264.589-2.264,1.532Z" transform="translate(37.707 25.954)" fill="#ce8b2c" fill-rule="evenodd"/>
</svg>
