<svg id="node_js" data-name="node js" xmlns="http://www.w3.org/2000/svg" xmlns:xlink="http://www.w3.org/1999/xlink" width="83.288" height="51.01" viewBox="0 0 83.288 51.01">
  <defs>
    <clipPath id="clip-path">
      <path id="Path_108496" data-name="Path 108496" d="M202.765,226.053l-7.932,4.578a.957.957,0,0,0-.479.83v9.163a.957.957,0,0,0,.479.83l7.933,4.582a.96.96,0,0,0,.958,0l7.931-4.582a.959.959,0,0,0,.478-.83v-9.163a.957.957,0,0,0-.48-.83l-7.93-4.578a.964.964,0,0,0-.96,0" transform="translate(-194.354 -225.925)"/>
    </clipPath>
    <linearGradient id="linear-gradient" x1="-0.847" y1="-1.034" x2="-0.838" y2="-1.034" gradientUnits="objectBoundingBox">
      <stop offset="0.3" stop-color="#3e863d"/>
      <stop offset="0.5" stop-color="#55934f"/>
      <stop offset="0.8" stop-color="#5aad45"/>
    </linearGradient>
    <clipPath id="clip-path-2">
      <path id="Path_108498" data-name="Path 108498" d="M195.4,241.323a.959.959,0,0,0,.282.248l6.8,3.93,1.133.651a.962.962,0,0,0,.552.125.979.979,0,0,0,.188-.034l8.366-15.318a.948.948,0,0,0-.223-.177l-5.194-3-2.745-1.58a1,1,0,0,0-.249-.1Zm0,0" transform="translate(-195.398 -226.069)"/>
    </clipPath>
    <linearGradient id="linear-gradient-2" x1="-0.742" y1="-0.932" x2="-0.737" y2="-0.932" gradientUnits="objectBoundingBox">
      <stop offset="0.57" stop-color="#3e863d"/>
      <stop offset="0.72" stop-color="#619857"/>
      <stop offset="1" stop-color="#76ac64"/>
    </linearGradient>
    <clipPath id="clip-path-3">
      <path id="Path_108500" data-name="Path 108500" d="M205.314,225.938a.968.968,0,0,0-.383.123l-7.909,4.565,8.529,15.535a.952.952,0,0,0,.341-.117l7.932-4.582a.961.961,0,0,0,.463-.654l-8.695-14.853a1,1,0,0,0-.194-.019c-.026,0-.053,0-.079,0" transform="translate(-197.021 -225.934)"/>
    </clipPath>
    <linearGradient id="linear-gradient-3" x1="-2.148" y1="-2.103" x2="-2.138" y2="-2.103" gradientUnits="objectBoundingBox">
      <stop offset="0.16" stop-color="#6bbf47"/>
      <stop offset="0.38" stop-color="#79b461"/>
      <stop offset="0.47" stop-color="#75ac64"/>
      <stop offset="0.7" stop-color="#659e5a"/>
      <stop offset="0.9" stop-color="#3e863d"/>
    </linearGradient>
  </defs>
  <path id="Path_108491" data-name="Path 108491" d="M179.381,182.433a1.583,1.583,0,0,1-.789-.211l-2.511-1.487c-.375-.21-.192-.284-.068-.327a5.07,5.07,0,0,0,1.135-.518.191.191,0,0,1,.187.013l1.929,1.145a.255.255,0,0,0,.233,0l7.522-4.342a.237.237,0,0,0,.115-.2v-8.679a.242.242,0,0,0-.116-.207L179.5,163.28a.231.231,0,0,0-.232,0l-7.517,4.338a.24.24,0,0,0-.119.205v8.68a.232.232,0,0,0,.117.2l2.06,1.19c1.118.559,1.8-.1,1.8-.763v-8.567a.215.215,0,0,1,.218-.217h.953a.215.215,0,0,1,.217.217v8.57a2.085,2.085,0,0,1-2.227,2.348,3.224,3.224,0,0,1-1.734-.471l-1.973-1.137a1.59,1.59,0,0,1-.789-1.373v-8.68a1.58,1.58,0,0,1,.789-1.371l7.529-4.344a1.649,1.649,0,0,1,1.582,0l7.52,4.345a1.587,1.587,0,0,1,.789,1.371V176.5a1.591,1.591,0,0,1-.789,1.371l-7.52,4.344a1.581,1.581,0,0,1-.793.211" transform="translate(-138.215 -131.424)" fill="#689f63"/>
  <path id="Path_108492" data-name="Path 108492" d="M213.823,193.7c-3.291,0-3.981-1.511-3.981-2.778a.216.216,0,0,1,.218-.217h.971a.218.218,0,0,1,.215.184c.147.99.584,1.489,2.574,1.489,1.585,0,2.259-.358,2.259-1.2,0-.484-.192-.843-2.655-1.084-2.06-.2-3.332-.657-3.332-2.3,0-1.518,1.28-2.421,3.425-2.421,2.408,0,3.6.836,3.752,2.632a.219.219,0,0,1-.058.168.224.224,0,0,1-.16.07h-.977a.216.216,0,0,1-.211-.169c-.235-1.041-.8-1.374-2.35-1.374-1.73,0-1.932.6-1.932,1.054,0,.548.237.708,2.572,1.017,2.312.307,3.41.74,3.41,2.365s-1.367,2.577-3.75,2.577m9.161-9.2h.252a.219.219,0,0,0,.247-.23c0-.222-.153-.222-.237-.222h-.26Zm-.307-.712h.559c.192,0,.569,0,.569.429a.374.374,0,0,1-.307.4c.224.015.239.162.269.369a1.587,1.587,0,0,0,.085.429H223.5c-.009-.075-.062-.49-.062-.512-.023-.092-.055-.137-.169-.137h-.284v.651h-.314Zm-.672.81a1.215,1.215,0,1,0,1.211-1.212,1.217,1.217,0,0,0-1.211,1.212m2.666.006a1.45,1.45,0,1,1-1.45-1.45,1.454,1.454,0,0,1,1.45,1.45" transform="translate(-170.334 -148.676)" fill="#689f63"/>
  <path id="Path_108493" data-name="Path 108493" d="M17.874,17.049a.963.963,0,0,0-.482-.837L9.418,11.623A.931.931,0,0,0,8.98,11.5H8.9a.947.947,0,0,0-.441.126L.482,16.212A.97.97,0,0,0,0,17.049L.018,29.408a.474.474,0,0,0,.239.416.456.456,0,0,0,.478,0l4.741-2.715a.972.972,0,0,0,.482-.836V20.5a.96.96,0,0,1,.481-.834L8.457,18.5a.958.958,0,0,1,.482-.13.941.941,0,0,1,.479.129l2.017,1.162a.961.961,0,0,1,.482.834v5.773a.976.976,0,0,0,.483.836l4.738,2.713a.471.471,0,0,0,.482,0,.484.484,0,0,0,.239-.416ZM55.5,23.483a.239.239,0,0,1-.12.208L52.645,25.27a.241.241,0,0,1-.24,0l-2.739-1.579a.239.239,0,0,1-.121-.208V20.321a.242.242,0,0,1,.119-.209L52.4,18.53a.243.243,0,0,1,.243,0l2.739,1.582a.24.24,0,0,1,.121.209ZM56.244.061a.482.482,0,0,0-.717.421V12.72a.337.337,0,0,1-.505.292l-2-1.151a.962.962,0,0,0-.962,0l-7.977,4.6a.961.961,0,0,0-.482.832v9.21a.964.964,0,0,0,.482.834l7.977,4.607a.967.967,0,0,0,.963,0L61,27.34a.965.965,0,0,0,.482-.834V3.552a.965.965,0,0,0-.5-.842ZM82.809,20.238a.963.963,0,0,0,.479-.833V17.173a.964.964,0,0,0-.48-.833l-7.926-4.6a.963.963,0,0,0-.966,0l-7.975,4.6a.961.961,0,0,0-.482.834v9.207a.966.966,0,0,0,.486.838l7.925,4.517a.961.961,0,0,0,.945.006l4.793-2.664a.481.481,0,0,0,0-.838l-8.024-4.605a.478.478,0,0,1-.243-.416V20.331a.478.478,0,0,1,.241-.417l2.5-1.44a.476.476,0,0,1,.48,0l2.5,1.44a.48.48,0,0,1,.241.416V22.6a.48.48,0,0,0,.723.416Zm0,0" transform="translate(0 0)" fill="#333" fill-rule="evenodd"/>
  <path id="Path_108494" data-name="Path 108494" d="M387.537,105.092a.183.183,0,0,1,.184,0l1.531.883a.185.185,0,0,1,.092.16V107.9a.185.185,0,0,1-.092.16l-1.531.883a.183.183,0,0,1-.184,0l-1.53-.883a.184.184,0,0,1-.094-.16v-1.768a.182.182,0,0,1,.092-.16Zm0,0" transform="translate(-313.255 -85.286)" fill="#689f63" fill-rule="evenodd"/>
  <g id="Group_37541" data-name="Group 37541" transform="translate(21.849 11.656)" clip-path="url(#clip-path)">
    <path id="Path_108495" data-name="Path 108495" d="M185.589,199.559,163.238,188.6l-11.46,23.379,22.351,10.956Zm0,0" transform="translate(-159.794 -195.63)" fill="url(#linear-gradient)"/>
  </g>
  <g id="Group_37542" data-name="Group 37542" transform="translate(22.046 11.683)" clip-path="url(#clip-path-2)">
    <path id="Path_108497" data-name="Path 108497" d="M144.07,197.521l15.782,21.36,20.872-15.421L164.941,182.1Zm0,0" transform="translate(-153.734 -190.379)" fill="url(#linear-gradient-2)"/>
  </g>
  <g id="Group_37543" data-name="Group 37543" transform="translate(22.351 11.658)" clip-path="url(#clip-path-3)">
    <path id="Path_108499" data-name="Path 108499" d="M197.02,225.934V246.16h17.262V225.934Zm0,0" transform="translate(-197.02 -225.934)" fill="url(#linear-gradient-3)"/>
  </g>
</svg>
