<svg id="php" xmlns="http://www.w3.org/2000/svg" width="77.74" height="39.062" viewBox="0 0 77.74 39.062">
  <path id="Path_108399" data-name="Path 108399" d="M6.152,10.123H17.681q5.076.043,7.356,2.925t1.506,7.873a15.1,15.1,0,0,1-1.334,4.474,13.3,13.3,0,0,1-2.753,3.958,9.61,9.61,0,0,1-4.6,2.839,21.193,21.193,0,0,1-5.076.6H7.614L5.98,40.968H0L6.152,10.123h0m5.033,4.9L8.6,27.933a3.164,3.164,0,0,0,.516.043h.6a22.621,22.621,0,0,0,6.883-.817q2.753-.9,3.7-6.281.774-4.517-1.549-5.205a19.3,19.3,0,0,0-5.722-.645q-.516.043-.989.043h-.9l.043-.043" transform="translate(0 -1.906)"/>
  <path id="Path_108400" data-name="Path 108400" d="M39.656,0h5.937L43.915,8.217h5.334q4.388.086,6.539,1.807,2.194,1.72,1.291,6.539L54.2,30.888H48.174l2.753-13.68a3.882,3.882,0,0,0-.258-3.054q-.688-.9-2.968-.9l-4.775-.043L39.4,30.888H33.461L39.656,0h0" transform="translate(-6.301)"/>
  <path id="Path_108401" data-name="Path 108401" d="M68.985,10.123H80.514q5.076.043,7.356,2.925t1.506,7.873a15.1,15.1,0,0,1-1.334,4.474,13.3,13.3,0,0,1-2.753,3.958,9.61,9.61,0,0,1-4.6,2.839,21.193,21.193,0,0,1-5.076.6H70.447l-1.635,8.174h-5.98l6.152-30.845h0m5.033,4.9L71.437,27.933a3.164,3.164,0,0,0,.516.043h.6a22.621,22.621,0,0,0,6.883-.817q2.753-.9,3.7-6.281.774-4.517-1.549-5.205a19.3,19.3,0,0,0-5.722-.645q-.516.043-.989.043h-.9l.043-.043" transform="translate(-11.832 -1.906)"/>
</svg>
