<svg id="react" xmlns="http://www.w3.org/2000/svg" width="93.684" height="84.229" viewBox="0 0 93.684 84.229">
  <path id="Path_108487" data-name="Path 108487" d="M.754,42.748c0,7.075,6.909,13.68,17.8,17.4-2.175,10.95-.39,19.775,5.573,23.214,6.129,3.534,15.26,1.088,23.926-6.488C56.5,84.146,65.04,87.007,71,83.558c6.123-3.545,7.986-12.969,5.75-24.26,11.344-3.751,17.69-9.383,17.69-16.551,0-6.911-6.921-12.89-17.666-16.589,2.406-11.758.367-20.369-5.842-23.95-5.987-3.452-14.624-.443-23.2,7.017C38.815,1.307,30.264-1.11,24.06,2.481c-5.981,3.462-7.688,12.448-5.506,23.6C8.03,29.751.754,35.865.754,42.748Z" transform="translate(-0.754 -0.785)" fill="#fff"/>
  <path id="Path_108488" data-name="Path 108488" d="M83.649,38.507q-1.295-.446-2.678-.844.227-.927.414-1.827c2.027-9.841.7-17.769-3.825-20.38-4.34-2.5-11.439.107-18.608,6.346q-1.034.9-2.072,1.9-.691-.661-1.379-1.273c-7.513-6.671-15.044-9.482-19.566-6.864-4.336,2.51-5.62,9.963-3.8,19.29q.264,1.351.615,2.756c-1.066.3-2.095.625-3.079.968-8.808,3.071-14.434,7.884-14.434,12.876,0,5.156,6.039,10.328,15.214,13.464q1.086.371,2.25.7-.377,1.517-.653,2.97c-1.74,9.165-.381,16.442,3.943,18.936,4.467,2.576,11.964-.072,19.264-6.453q.865-.757,1.736-1.6,1.128,1.086,2.249,2.052c7.071,6.085,14.055,8.542,18.375,6.04,4.463-2.583,5.913-10.4,4.03-19.912q-.216-1.09-.5-2.224.79-.233,1.547-.483c9.538-3.16,15.744-8.269,15.744-13.494,0-5.01-5.807-9.856-14.793-12.949Z" transform="translate(-9.908 -9.459)" fill="#53c1de"/>
  <path id="Path_108489" data-name="Path 108489" d="M87.679,67.661q-.682.226-1.4.437a83.366,83.366,0,0,0-4.213-10.54,83.347,83.347,0,0,0,4.049-10.386q1.277.369,2.473.78c7.7,2.65,12.4,6.569,12.4,9.589,0,3.216-5.072,7.392-13.307,10.12Zm-3.417,6.771a30.1,30.1,0,0,1,.4,10.981c-.5,2.671-1.492,4.452-2.724,5.165-2.622,1.518-8.229-.455-14.276-5.659q-1.04-.895-2.092-1.908a83.5,83.5,0,0,0,6.974-8.855,82.958,82.958,0,0,0,11.268-1.737q.255,1.027.45,2.013ZM49.706,90.315c-2.562.9-4.6.931-5.835.219-2.624-1.514-3.715-7.357-2.227-15.194q.256-1.346.607-2.762A83.585,83.585,0,0,0,53.462,74.2,86.525,86.525,0,0,0,60.6,83.025q-.8.769-1.585,1.46a30.1,30.1,0,0,1-9.314,5.83Zm-12-22.674A30.1,30.1,0,0,1,28,62.486c-2.064-1.767-3.105-3.522-3.105-4.945,0-3.03,4.517-6.894,12.05-9.52.914-.319,1.871-.619,2.864-.9a85.194,85.194,0,0,0,4.055,10.508,86.591,86.591,0,0,0-4.106,10.657q-1.062-.305-2.054-.643Zm4.023-27.384c-1.564-7.991-.525-14.019,2.088-15.531,2.783-1.611,8.938.686,15.425,6.446q.622.552,1.248,1.152A85.144,85.144,0,0,0,53.4,41.095,86.867,86.867,0,0,0,42.3,42.82q-.325-1.306-.572-2.563Zm35.888,8.862q-1.235-2.133-2.53-4.161c2.655.336,5.2.781,7.586,1.326a75.921,75.921,0,0,1-2.663,7.164q-1.132-2.149-2.393-4.33ZM62.981,34.864a75.976,75.976,0,0,1,4.9,5.911q-2.441-.115-4.936-.117-2.468,0-4.9.115c1.616-2.132,3.272-4.112,4.937-5.908ZM48.252,49.144q-1.234,2.139-2.349,4.3c-1.035-2.455-1.92-4.868-2.644-7.2,2.374-.531,4.905-.966,7.543-1.295Q49.491,47,48.252,49.143Zm2.626,21.239A75.652,75.652,0,0,1,43.21,69.15c.735-2.372,1.64-4.838,2.7-7.345q1.117,2.158,2.359,4.3h0q1.264,2.184,2.612,4.273Zm12.2,10.085c-1.685-1.818-3.365-3.828-5.006-5.991q2.39.094,4.868.094,2.544,0,5.022-.112a75.6,75.6,0,0,1-4.884,6.008Zm16.964-18.79A75.4,75.4,0,0,1,82.837,69a75.515,75.515,0,0,1-7.761,1.323q1.3-2.053,2.554-4.234,1.271-2.2,2.413-4.408ZM74.551,64.31c-1.3,2.255-2.636,4.408-3.991,6.44-2.469.177-5.019.267-7.619.267s-5.108-.08-7.533-.238c-1.41-2.059-2.774-4.218-4.067-6.45h0c-1.289-2.226-2.475-4.471-3.55-6.7,1.075-2.238,2.258-4.485,3.539-6.707h0c1.285-2.228,2.637-4.377,4.034-6.422,2.474-.187,5.012-.285,7.576-.285h0c2.576,0,5.116.1,7.59.287,1.376,2.031,2.719,4.172,4.009,6.4,1.3,2.253,2.5,4.486,3.587,6.675-1.08,2.227-2.276,4.482-3.575,6.735Zm7.332-39.69C84.669,26.227,85.753,32.706,84,41.2q-.167.813-.374,1.654A85.142,85.142,0,0,0,72.5,41.1a83.492,83.492,0,0,0-7.033-8.778q.959-.923,1.914-1.755c6.142-5.345,11.883-7.456,14.5-5.948Z" transform="translate(-16.006 -15.543)" fill="#fff"/>
  <path id="Path_108490" data-name="Path 108490" d="M115.473,94.665a7.429,7.429,0,1,1-7.429,7.429,7.429,7.429,0,0,1,7.429-7.429" transform="translate(-68.539 -60.098)" fill="#53c1de"/>
</svg>
