<svg id="shopify" xmlns="http://www.w3.org/2000/svg" width="59.342" height="67.484" viewBox="0 0 59.342 67.484">
  <path id="Path_108402" data-name="Path 108402" d="M52.012,13.919a.652.652,0,0,0-.589-.548c-.245-.021-5.432-.4-5.432-.4s-3.6-3.576-4-3.972a1.639,1.639,0,0,0-1.468-.187l-2.016.622c-1.2-3.463-3.327-6.645-7.063-6.645-.1,0-.209,0-.316.01A4.54,4.54,0,0,0,27.614.779c-8.7,0-12.861,10.88-14.165,16.409-3.382,1.048-5.784,1.793-6.091,1.889-1.888.592-1.947.652-2.2,2.43C4.976,22.855.037,61.052.037,61.052l38.488,7.211,20.854-4.512s-7.321-49.494-7.367-49.833Zm-15.63-3.831L33.125,11.1c0-.229,0-.455,0-.7a15.975,15.975,0,0,0-.778-5.259c1.925.242,3.207,2.432,4.032,4.953Zm-6.42-4.526a16.148,16.148,0,0,1,.883,5.863c0,.133,0,.254,0,.377l-6.726,2.083c1.3-5,3.723-7.412,5.845-8.323ZM27.375,3.114a1.965,1.965,0,0,1,1.116.377C25.7,4.8,22.713,8.109,21.45,14.71l-5.317,1.646c1.479-5.035,4.991-13.243,11.242-13.243Z" transform="translate(-0.037 -0.779)" fill="#95bf46"/>
  <path id="Path_108403" data-name="Path 108403" d="M178.62,39.675c-.245-.021-5.432-.4-5.432-.4s-3.6-3.576-4-3.972a.986.986,0,0,0-.556-.255l-2.91,59.524,20.852-4.511s-7.321-49.494-7.367-49.833a.652.652,0,0,0-.589-.548" transform="translate(-127.234 -27.083)" fill="#5e8e3e"/>
  <path id="Path_108404" data-name="Path 108404" d="M61.527,101.255,58.956,108.9a11.829,11.829,0,0,0-5.015-1.2c-4.049,0-4.252,2.541-4.252,3.181,0,3.493,9.107,4.832,9.107,13.015,0,6.438-4.083,10.583-9.589,10.583a13.34,13.34,0,0,1-9.985-4.112l1.769-5.845s3.473,2.982,6.4,2.982a2.583,2.583,0,0,0,2.694-2.609c0-4.557-7.471-4.76-7.471-12.248,0-6.3,4.523-12.4,13.654-12.4a11.233,11.233,0,0,1,5.256,1.008" transform="translate(-30.119 -77.14)" fill="#fff"/>
</svg>
