<svg id="wordpress" xmlns="http://www.w3.org/2000/svg" xmlns:xlink="http://www.w3.org/1999/xlink" width="65.005" height="65.006" viewBox="0 0 65.005 65.006">
  <defs>
    <clipPath id="clip-path">
      <rect id="Rectangle_4397" data-name="Rectangle 4397" width="65.005" height="65.007" fill="none"/>
    </clipPath>
  </defs>
  <g id="Group_37544" data-name="Group 37544" clip-path="url(#clip-path)">
    <path id="Path_108501" data-name="Path 108501" d="M41.223,200.1a27.889,27.889,0,0,0,15.715,25.1l-13.3-36.443A27.778,27.778,0,0,0,41.223,200.1" transform="translate(-36.603 -167.594)" fill="#00749a"/>
    <path id="Path_108502" data-name="Path 108502" d="M124.261,67.7a14.676,14.676,0,0,0-2.3-7.69c-1.413-2.3-2.737-4.242-2.737-6.539A4.828,4.828,0,0,1,123.9,48.52c.124,0,.241.016.362.022A27.878,27.878,0,0,0,82.14,53.791c.655.02,1.272.033,1.794.033,2.916,0,7.432-.354,7.432-.354a1.152,1.152,0,0,1,.179,2.3s-1.511.178-3.192.266l10.154,30.2,6.1-18.3-4.345-11.9c-1.5-.088-2.924-.266-2.924-.266a1.152,1.152,0,0,1,.176-2.3s4.6.354,7.344.354c2.916,0,7.431-.354,7.431-.354a1.152,1.152,0,0,1,.179,2.3s-1.514.178-3.191.266l10.077,29.974,2.78-9.294c1.206-3.857,2.124-6.627,2.124-9.014" transform="translate(-72.934 -36.603)" fill="#00749a"/>
    <path id="Path_108503" data-name="Path 108503" d="M228.092,311.76l-8.366,24.309a27.884,27.884,0,0,0,17.136-.444,2.3,2.3,0,0,1-.2-.384Z" transform="translate(-195.1 -276.819)" fill="#00749a"/>
    <path id="Path_108504" data-name="Path 108504" d="M425.52,170.636a21.441,21.441,0,0,1,.188,2.867,26.3,26.3,0,0,1-2.12,9.987l-8.517,24.625a27.888,27.888,0,0,0,10.449-37.48" transform="translate(-368.551 -151.511)" fill="#00749a"/>
    <path id="Path_108505" data-name="Path 108505" d="M32.5,0A32.5,32.5,0,1,0,65.008,32.5,32.54,32.54,0,0,0,32.5,0m0,63.516A31.013,31.013,0,1,1,63.515,32.5,31.049,31.049,0,0,1,32.5,63.516" fill="#00749a"/>
  </g>
</svg>
