<svg xmlns="http://www.w3.org/2000/svg" xmlns:xlink="http://www.w3.org/1999/xlink" width="259.199" height="70" viewBox="0 0 259.199 70">
  <defs>
    <clipPath id="clip-path">
      <rect width="68.95" height="13" fill="none"/>
    </clipPath>
  </defs>
  <g id="comparably" transform="translate(-658 -995)">
    <rect id="Rectangle_20963" data-name="Rectangle 20963" width="259" height="70" transform="translate(658 995)" fill="none"/>
    <g id="Group_86572" data-name="Group 86572" transform="translate(0.198 100)">
      <g id="comparably-logo-vector_1_" data-name="comparably-logo-vector (1)" transform="translate(631.302 619.7)">
        <path id="Path_114377" data-name="Path 114377" d="M146.674,311.314h.786c.229,0,.459-.1.688-.1a1.431,1.431,0,0,0,.688-.229,3.552,3.552,0,0,1,.786-.328l.688,3.7a8.714,8.714,0,0,1-4.489,1.245,8.338,8.338,0,0,1-5.833-2.261,8.676,8.676,0,0,1-1.9-9.569,8.8,8.8,0,0,1,1.8-2.687,8.366,8.366,0,0,1,2.589-1.8,7.9,7.9,0,0,1,3.244-.688,9.441,9.441,0,0,1,4.62,1.114l-.688,3.6a8.086,8.086,0,0,0-3.048-.688,3.6,3.6,0,0,0-2.916,1.114,4.543,4.543,0,0,0-1.016,3.146,7.517,7.517,0,0,0,.229,1.8,4.041,4.041,0,0,0,.786,1.344,5.721,5.721,0,0,0,2.982,1.278Zm5.046-4.162a8.718,8.718,0,0,1,2.261-5.964,8.409,8.409,0,0,1,6.39-2.589,9.3,9.3,0,0,1,3.6.688,7.462,7.462,0,0,1,2.687,1.8,7.893,7.893,0,0,1,1.671,2.687,8.044,8.044,0,0,1,.557,3.375,10.606,10.606,0,0,1-.229,2.13,7.431,7.431,0,0,1-.786,2.032,5.569,5.569,0,0,1-1.245,1.671,5.132,5.132,0,0,1-1.671,1.344,11.2,11.2,0,0,1-2.13.885,10.389,10.389,0,0,1-5.178,0,12.586,12.586,0,0,1-2.13-.885c-.557-.459-1.114-.885-1.671-1.344a18.366,18.366,0,0,1-1.245-1.671,12.46,12.46,0,0,1-.786-2.032C151.851,308.5,151.72,307.841,151.72,307.153Zm8.651,4.162a3.561,3.561,0,0,0,1.573-.328,2.181,2.181,0,0,0,1.016-1.016,5.843,5.843,0,0,0,.557-1.344,7.661,7.661,0,0,0,.229-1.475,5.7,5.7,0,0,0-.229-1.671c-.229-.557-.459-1.016-.688-1.475a4.151,4.151,0,0,0-1.114-.885,2.9,2.9,0,0,0-1.344-.328,2.466,2.466,0,0,0-1.573.459,2.182,2.182,0,0,0-1.016,1.016,5.844,5.844,0,0,0-.557,1.344,7.565,7.565,0,0,0-.229,1.573,7.33,7.33,0,0,0,.229,1.671,2.782,2.782,0,0,0,.688,1.344,4.15,4.15,0,0,0,1.114.885A4.533,4.533,0,0,0,160.371,311.314Zm10.453-12.354h4.948l4.031,7.865,3.932-7.865h4.948v16.155h-4.948v-8.651l-3.048,5.6h-2.032l-3.048-5.6v8.651h-4.948V298.928h.164Zm20.35,0h5.833a13.927,13.927,0,0,1,3.244.328,7.674,7.674,0,0,1,2.359,1.016,4.474,4.474,0,0,1,1.475,1.671,5.271,5.271,0,0,1,.459,2.261,5.354,5.354,0,0,1-.557,2.261,4.052,4.052,0,0,1-1.573,1.671,7.675,7.675,0,0,1-2.359,1.016,11.08,11.08,0,0,1-2.818.328h-1.016v5.505h-5.046Zm6.062,7.406a2.982,2.982,0,0,0,1.9-.459,1.655,1.655,0,0,0,.688-1.475,2.216,2.216,0,0,0-.229-.885,1.151,1.151,0,0,0-.557-.557,2.68,2.68,0,0,0-.786-.328c-.229,0-.688-.1-1.016-.1h-1.016V306.5h.459C196.909,306.5,197.007,306.366,197.237,306.366Zm11.011-7.406h7.176l4.719,16.188h-5.6L213.851,312h-4.162l-.655,3.113h-5.276Zm5.046,10.224-1.573-7.078-1.573,7.078Zm28.64-10.224h7.176l4.719,16.188h-5.6L247.537,312h-4.162l-.688,3.146h-5.276Zm5.178,10.224-1.573-7.078-1.573,7.078Zm16.745,6.39c-1.8,0-4.391-.1-7.963-.328V298.96h8.094a12.514,12.514,0,0,1,2.359.229,7.9,7.9,0,0,1,1.9.786,4.5,4.5,0,0,1,1.245,1.245,2.784,2.784,0,0,1,.459,1.671,3.616,3.616,0,0,1-.688,2.359,3.686,3.686,0,0,1-1.9,1.114,3.412,3.412,0,0,1,2.458,1.114,4.138,4.138,0,0,1,.885,2.687,4.283,4.283,0,0,1-.557,2.032,4.7,4.7,0,0,1-1.475,1.671,6.275,6.275,0,0,1-2.13,1.114A7.229,7.229,0,0,1,263.857,315.574Zm1.573-5.6a2.217,2.217,0,0,0-.229-.885,1.608,1.608,0,0,0-.459-.557c-.229-.1-.459-.328-.786-.328s-.688-.1-1.016-.1h-2.032v3.834h2.359a1.916,1.916,0,0,0,.786-.1c.229-.1.459-.229.688-.328s.328-.328.459-.557A2.14,2.14,0,0,0,265.429,309.971Zm-.459-6.193c0-1.114-.688-1.671-2.032-1.671h-1.9v3.244h1.9a1.916,1.916,0,0,0,.786-.1c.229-.1.459-.229.688-.328s.328-.328.459-.459A1.673,1.673,0,0,0,264.971,303.777Zm8.225-4.817h5.046v12.682h5.6v3.474H273.163V298.96Zm14.582,11.666-4.719-11.7h4.948l2.261,7.308,2.261-7.308h5.178l-4.948,11.7v4.489H287.68v-4.489ZM236.1,315.017l-2.687-7.176a2.1,2.1,0,0,0,.688-.459,8.157,8.157,0,0,0,1.016-.885,3.609,3.609,0,0,0,.557-1.245,6.42,6.42,0,0,0,.229-1.573,3.989,3.989,0,0,0-.557-2.032,3.748,3.748,0,0,0-1.475-1.475,5.427,5.427,0,0,0-2.13-.885,9.338,9.338,0,0,0-2.589-.328h-7.176v16.155h5.178v-6.193h1.212l2.261,6.062Zm-8.979-12.583H228.7a3.566,3.566,0,0,1,1.016.1,1.484,1.484,0,0,1,.786.229.975.975,0,0,1,.557.459,1.851,1.851,0,0,1,.229.786,1.484,1.484,0,0,1-.229.786c-.1.229-.328.328-.557.459a1.852,1.852,0,0,1-.786.229,2.722,2.722,0,0,1-.885.1h-1.671v-3.146Z" transform="translate(-74.559 -9.614)" fill="#fff"/>
        <g id="Group_86558" data-name="Group 86558" transform="translate(26.5 284.3)">
          <path id="Path_114378" data-name="Path 114378" d="M50.8,284.3l5.309,9.077h5.276L66.66,284.3Z" transform="translate(-42.837 -284.3)" fill="#fff"/>
          <path id="Path_114379" data-name="Path 114379" d="M34.463,284.3l5.309,9.077L37.052,298H26.5Z" transform="translate(-26.5 -284.3)" fill="#fff"/>
          <path id="Path_114380" data-name="Path 114380" d="M26.5,326.1H37.052l2.72,4.588-5.309,9.241Z" transform="translate(-26.5 -312.402)" fill="#fff"/>
          <path id="Path_114381" data-name="Path 114381" d="M56.109,340.1h5.276l5.276,9.241H50.8Z" transform="translate(-42.837 -321.815)" fill="#fff"/>
          <path id="Path_114382" data-name="Path 114382" d="M83.1,330.688l2.589-4.588H96.24l-7.865,13.829Z" transform="translate(-64.553 -312.402)" fill="#fff"/>
        </g>
      </g>
      <g id="Group_86572-2" data-name="Group 86572" transform="translate(0 -15)">
        <g id="Repeat_Grid_3" data-name="Repeat Grid 3" transform="translate(785.5 955)" clip-path="url(#clip-path)">
          <g transform="translate(-1203.5 -943)">
            <path id="Polygon_4" data-name="Polygon 4" d="M6.5,0,8.125,4.835,13,4.966,9.129,8.085,10.517,13,6.5,10.093,2.483,13,3.871,8.085,0,4.966l4.875-.131Z" transform="translate(1203.5 943)" fill="#fff"/>
          </g>
          <g transform="translate(-1189.5 -943)">
            <path id="Polygon_4-2" data-name="Polygon 4" d="M6.5,0,8.125,4.835,13,4.966,9.129,8.085,10.517,13,6.5,10.093,2.483,13,3.871,8.085,0,4.966l4.875-.131Z" transform="translate(1203.5 943)" fill="#fff"/>
          </g>
          <g transform="translate(-1175.5 -943)">
            <path id="Polygon_4-3" data-name="Polygon 4" d="M6.5,0,8.125,4.835,13,4.966,9.129,8.085,10.517,13,6.5,10.093,2.483,13,3.871,8.085,0,4.966l4.875-.131Z" transform="translate(1203.5 943)" fill="#fff"/>
          </g>
          <g transform="translate(-1161.5 -943)">
            <path id="Polygon_4-4" data-name="Polygon 4" d="M6.5,0,8.125,4.835,13,4.966,9.129,8.085,10.517,13,6.5,10.093,2.483,13,3.871,8.085,0,4.966l4.875-.131Z" transform="translate(1203.5 943)" fill="#fff"/>
          </g>
          <g transform="translate(-1147.5 -943)">
            <path id="Polygon_4-5" data-name="Polygon 4" d="M6.5,0,8.125,4.835,13,4.966,9.129,8.085,10.517,13,6.5,10.093,2.483,13,3.871,8.085,0,4.966l4.875-.131Z" transform="translate(1203.5 943)" fill="#fff"/>
          </g>
        </g>
        <text id="_4.8_5" data-name="4.8/5" transform="translate(739 967)" fill="#fff" font-size="16" font-family="Roboto-Bold, Roboto" font-weight="700"><tspan x="0" y="0">4.8/5</tspan></text>
      </g>
      <path id="Subtraction_3" data-name="Subtraction 3" d="M5268-1158h-52v-52h52v52Zm-37.553-19.543h7.963l1.528,4.541h4.828l-8.249-22.039h-4.208L5224.105-1173h4.83l1.512-4.541Zm19.729-3.845v6.177h4.163v-6.177h5.464v-3.95h-5.464v-5.918h-4.163v5.918H5244.7v3.95Zm-12.994.167h-5.509l2.739-8.249,2.769,8.247Z" transform="translate(-4351 2114)" fill="#fff"/>
    </g>
  </g>
</svg>
